Pacifico.ufo
<glyph name="numbersign" format="1">
  <advance width="1248"/>
  <unicode hex="0023"/>
  <outline>
    <contour>
      <point x="483" y="960" type="curve"/>
      <point x="545" y="960" type="line"/>
      <point x="416" y="672" type="line"/>
      <point x="378" y="672" type="line" smooth="yes"/>
      <point x="340" y="672"/>
      <point x="291" y="672"/>
      <point x="274" y="666" type="curve" smooth="yes"/>
      <point x="224" y="649"/>
      <point x="166" y="627"/>
      <point x="166" y="556" type="curve" smooth="yes"/>
      <point x="166" y="479"/>
      <point x="235" y="448"/>
      <point x="300" y="448" type="curve" smooth="yes"/>
      <point x="305" y="448"/>
      <point x="311" y="447"/>
      <point x="317" y="447" type="curve"/>
      <point x="193" y="168" type="line" smooth="yes"/>
      <point x="169" y="115"/>
      <point x="159" y="72"/>
      <point x="159" y="43" type="curve" smooth="yes"/>
      <point x="159" y="-27"/>
      <point x="211" y="-35"/>
      <point x="257" y="-35" type="curve" smooth="yes"/>
      <point x="297" y="-35"/>
      <point x="348" y="-26"/>
      <point x="387" y="51" type="curve" smooth="yes"/>
      <point x="455" y="186"/>
      <point x="518" y="319"/>
      <point x="576" y="445" type="curve"/>
      <point x="691" y="445"/>
      <point x="802" y="446"/>
      <point x="900" y="447" type="curve"/>
      <point x="803" y="172" type="line" smooth="yes"/>
      <point x="787" y="126"/>
      <point x="779" y="88"/>
      <point x="779" y="60" type="curve" smooth="yes"/>
      <point x="779" y="-17"/>
      <point x="831" y="-31"/>
      <point x="885" y="-31" type="curve" smooth="yes"/>
      <point x="925" y="-31"/>
      <point x="975" y="-22"/>
      <point x="1007" y="55" type="curve" smooth="yes"/>
      <point x="1063" y="190"/>
      <point x="1114" y="322"/>
      <point x="1161" y="448" type="curve"/>
      <point x="1164" y="448" type="line" smooth="yes"/>
      <point x="1352" y="448"/>
      <point x="1410" y="519"/>
      <point x="1410" y="609" type="curve" smooth="yes"/>
      <point x="1410" y="639"/>
      <point x="1395" y="668"/>
      <point x="1328" y="673" type="curve"/>
      <point x="1241" y="673" type="line"/>
      <point x="1277" y="774"/>
      <point x="1310" y="870"/>
      <point x="1339" y="960" type="curve"/>
      <point x="1375" y="960" type="line" smooth="yes"/>
      <point x="1565" y="960"/>
      <point x="1621" y="1031"/>
      <point x="1621" y="1123" type="curve" smooth="yes"/>
      <point x="1621" y="1155"/>
      <point x="1606" y="1185"/>
      <point x="1539" y="1185" type="curve" smooth="yes"/>
      <point x="1413" y="1185" type="line"/>
      <point x="1444" y="1279"/>
      <point x="1472" y="1361"/>
      <point x="1497" y="1429" type="curve" smooth="yes"/>
      <point x="1510" y="1463"/>
      <point x="1533" y="1530"/>
      <point x="1533" y="1550" type="curve"/>
      <point x="1529" y="1585"/>
      <point x="1525" y="1635"/>
      <point x="1468" y="1635" type="curve" smooth="yes"/>
      <point x="1366" y="1635"/>
      <point x="1298" y="1559"/>
      <point x="1275" y="1494" type="curve" smooth="yes"/>
      <point x="1247" y="1418"/>
      <point x="1207" y="1308"/>
      <point x="1163" y="1185" type="curve"/>
      <point x="1071" y="1185"/>
      <point x="979" y="1184"/>
      <point x="894" y="1184" type="curve"/>
      <point x="933" y="1277"/>
      <point x="967" y="1358"/>
      <point x="998" y="1425" type="curve" smooth="yes"/>
      <point x="1013" y="1458"/>
      <point x="1044" y="1527"/>
      <point x="1044" y="1546" type="curve" smooth="yes"/>
      <point x="1044" y="1581"/>
      <point x="1044" y="1631"/>
      <point x="987" y="1631" type="curve" smooth="yes"/>
      <point x="885" y="1631"/>
      <point x="810" y="1555"/>
      <point x="782" y="1490" type="curve"/>
      <point x="644" y="1184" type="line"/>
      <point x="591" y="1184" type="line" smooth="yes"/>
      <point x="462" y="1184"/>
      <point x="349" y="1170"/>
      <point x="349" y="1068" type="curve" smooth="yes"/>
      <point x="349" y="991"/>
      <point x="418" y="960"/>
    </contour>
    <contour>
      <point x="800" y="960" type="curve"/>
      <point x="1083" y="960" type="line"/>
      <point x="1048" y="863"/>
      <point x="1013" y="764"/>
      <point x="980" y="670" type="curve"/>
      <point x="878" y="669"/>
      <point x="777" y="669"/>
      <point x="677" y="669" type="curve"/>
      <point x="676" y="669" type="line"/>
      <point x="721" y="772"/>
      <point x="762" y="869"/>
    </contour>
  </outline>
</glyph>
<glyph name="dollar" format="1">
  <advance width="1735"/>
  <unicode hex="0024"/>
  <outline>
    <contour>
      <point x="1106" y="1872" type="curve"/>
      <point x="1084" y="1743" type="line"/>
      <point x="697" y="1727"/>
      <point x="496" y="1500"/>
      <point x="496" y="1294" type="curve" smooth="yes"/>
      <point x="496" y="1081"/>
      <point x="714" y="962"/>
      <point x="923" y="853" type="curve"/>
      <point x="807" y="210" type="line"/>
      <point x="614" y="225"/>
      <point x="496" y="293"/>
      <point x="496" y="420" type="curve" smooth="yes"/>
      <point x="496" y="571"/>
      <point x="586" y="598"/>
      <point x="647" y="598" type="curve" smooth="yes"/>
      <point x="704" y="598"/>
      <point x="733" y="638"/>
      <point x="733" y="680" type="curve" smooth="yes"/>
      <point x="733" y="728"/>
      <point x="696" y="778"/>
      <point x="617" y="778" type="curve" smooth="yes"/>
      <point x="338" y="778"/>
      <point x="257" y="560"/>
      <point x="257" y="417" type="curve" smooth="yes"/>
      <point x="257" y="153"/>
      <point x="485" y="29"/>
      <point x="770" y="4" type="curve"/>
      <point x="764" y="-29"/>
      <point x="759" y="-54"/>
      <point x="758" y="-65" type="curve" smooth="yes"/>
      <point x="755" y="-83"/>
      <point x="754" y="-99"/>
      <point x="754" y="-114" type="curve" smooth="yes"/>
      <point x="754" y="-175"/>
      <point x="784" y="-224"/>
      <point x="827" y="-224" type="curve" smooth="yes"/>
      <point x="837" y="-224"/>
      <point x="849" y="-225"/>
      <point x="862" y="-225" type="curve" smooth="yes"/>
      <point x="900" y="-225"/>
      <point x="944" y="-218"/>
      <point x="962" y="-158" type="curve"/>
      <point x="992" y="4" type="line"/>
      <point x="1317" y="34"/>
      <point x="1537" y="210"/>
      <point x="1537" y="507" type="curve" smooth="yes"/>
      <point x="1537" y="727"/>
      <point x="1352" y="856"/>
      <point x="1163" y="966" type="curve"/>
      <point x="1259" y="1523" type="line"/>
      <point x="1384" y="1499"/>
      <point x="1457" y="1440"/>
      <point x="1457" y="1374" type="curve" smooth="yes"/>
      <point x="1457" y="1280"/>
      <point x="1522" y="1227"/>
      <point x="1584" y="1227" type="curve" smooth="yes"/>
      <point x="1641" y="1227"/>
      <point x="1697" y="1273"/>
      <point x="1697" y="1374" type="curve" smooth="yes"/>
      <point x="1697" y="1561"/>
      <point x="1509" y="1685"/>
      <point x="1293" y="1728" type="curve"/>
      <point x="1308" y="1820" type="line"/>
      <point x="1311" y="1843"/>
      <point x="1317" y="1885"/>
      <point x="1317" y="1906" type="curve" smooth="yes"/>
      <point x="1317" y="1932"/>
      <point x="1297" y="1984"/>
      <point x="1250" y="1984" type="curve" smooth="yes"/>
      <point x="1161" y="1984"/>
      <point x="1113" y="1923"/>
    </contour>
    <contour>
      <point x="1297" y="507" type="curve" smooth="yes"/>
      <point x="1297" y="366"/>
      <point x="1193" y="263"/>
      <point x="1033" y="224" type="curve"/>
      <point x="1124" y="741" type="line"/>
      <point x="1225" y="675"/>
      <point x="1297" y="603"/>
    </contour>
    <contour>
      <point x="767" y="1324" type="curve" smooth="yes"/>
      <point x="767" y="1415"/>
      <point x="847" y="1511"/>
      <point x="1046" y="1531" type="curve"/>
      <point x="1023" y="1399"/>
      <point x="994" y="1243"/>
      <point x="965" y="1081" type="curve"/>
      <point x="851" y="1152"/>
      <point x="767" y="1225"/>
    </contour>
  </outline>
</glyph>
<glyph name="percent" format="1">
  <advance width="2208"/>
  <unicode hex="0025"/>
  <outline>
    <contour>
      <point x="455" y="672" type="curve" smooth="yes"/>
      <point x="754" y="672"/>
      <point x="950" y="1021"/>
      <point x="950" y="1312" type="curve" smooth="yes"/>
      <point x="950" y="1538"/>
      <point x="844" y="1728"/>
      <point x="594" y="1728" type="curve" smooth="yes"/>
      <point x="260" y="1728"/>
      <point x="94" y="1410"/>
      <point x="94" y="1120" type="curve" smooth="yes"/>
      <point x="94" y="883"/>
      <point x="219" y="672"/>
    </contour>
    <contour>
      <point x="473" y="864" type="curve" smooth="yes"/>
      <point x="390" y="864"/>
      <point x="350" y="994"/>
      <point x="350" y="1141" type="curve" smooth="yes"/>
      <point x="350" y="1330"/>
      <point x="426" y="1536"/>
      <point x="568" y="1536" type="curve" smooth="yes"/>
      <point x="668" y="1536"/>
      <point x="706" y="1435"/>
      <point x="706" y="1314" type="curve" smooth="yes"/>
      <point x="706" y="1114"/>
      <point x="596" y="864"/>
    </contour>
    <contour>
      <point x="1372" y="1696" type="curve" smooth="yes"/>
      <point x="1184" y="1344"/>
      <point x="699" y="400"/>
      <point x="615" y="237" type="curve"/>
      <point x="597" y="197"/>
      <point x="580" y="143"/>
      <point x="580" y="96" type="curve" smooth="yes"/>
      <point x="580" y="43"/>
      <point x="602" y="0"/>
      <point x="672" y="0" type="curve" smooth="yes"/>
      <point x="723" y="0"/>
      <point x="821" y="17"/>
      <point x="864" y="96" type="curve" smooth="yes"/>
      <point x="1088" y="512"/>
      <point x="1429" y="1288"/>
      <point x="1580" y="1592" type="curve" smooth="yes"/>
      <point x="1592" y="1617"/>
      <point x="1613" y="1683"/>
      <point x="1613" y="1730" type="curve" smooth="yes"/>
      <point x="1613" y="1765"/>
      <point x="1602" y="1792"/>
      <point x="1568" y="1792" type="curve" smooth="yes"/>
      <point x="1455" y="1792"/>
      <point x="1398" y="1744"/>
    </contour>
    <contour>
      <point x="1669" y="64" type="curve" smooth="yes"/>
      <point x="1956" y="64"/>
      <point x="2146" y="398"/>
      <point x="2146" y="674" type="curve" smooth="yes"/>
      <point x="2146" y="915"/>
      <point x="2044" y="1120"/>
      <point x="1808" y="1120" type="curve" smooth="yes"/>
      <point x="1474" y="1120"/>
      <point x="1312" y="787"/>
      <point x="1312" y="482" type="curve" smooth="yes"/>
      <point x="1312" y="260"/>
      <point x="1433" y="64"/>
    </contour>
    <contour>
      <point x="1687" y="256" type="curve" smooth="yes"/>
      <point x="1604" y="256"/>
      <point x="1568" y="372"/>
      <point x="1568" y="494" type="curve" smooth="yes"/>
      <point x="1568" y="708"/>
      <point x="1640" y="928"/>
      <point x="1782" y="928" type="curve" smooth="yes"/>
      <point x="1868" y="928"/>
      <point x="1900" y="802"/>
      <point x="1900" y="656" type="curve" smooth="yes"/>
      <point x="1900" y="476"/>
      <point x="1800" y="256"/>
    </contour>
  </outline>
</glyph>
<glyph name="ampersand" format="1">
  <advance width="1472"/>
  <unicode hex="0026"/>
  <outline>
    <contour>
      <point x="471" y="857" type="curve"/>
      <point x="200" y="711"/>
      <point x="64" y="512"/>
      <point x="64" y="345" type="curve" smooth="yes"/>
      <point x="64" y="154"/>
      <point x="232" y="0"/>
      <point x="558" y="0" type="curve" smooth="yes"/>
      <point x="806" y="0"/>
      <point x="960" y="128"/>
      <point x="960" y="128" type="curve"/>
      <point x="960" y="126"/>
      <point x="1071" y="-1"/>
      <point x="1106" y="-30" type="curve" smooth="yes"/>
      <point x="1119" y="-41"/>
      <point x="1131" y="-45"/>
      <point x="1147" y="-45" type="curve" smooth="yes"/>
      <point x="1212" y="-45"/>
      <point x="1291" y="45"/>
      <point x="1291" y="106" type="curve" smooth="yes"/>
      <point x="1291" y="123"/>
      <point x="1287" y="136"/>
      <point x="1275" y="147" type="curve" smooth="yes"/>
      <point x="1245" y="173"/>
      <point x="1141" y="256"/>
      <point x="1134" y="256" type="curve"/>
      <point x="1241" y="343"/>
      <point x="1281" y="432"/>
      <point x="1281" y="513" type="curve" smooth="yes"/>
      <point x="1281" y="710"/>
      <point x="1042" y="864"/>
      <point x="982" y="864" type="curve" smooth="yes"/>
      <point x="978" y="864"/>
      <point x="944" y="834"/>
      <point x="945" y="832" type="curve" smooth="yes"/>
      <point x="1018" y="718"/>
      <point x="1069" y="687"/>
      <point x="1069" y="586" type="curve" smooth="yes"/>
      <point x="1069" y="541"/>
      <point x="1065" y="498"/>
      <point x="1008" y="457" type="curve"/>
      <point x="920" y="608"/>
      <point x="791" y="800"/>
      <point x="758" y="864" type="curve"/>
      <point x="1018" y="1022"/>
      <point x="1115" y="1205"/>
      <point x="1115" y="1355" type="curve" smooth="yes"/>
      <point x="1115" y="1525"/>
      <point x="978" y="1652"/>
      <point x="782" y="1652" type="curve" smooth="yes"/>
      <point x="553" y="1652"/>
      <point x="353" y="1458"/>
      <point x="353" y="1242" type="curve" smooth="yes"/>
      <point x="353" y="1117"/>
      <point x="421" y="951"/>
    </contour>
    <contour>
      <point x="566" y="202" type="curve" smooth="yes"/>
      <point x="397" y="202"/>
      <point x="322" y="280"/>
      <point x="322" y="381" type="curve" smooth="yes"/>
      <point x="322" y="484"/>
      <point x="396" y="608"/>
      <point x="525" y="704" type="curve"/>
      <point x="642" y="492"/>
      <point x="695" y="417"/>
      <point x="809" y="282" type="curve"/>
      <point x="737" y="235"/>
      <point x="652" y="202"/>
    </contour>
    <contour>
      <point x="794" y="1440" type="curve" smooth="yes"/>
      <point x="898" y="1440"/>
      <point x="928" y="1398"/>
      <point x="928" y="1332" type="curve" smooth="yes"/>
      <point x="928" y="1211"/>
      <point x="843" y="1113"/>
      <point x="711" y="993" type="curve"/>
      <point x="707" y="993"/>
      <point x="646" y="1174"/>
      <point x="646" y="1262" type="curve" smooth="yes"/>
      <point x="646" y="1364"/>
      <point x="737" y="1440"/>
    </contour>
  </outline>
</glyph>
<glyph name="quotesingle" format="1">
  <advance width="609"/>
  <unicode hex="0027"/>
  <outline>
    <contour>
      <point x="160" y="1283" type="curve" smooth="yes"/>
      <point x="160" y="1218"/>
      <point x="197" y="1185"/>
      <point x="240" y="1185" type="curve" smooth="yes"/>
      <point x="282" y="1185"/>
      <point x="329" y="1216"/>
      <point x="352" y="1280" type="curve" smooth="yes"/>
      <point x="386" y="1375"/>
      <point x="444" y="1569"/>
      <point x="480" y="1696" type="curve" smooth="yes"/>
      <point x="485" y="1715"/>
      <point x="488" y="1731"/>
      <point x="488" y="1747" type="curve" smooth="yes"/>
      <point x="488" y="1823"/>
      <point x="427" y="1856"/>
      <point x="360" y="1856" type="curve" smooth="yes"/>
      <point x="280" y="1856"/>
      <point x="192" y="1808"/>
      <point x="192" y="1728" type="curve" smooth="yes"/>
      <point x="192" y="1728"/>
      <point x="160" y="1379"/>
    </contour>
  </outline>
</glyph>
<glyph name="asterisk" format="1">
  <advance width="1024"/>
  <unicode hex="002A"/>
  <outline>
    <contour>
      <point x="689" y="1708" type="curve"/>
      <point x="692" y="1723"/>
      <point x="694" y="1734"/>
      <point x="694" y="1745" type="curve" smooth="yes"/>
      <point x="694" y="1800"/>
      <point x="649" y="1824"/>
      <point x="601" y="1824" type="curve" smooth="yes"/>
      <point x="541" y="1824"/>
      <point x="478" y="1790"/>
      <point x="478" y="1731" type="curve" smooth="yes"/>
      <point x="478" y="1731"/>
      <point x="474" y="1529"/>
      <point x="473" y="1437" type="curve"/>
      <point x="407" y="1502"/>
      <point x="260" y="1640"/>
      <point x="260" y="1640" type="curve"/>
      <point x="245" y="1656"/>
      <point x="225" y="1663"/>
      <point x="203" y="1663" type="curve" smooth="yes"/>
      <point x="142" y="1663"/>
      <point x="74" y="1607"/>
      <point x="74" y="1551" type="curve" smooth="yes"/>
      <point x="74" y="1524"/>
      <point x="92" y="1498"/>
      <point x="128" y="1477" type="curve"/>
      <point x="201" y="1442"/>
      <point x="308" y="1392"/>
      <point x="381" y="1360" type="curve"/>
      <point x="302" y="1348"/>
      <point x="186" y="1327"/>
      <point x="107" y="1312" type="curve"/>
      <point x="53" y="1298"/>
      <point x="32" y="1269"/>
      <point x="32" y="1235" type="curve" smooth="yes"/>
      <point x="32" y="1177"/>
      <point x="93" y="1110"/>
      <point x="153" y="1110" type="curve" smooth="yes"/>
      <point x="167" y="1110"/>
      <point x="179" y="1113"/>
      <point x="191" y="1120" type="curve"/>
      <point x="191" y="1120"/>
      <point x="353" y="1208"/>
      <point x="438" y="1255" type="curve"/>
      <point x="408" y="1182"/>
      <point x="364" y="1062"/>
      <point x="336" y="980" type="curve" smooth="yes"/>
      <point x="332" y="967"/>
      <point x="331" y="954"/>
      <point x="331" y="943" type="curve" smooth="yes"/>
      <point x="331" y="888"/>
      <point x="377" y="864"/>
      <point x="424" y="864" type="curve" smooth="yes"/>
      <point x="482" y="864"/>
      <point x="548" y="899"/>
      <point x="548" y="957" type="curve" smooth="yes"/>
      <point x="548" y="957"/>
      <point x="552" y="1155"/>
      <point x="553" y="1248" type="curve"/>
      <point x="618" y="1183"/>
      <point x="765" y="1045"/>
      <point x="765" y="1045" type="curve"/>
      <point x="781" y="1029"/>
      <point x="800" y="1022"/>
      <point x="823" y="1022" type="curve" smooth="yes"/>
      <point x="882" y="1022"/>
      <point x="951" y="1077"/>
      <point x="951" y="1133" type="curve" smooth="yes"/>
      <point x="951" y="1160"/>
      <point x="935" y="1186"/>
      <point x="897" y="1208" type="curve"/>
      <point x="823" y="1243"/>
      <point x="715" y="1294"/>
      <point x="642" y="1326" type="curve"/>
      <point x="721" y="1337"/>
      <point x="838" y="1359"/>
      <point x="918" y="1375" type="curve"/>
      <point x="972" y="1389"/>
      <point x="993" y="1419"/>
      <point x="993" y="1452" type="curve" smooth="yes"/>
      <point x="993" y="1510"/>
      <point x="933" y="1576"/>
      <point x="873" y="1576" type="curve" smooth="yes"/>
      <point x="859" y="1576"/>
      <point x="847" y="1574"/>
      <point x="835" y="1566" type="curve"/>
      <point x="835" y="1566"/>
      <point x="670" y="1476"/>
      <point x="586" y="1429" type="curve"/>
      <point x="616" y="1502"/>
      <point x="660" y="1625"/>
    </contour>
  </outline>
</glyph>
<glyph name="comma" format="1">
  <advance width="609"/>
  <unicode hex="002C"/>
  <outline>
    <contour>
      <point x="293" y="-72" type="curve"/>
      <point x="289" y="-86"/>
      <point x="287" y="-98"/>
      <point x="287" y="-109" type="curve" smooth="yes"/>
      <point x="287" y="-161"/>
      <point x="324" y="-191"/>
      <point x="368" y="-191" type="curve" smooth="yes"/>
      <point x="404" y="-191"/>
      <point x="445" y="-173"/>
      <point x="477" y="-129" type="curve" smooth="yes"/>
      <point x="521" y="-67"/>
      <point x="594" y="45"/>
      <point x="645" y="125" type="curve"/>
      <point x="661" y="154"/>
      <point x="671" y="179"/>
      <point x="671" y="205" type="curve" smooth="yes"/>
      <point x="671" y="280"/>
      <point x="589" y="321"/>
      <point x="514" y="321" type="curve" smooth="yes"/>
      <point x="453" y="321"/>
      <point x="393" y="294"/>
      <point x="377" y="237" type="curve"/>
      <point x="377" y="237"/>
      <point x="308" y="-1"/>
    </contour>
  </outline>
</glyph>
<glyph name="slash" format="1">
  <advance width="1248"/>
  <unicode hex="002F"/>
  <outline>
    <contour>
      <point x="928" y="1696" type="curve" smooth="yes"/>
      <point x="768" y="1344"/>
      <point x="336" y="364"/>
      <point x="261" y="197" type="curve" smooth="yes"/>
      <point x="234" y="136"/>
      <point x="222" y="89"/>
      <point x="222" y="55" type="curve" smooth="yes"/>
      <point x="222" y="-29"/>
      <point x="286" y="-33"/>
      <point x="341" y="-33" type="curve" smooth="yes"/>
      <point x="396" y="-33"/>
      <point x="461" y="-23"/>
      <point x="514" y="64" type="curve"/>
      <point x="841" y="728"/>
      <point x="1056" y="1312"/>
      <point x="1196" y="1622" type="curve" smooth="yes"/>
      <point x="1213" y="1660"/>
      <point x="1248" y="1738"/>
      <point x="1248" y="1760" type="curve" smooth="yes"/>
      <point x="1248" y="1799"/>
      <point x="1248" y="1856"/>
      <point x="1184" y="1856" type="curve" smooth="yes"/>
      <point x="1056" y="1856"/>
      <point x="962" y="1770"/>
    </contour>
  </outline>
</glyph>
<glyph name="one" format="1">
  <advance width="672"/>
  <unicode hex="0031"/>
  <outline>
    <contour>
      <point x="320" y="850" type="curve"/>
      <point x="320" y="850"/>
      <point x="247" y="416"/>
      <point x="160" y="107" type="curve"/>
      <point x="151" y="91"/>
      <point x="151" y="82"/>
      <point x="151" y="71" type="curve" smooth="yes"/>
      <point x="151" y="21"/>
      <point x="219" y="0"/>
      <point x="308" y="0" type="curve" smooth="yes"/>
      <point x="417" y="0"/>
      <point x="451" y="207"/>
      <point x="461" y="256" type="curve"/>
      <point x="488" y="469"/>
      <point x="562" y="937"/>
      <point x="562" y="938" type="curve" smooth="yes"/>
      <point x="562" y="978"/>
      <point x="570" y="1007"/>
      <point x="570" y="1027" type="curve" smooth="yes"/>
      <point x="570" y="1046"/>
      <point x="552" y="1056"/>
      <point x="480" y="1056" type="curve" smooth="yes"/>
      <point x="330" y="1056"/>
      <point x="137" y="832"/>
      <point x="94" y="832" type="curve" smooth="yes"/>
      <point x="36" y="832"/>
      <point x="8" y="821"/>
      <point x="8" y="807" type="curve" smooth="yes"/>
      <point x="8" y="785"/>
      <point x="77" y="757"/>
      <point x="202" y="757" type="curve" smooth="yes"/>
      <point x="222" y="757"/>
      <point x="281" y="808"/>
    </contour>
  </outline>
</glyph>
<glyph name="three" format="1">
  <advance width="831"/>
  <unicode hex="0033"/>
  <outline>
    <contour>
      <point x="239" y="249" type="curve" smooth="yes"/>
      <point x="239" y="313"/>
      <point x="349" y="315"/>
      <point x="349" y="335" type="curve" smooth="yes"/>
      <point x="349" y="363"/>
      <point x="246" y="396"/>
      <point x="184" y="396" type="curve" smooth="yes"/>
      <point x="111" y="396"/>
      <point x="46" y="364"/>
      <point x="46" y="263" type="curve" smooth="yes"/>
      <point x="46" y="97"/>
      <point x="147" y="-16"/>
      <point x="396" y="-16" type="curve" smooth="yes"/>
      <point x="607" y="-16"/>
      <point x="759" y="136"/>
      <point x="759" y="277" type="curve" smooth="yes"/>
      <point x="759" y="415"/>
      <point x="693" y="550"/>
      <point x="530" y="592" type="curve"/>
      <point x="678" y="646"/>
      <point x="704" y="757"/>
      <point x="704" y="832" type="curve" smooth="yes"/>
      <point x="704" y="962"/>
      <point x="550" y="1034"/>
      <point x="401" y="1034" type="curve" smooth="yes"/>
      <point x="262" y="1034"/>
      <point x="128" y="971"/>
      <point x="128" y="832" type="curve" smooth="yes"/>
      <point x="128" y="743"/>
      <point x="164" y="718"/>
      <point x="195" y="718" type="curve" smooth="yes"/>
      <point x="210" y="718"/>
      <point x="302" y="737"/>
      <point x="302" y="759" type="curve" smooth="yes"/>
      <point x="302" y="763"/>
      <point x="299" y="768"/>
      <point x="291" y="772" type="curve" smooth="yes"/>
      <point x="265" y="787"/>
      <point x="254" y="805"/>
      <point x="254" y="821" type="curve" smooth="yes"/>
      <point x="254" y="852"/>
      <point x="291" y="878"/>
      <point x="339" y="878" type="curve" smooth="yes"/>
      <point x="400" y="878"/>
      <point x="428" y="841"/>
      <point x="428" y="796" type="curve" smooth="yes"/>
      <point x="428" y="728"/>
      <point x="364" y="640"/>
      <point x="256" y="640" type="curve" smooth="yes"/>
      <point x="207" y="640"/>
      <point x="190" y="583"/>
      <point x="190" y="545" type="curve" smooth="yes"/>
      <point x="190" y="523"/>
      <point x="207" y="506"/>
      <point x="250" y="503" type="curve"/>
      <point x="406" y="487"/>
      <point x="480" y="440"/>
      <point x="480" y="288" type="curve" smooth="yes"/>
      <point x="480" y="194"/>
      <point x="398" y="123"/>
      <point x="329" y="123" type="curve" smooth="yes"/>
      <point x="280" y="123"/>
      <point x="239" y="159"/>
    </contour>
  </outline>
</glyph>
<glyph name="four" format="1">
  <advance width="927"/>
  <unicode hex="0034"/>
  <outline>
    <contour>
      <point x="770" y="-38" type="curve" smooth="yes"/>
      <point x="783" y="-38"/>
      <point x="785" y="-35"/>
      <point x="785" y="-28" type="curve" smooth="yes"/>
      <point x="785" y="1"/>
      <point x="693" y="81"/>
      <point x="693" y="130" type="curve" smooth="yes"/>
      <point x="693" y="149" type="line"/>
      <point x="696" y="185"/>
      <point x="704" y="226"/>
      <point x="715" y="269" type="curve"/>
      <point x="775" y="266"/>
      <point x="831" y="264"/>
      <point x="881" y="264" type="curve" smooth="yes"/>
      <point x="894" y="264"/>
      <point x="941" y="283"/>
      <point x="941" y="397" type="curve" smooth="yes"/>
      <point x="941" y="421"/>
      <point x="934" y="437"/>
      <point x="917" y="437" type="curve" smooth="yes"/>
      <point x="880" y="437"/>
      <point x="825" y="425"/>
      <point x="759" y="414" type="curve"/>
      <point x="797" y="527"/>
      <point x="836" y="631"/>
      <point x="836" y="674" type="curve" smooth="yes"/>
      <point x="836" y="708"/>
      <point x="818" y="730"/>
      <point x="756" y="730" type="curve" smooth="yes"/>
      <point x="707" y="730"/>
      <point x="629" y="702"/>
      <point x="612" y="633" type="curve"/>
      <point x="590" y="562"/>
      <point x="561" y="477"/>
      <point x="535" y="391" type="curve"/>
      <point x="522" y="391" type="line" smooth="yes"/>
      <point x="494" y="391"/>
      <point x="461" y="392"/>
      <point x="411" y="394" type="curve"/>
      <point x="509" y="615"/>
      <point x="593" y="815"/>
      <point x="622" y="1019" type="curve"/>
      <point x="622" y="1039"/>
      <point x="566" y="1052"/>
      <point x="499" y="1052" type="curve" smooth="yes"/>
      <point x="419" y="1052"/>
      <point x="328" y="1034"/>
      <point x="313" y="992" type="curve"/>
      <point x="258" y="702"/>
      <point x="230" y="593"/>
      <point x="144" y="372" type="curve"/>
      <point x="110" y="320"/>
      <point x="86" y="272"/>
      <point x="86" y="237" type="curve" smooth="yes"/>
      <point x="86" y="212"/>
      <point x="96" y="192"/>
      <point x="120" y="192" type="curve" smooth="yes"/>
      <point x="227" y="192"/>
      <point x="336" y="273"/>
      <point x="501" y="273" type="curve"/>
      <point x="481" y="196"/>
      <point x="466" y="124"/>
      <point x="466" y="71" type="curve" smooth="yes"/>
      <point x="466" y="-25"/>
      <point x="513" y="-45"/>
      <point x="597" y="-45" type="curve" smooth="yes"/>
      <point x="651" y="-45"/>
      <point x="713" y="-38"/>
    </contour>
  </outline>
</glyph>
<glyph name="six" format="1">
  <advance width="928"/>
  <unicode hex="0036"/>
  <outline>
    <contour>
      <point x="625" y="432" type="curve" smooth="yes"/>
      <point x="625" y="312"/>
      <point x="545" y="167"/>
      <point x="429" y="167" type="curve" smooth="yes"/>
      <point x="318" y="167"/>
      <point x="281" y="257"/>
      <point x="281" y="361" type="curve" smooth="yes"/>
      <point x="281" y="631"/>
      <point x="513" y="907"/>
      <point x="750" y="1047" type="curve"/>
      <point x="792" y="1076"/>
      <point x="809" y="1110"/>
      <point x="809" y="1140" type="curve" smooth="yes"/>
      <point x="809" y="1182"/>
      <point x="773" y="1217"/>
      <point x="715" y="1217" type="curve" smooth="yes"/>
      <point x="691" y="1217"/>
      <point x="668" y="1209"/>
      <point x="642" y="1197" type="curve" smooth="yes"/>
      <point x="305" y="1039"/>
      <point x="35" y="731"/>
      <point x="35" y="400" type="curve" smooth="yes"/>
      <point x="35" y="109"/>
      <point x="231" y="0"/>
      <point x="425" y="0" type="curve" smooth="yes"/>
      <point x="704" y="0"/>
      <point x="874" y="229"/>
      <point x="874" y="442" type="curve" smooth="yes"/>
      <point x="874" y="635"/>
      <point x="755" y="717"/>
      <point x="633" y="717" type="curve" smooth="yes"/>
      <point x="506" y="717"/>
      <point x="376" y="627"/>
      <point x="376" y="480" type="curve" smooth="yes"/>
      <point x="376" y="433"/>
      <point x="387" y="398"/>
      <point x="394" y="398" type="curve" smooth="yes"/>
      <point x="451" y="398"/>
      <point x="448" y="566"/>
      <point x="547" y="566" type="curve" smooth="yes"/>
      <point x="592" y="566"/>
      <point x="625" y="518"/>
    </contour>
  </outline>
</glyph>
<glyph name="question" format="1">
  <advance width="1292"/>
  <unicode hex="003F"/>
  <outline>
    <contour>
      <point x="711" y="584" type="curve"/>
      <point x="829" y="818"/>
      <point x="1161" y="841"/>
      <point x="1161" y="1264" type="curve" smooth="yes"/>
      <point x="1161" y="1500"/>
      <point x="946" y="1602"/>
      <point x="783" y="1602" type="curve" smooth="yes"/>
      <point x="651" y="1602"/>
      <point x="503" y="1537"/>
      <point x="424" y="1416" type="curve" smooth="yes"/>
      <point x="414" y="1400"/>
      <point x="409" y="1383"/>
      <point x="409" y="1370" type="curve" smooth="yes"/>
      <point x="409" y="1296"/>
      <point x="460" y="1240"/>
      <point x="511" y="1240" type="curve" smooth="yes"/>
      <point x="542" y="1240"/>
      <point x="572" y="1252"/>
      <point x="594" y="1280" type="curve"/>
      <point x="605" y="1313"/>
      <point x="687" y="1399"/>
      <point x="747" y="1399" type="curve" smooth="yes"/>
      <point x="826" y="1399"/>
      <point x="917" y="1356"/>
      <point x="917" y="1245" type="curve" smooth="yes"/>
      <point x="917" y="948"/>
      <point x="520" y="912"/>
      <point x="520" y="550" type="curve" smooth="yes"/>
      <point x="520" y="505"/>
      <point x="561" y="486"/>
      <point x="608" y="486" type="curve" smooth="yes"/>
      <point x="652" y="486"/>
      <point x="691" y="521"/>
    </contour>
    <component base="period" xOffset="74"/>
  </outline>
</glyph>
<glyph name="at" format="1">
  <advance width="2241"/>
  <unicode hex="0040"/>
  <outline>
    <contour>
      <point x="1486" y="1029" type="curve"/>
      <point x="1355" y="578" type="line"/>
      <point x="1334" y="473"/>
      <point x="1207" y="227"/>
      <point x="1027" y="227" type="curve" smooth="yes"/>
      <point x="938" y="227"/>
      <point x="897" y="283"/>
      <point x="897" y="383" type="curve" smooth="yes"/>
      <point x="897" y="614"/>
      <point x="1134" y="1042"/>
      <point x="1389" y="1042" type="curve" smooth="yes"/>
      <point x="1419" y="1042"/>
      <point x="1455" y="1037"/>
    </contour>
    <contour>
      <point x="112" y="215" type="curve" smooth="yes"/>
      <point x="112" y="-132"/>
      <point x="376" y="-384"/>
      <point x="896" y="-384" type="curve" smooth="yes"/>
      <point x="1174" y="-384"/>
      <point x="1554" y="-308"/>
      <point x="1809" y="-156" type="curve" smooth="yes"/>
      <point x="1828" y="-145"/>
      <point x="1839" y="-110"/>
      <point x="1839" y="-75" type="curve" smooth="yes"/>
      <point x="1839" y="-29"/>
      <point x="1820" y="17"/>
      <point x="1775" y="17" type="curve" smooth="yes"/>
      <point x="1763" y="17"/>
      <point x="1749" y="14"/>
      <point x="1733" y="7" type="curve" smooth="yes"/>
      <point x="1554" y="-75"/>
      <point x="1309" y="-128"/>
      <point x="992" y="-128" type="curve" smooth="yes"/>
      <point x="555" y="-128"/>
      <point x="400" y="25"/>
      <point x="400" y="261" type="curve" smooth="yes"/>
      <point x="400" y="701"/>
      <point x="779" y="1376"/>
      <point x="1344" y="1376" type="curve" smooth="yes"/>
      <point x="1645" y="1376"/>
      <point x="1888" y="1233"/>
      <point x="1888" y="832" type="curve" smooth="yes"/>
      <point x="1888" y="576"/>
      <point x="1728" y="289"/>
      <point x="1580" y="289" type="curve" smooth="yes"/>
      <point x="1558" y="289"/>
      <point x="1548" y="309"/>
      <point x="1548" y="340" type="curve" smooth="yes"/>
      <point x="1548" y="362"/>
      <point x="1553" y="388"/>
      <point x="1562" y="417" type="curve"/>
      <point x="1591" y="560"/>
      <point x="1706" y="856"/>
      <point x="1706" y="1018" type="curve" smooth="yes"/>
      <point x="1706" y="1228"/>
      <point x="1583" y="1152"/>
      <point x="1489" y="1192" type="curve"/>
      <point x="1489" y="1192"/>
      <point x="1490" y="1198"/>
      <point x="1490" y="1207" type="curve" smooth="yes"/>
      <point x="1490" y="1219"/>
      <point x="1483" y="1241"/>
      <point x="1421" y="1241" type="curve" smooth="yes"/>
      <point x="960" y="1241"/>
      <point x="620" y="727"/>
      <point x="620" y="378" type="curve" smooth="yes"/>
      <point x="620" y="149"/>
      <point x="775" y="32"/>
      <point x="950" y="32" type="curve" smooth="yes"/>
      <point x="1103" y="32"/>
      <point x="1262" y="141"/>
      <point x="1363" y="345" type="curve"/>
      <point x="1355" y="303"/>
      <point x="1350" y="267"/>
      <point x="1350" y="235" type="curve" smooth="yes"/>
      <point x="1350" y="86"/>
      <point x="1416" y="54"/>
      <point x="1475" y="54" type="curve" smooth="yes"/>
      <point x="1829" y="54"/>
      <point x="2097" y="488"/>
      <point x="2132" y="762" type="curve" smooth="yes"/>
      <point x="2137" y="799"/>
      <point x="2138" y="836"/>
      <point x="2138" y="870" type="curve" smooth="yes"/>
      <point x="2138" y="1373"/>
      <point x="1732" y="1568"/>
      <point x="1344" y="1568" type="curve" smooth="yes"/>
      <point x="642" y="1568"/>
      <point x="112" y="824"/>
    </contour>
  </outline>
</glyph>
<glyph name="A" format="1">
  <advance width="1652"/>
  <unicode hex="0041"/>
  <outline>
    <contour>
      <point x="1884" y="224" type="curve"/>
      <point x="1833" y="419" type="line"/>
      <point x="1752" y="377"/>
      <point x="1541" y="238"/>
      <point x="1459" y="238" type="curve" smooth="yes"/>
      <point x="1429" y="238"/>
      <point x="1423" y="260"/>
      <point x="1423" y="344" type="curve" smooth="yes"/>
      <point x="1423" y="398"/>
      <point x="1426" y="447"/>
      <point x="1430" y="505" type="curve"/>
      <point x="1491" y="714"/>
      <point x="1644" y="1156"/>
      <point x="1644" y="1397" type="curve" smooth="yes"/>
      <point x="1644" y="1707"/>
      <point x="1509" y="1593"/>
      <point x="1402" y="1655" type="curve"/>
      <point x="1402" y="1655"/>
      <point x="1403" y="1663"/>
      <point x="1403" y="1675" type="curve" smooth="yes"/>
      <point x="1403" y="1694"/>
      <point x="1392" y="1728"/>
      <point x="1301" y="1728" type="curve" smooth="yes"/>
      <point x="636" y="1728"/>
      <point x="140" y="966"/>
      <point x="140" y="450" type="curve" smooth="yes"/>
      <point x="140" y="109"/>
      <point x="356" y="-64"/>
      <point x="603" y="-64" type="curve" smooth="yes"/>
      <point x="829" y="-64"/>
      <point x="1065" y="98"/>
      <point x="1214" y="399" type="curve"/>
      <point x="1203" y="337"/>
      <point x="1196" y="283"/>
      <point x="1196" y="236" type="curve" smooth="yes"/>
      <point x="1196" y="15"/>
      <point x="1295" y="-32"/>
      <point x="1380" y="-32" type="curve" smooth="yes"/>
      <point x="1564" y="-32"/>
      <point x="1802" y="134"/>
    </contour>
    <contour>
      <point x="1411" y="1517" type="curve"/>
      <point x="1203" y="745" type="line"/>
      <point x="1165" y="569"/>
      <point x="957" y="160"/>
      <point x="660" y="160" type="curve" smooth="yes"/>
      <point x="501" y="160"/>
      <point x="428" y="268"/>
      <point x="428" y="456" type="curve" smooth="yes"/>
      <point x="428" y="837"/>
      <point x="833" y="1536"/>
      <point x="1266" y="1536" type="curve" smooth="yes"/>
      <point x="1312" y="1536"/>
      <point x="1364" y="1530"/>
    </contour>
  </outline>
</glyph>
<glyph name="B" format="1">
  <advance width="1522"/>
  <unicode hex="0042"/>
  <outline>
    <contour>
      <point x="150" y="1330" type="curve"/>
      <point x="236" y="1445"/>
      <point x="492" y="1502"/>
      <point x="744" y="1502" type="curve" smooth="yes"/>
      <point x="1043" y="1502"/>
      <point x="1338" y="1422"/>
      <point x="1338" y="1262" type="curve" smooth="yes"/>
      <point x="1338" y="1100"/>
      <point x="1176" y="967"/>
      <point x="919" y="967" type="curve" smooth="yes"/>
      <point x="865" y="967"/>
      <point x="821" y="974"/>
      <point x="764" y="974" type="curve" smooth="yes"/>
      <point x="678" y="974"/>
      <point x="671" y="949"/>
      <point x="671" y="892" type="curve" smooth="yes"/>
      <point x="671" y="660"/>
      <point x="1178" y="799"/>
      <point x="1178" y="489" type="curve" smooth="yes"/>
      <point x="1178" y="226"/>
      <point x="961" y="121"/>
      <point x="734" y="121" type="curve" smooth="yes"/>
      <point x="641" y="121"/>
      <point x="544" y="142"/>
      <point x="463" y="169" type="curve"/>
      <point x="443" y="184"/>
      <point x="442" y="244"/>
      <point x="442" y="266" type="curve" smooth="yes"/>
      <point x="442" y="399"/>
      <point x="451" y="563"/>
      <point x="463" y="688" type="curve" smooth="yes"/>
      <point x="484" y="910"/>
      <point x="530" y="1162"/>
      <point x="653" y="1326" type="curve"/>
      <point x="621" y="1380"/>
      <point x="581" y="1408"/>
      <point x="531" y="1408" type="curve" smooth="yes"/>
      <point x="493" y="1408"/>
      <point x="450" y="1392"/>
      <point x="402" y="1359" type="curve"/>
      <point x="186" y="1042"/>
      <point x="154" y="536"/>
      <point x="154" y="93" type="curve" smooth="yes"/>
      <point x="154" y="45"/>
      <point x="188" y="31"/>
      <point x="225" y="22" type="curve"/>
      <point x="392" y="-40"/>
      <point x="614" y="-87"/>
      <point x="786" y="-87" type="curve" smooth="yes"/>
      <point x="1199" y="-87"/>
      <point x="1402" y="200"/>
      <point x="1402" y="454" type="curve" smooth="yes"/>
      <point x="1402" y="659"/>
      <point x="1268" y="841"/>
      <point x="1005" y="841" type="curve"/>
      <point x="1421" y="850"/>
      <point x="1594" y="1066"/>
      <point x="1594" y="1270" type="curve" smooth="yes"/>
      <point x="1594" y="1530"/>
      <point x="1101" y="1736"/>
      <point x="649" y="1736" type="curve" smooth="yes"/>
      <point x="263" y="1736"/>
      <point x="-93" y="1587"/>
      <point x="-93" y="1195" type="curve" smooth="yes"/>
      <point x="-93" y="1128"/>
      <point x="-77" y="1094"/>
      <point x="-49" y="1094" type="curve" smooth="yes"/>
      <point x="-7" y="1094"/>
      <point x="64" y="1174"/>
    </contour>
  </outline>
</glyph>
<glyph name="C" format="1">
  <advance width="1480"/>
  <unicode hex="0043"/>
  <outline>
    <contour>
      <point x="1766" y="553" type="line"/>
      <point x="1408" y="416"/>
      <point x="1173" y="64"/>
      <point x="750" y="64" type="curve" smooth="yes"/>
      <point x="523" y="64"/>
      <point x="384" y="197"/>
      <point x="384" y="472" type="curve" smooth="yes"/>
      <point x="384" y="858"/>
      <point x="704" y="1568"/>
      <point x="1088" y="1568" type="curve" smooth="yes"/>
      <point x="1251" y="1568"/>
      <point x="1312" y="1463"/>
      <point x="1312" y="1344" type="curve" smooth="yes"/>
      <point x="1312" y="1118"/>
      <point x="1116" y="960"/>
      <point x="945" y="960" type="curve" smooth="yes"/>
      <point x="881" y="960"/>
      <point x="869" y="982"/>
      <point x="838" y="982" type="curve" smooth="yes"/>
      <point x="786" y="982"/>
      <point x="779" y="922"/>
      <point x="779" y="873" type="curve" smooth="yes"/>
      <point x="779" y="857"/>
      <point x="780" y="842"/>
      <point x="780" y="831" type="curve" smooth="yes"/>
      <point x="780" y="770"/>
      <point x="840" y="736"/>
      <point x="961" y="736" type="curve" smooth="yes"/>
      <point x="1236" y="736"/>
      <point x="1536" y="1066"/>
      <point x="1536" y="1363" type="curve" smooth="yes"/>
      <point x="1536" y="1657"/>
      <point x="1316" y="1792"/>
      <point x="1123" y="1792" type="curve" smooth="yes"/>
      <point x="531" y="1792"/>
      <point x="96" y="975"/>
      <point x="96" y="482" type="curve" smooth="yes"/>
      <point x="96" y="121"/>
      <point x="326" y="-192"/>
      <point x="685" y="-192" type="curve" smooth="yes"/>
      <point x="1336" y="-192"/>
      <point x="1504" y="224"/>
      <point x="1766" y="338" type="curve"/>
    </contour>
  </outline>
</glyph>
<glyph name="F" format="1">
  <advance width="1376"/>
  <unicode hex="0046"/>
  <outline>
    <contour>
      <point x="384" y="1212" type="curve" smooth="yes"/>
      <point x="384" y="1322"/>
      <point x="490" y="1447"/>
      <point x="723" y="1514" type="curve"/>
      <point x="690" y="1344"/>
      <point x="684" y="1227"/>
      <point x="621" y="942" type="curve"/>
      <point x="565" y="933"/>
      <point x="494" y="918"/>
      <point x="345" y="886" type="curve"/>
      <point x="317" y="877"/>
      <point x="306" y="855"/>
      <point x="306" y="832" type="curve" smooth="yes"/>
      <point x="306" y="767"/>
      <point x="405" y="749"/>
      <point x="451" y="749" type="curve" smooth="yes"/>
      <point x="574" y="749" type="line"/>
      <point x="509" y="434"/>
      <point x="410" y="96"/>
      <point x="276" y="96" type="curve" smooth="yes"/>
      <point x="164" y="96"/>
      <point x="55" y="167"/>
      <point x="-32" y="167" type="curve" smooth="yes"/>
      <point x="-108" y="167"/>
      <point x="-142" y="63"/>
      <point x="-142" y="23" type="curve" smooth="yes"/>
      <point x="-142" y="-94"/>
      <point x="81" y="-128"/>
      <point x="172" y="-128" type="curve" smooth="yes"/>
      <point x="612" y="-128"/>
      <point x="739" y="264"/>
      <point x="809" y="749" type="curve"/>
      <point x="914" y="749"/>
      <point x="1365" y="768"/>
      <point x="1394" y="768" type="curve" smooth="yes"/>
      <point x="1423" y="768"/>
      <point x="1458" y="800"/>
      <point x="1458" y="864" type="curve" smooth="yes"/>
      <point x="1458" y="903"/>
      <point x="1458" y="960"/>
      <point x="1394" y="960" type="curve" smooth="yes"/>
      <point x="839" y="960" type="line"/>
      <point x="887" y="1441"/>
      <point x="910" y="1500"/>
      <point x="910" y="1544" type="curve" smooth="yes"/>
      <point x="910" y="1544"/>
      <point x="1058" y="1564"/>
      <point x="1130" y="1564" type="curve" smooth="yes"/>
      <point x="1372" y="1564"/>
      <point x="1607" y="1550"/>
      <point x="1781" y="1520" type="curve" smooth="yes"/>
      <point x="1787" y="1519"/>
      <point x="1794" y="1518"/>
      <point x="1799" y="1518" type="curve" smooth="yes"/>
      <point x="1867" y="1518"/>
      <point x="1894" y="1588"/>
      <point x="1894" y="1638" type="curve" smooth="yes"/>
      <point x="1894" y="1677"/>
      <point x="1871" y="1715"/>
      <point x="1804" y="1733" type="curve"/>
      <point x="1570" y="1766"/>
      <point x="1343" y="1778"/>
      <point x="1142" y="1778" type="curve" smooth="yes"/>
      <point x="532" y="1778"/>
      <point x="113" y="1613"/>
      <point x="113" y="1216" type="curve" smooth="yes"/>
      <point x="113" y="1175"/>
      <point x="119" y="1136"/>
      <point x="274" y="1136" type="curve" smooth="yes"/>
      <point x="388" y="1136"/>
      <point x="384" y="1207"/>
    </contour>
  </outline>
</glyph>
<glyph name="G" format="1">
  <advance width="1536"/>
  <unicode hex="0047"/>
  <outline>
    <contour>
      <point x="1536" y="341" type="curve" smooth="yes"/>
      <point x="1536" y="534"/>
      <point x="1476" y="644"/>
      <point x="1216" y="644" type="curve" smooth="yes"/>
      <point x="1106" y="644"/>
      <point x="1055" y="590"/>
      <point x="1055" y="535" type="curve" smooth="yes"/>
      <point x="1055" y="478"/>
      <point x="1110" y="420"/>
      <point x="1210" y="420" type="curve" smooth="yes"/>
      <point x="1266" y="420"/>
      <point x="1311" y="415"/>
      <point x="1311" y="334" type="curve" smooth="yes"/>
      <point x="1311" y="303"/>
      <point x="1301" y="266"/>
      <point x="1291" y="226" type="curve"/>
      <point x="1136" y="124"/>
      <point x="959" y="64"/>
      <point x="750" y="64" type="curve" smooth="yes"/>
      <point x="523" y="64"/>
      <point x="384" y="197"/>
      <point x="384" y="472" type="curve" smooth="yes"/>
      <point x="384" y="1133"/>
      <point x="832" y="1541"/>
      <point x="1158" y="1541" type="curve" smooth="yes"/>
      <point x="1246" y="1541"/>
      <point x="1312" y="1475"/>
      <point x="1312" y="1341" type="curve" smooth="yes"/>
      <point x="1312" y="1284"/>
      <point x="1275" y="1240"/>
      <point x="1275" y="1190" type="curve" smooth="yes"/>
      <point x="1275" y="1127"/>
      <point x="1316" y="1063"/>
      <point x="1373" y="1063" type="curve" smooth="yes"/>
      <point x="1409" y="1063"/>
      <point x="1450" y="1087"/>
      <point x="1492" y="1149" type="curve"/>
      <point x="1522" y="1205"/>
      <point x="1535" y="1261"/>
      <point x="1535" y="1316" type="curve" smooth="yes"/>
      <point x="1535" y="1604"/>
      <point x="1374" y="1730"/>
      <point x="1160" y="1730" type="curve" smooth="yes"/>
      <point x="640" y="1730"/>
      <point x="96" y="1190"/>
      <point x="96" y="482" type="curve" smooth="yes"/>
      <point x="96" y="121"/>
      <point x="326" y="-192"/>
      <point x="685" y="-192" type="curve" smooth="yes"/>
      <point x="994" y="-192"/>
      <point x="1142" y="-92"/>
      <point x="1269" y="25" type="curve"/>
      <point x="1208" y="-230"/>
      <point x="1085" y="-512"/>
      <point x="960" y="-512" type="curve" smooth="yes"/>
      <point x="848" y="-512"/>
      <point x="772" y="-441"/>
      <point x="685" y="-441" type="curve" smooth="yes"/>
      <point x="609" y="-441"/>
      <point x="575" y="-545"/>
      <point x="575" y="-585" type="curve" smooth="yes"/>
      <point x="575" y="-702"/>
      <point x="798" y="-736"/>
      <point x="889" y="-736" type="curve" smooth="yes"/>
      <point x="1387" y="-736"/>
      <point x="1536" y="-124"/>
    </contour>
  </outline>
</glyph>
<glyph name="H" format="1">
  <advance width="1926"/>
  <unicode hex="0048"/>
  <outline>
    <contour>
      <point x="1525" y="750" type="curve"/>
      <point x="1479" y="587"/>
      <point x="1448" y="439"/>
      <point x="1448" y="336" type="curve" smooth="yes"/>
      <point x="1448" y="246"/>
      <point x="1484" y="191"/>
      <point x="1571" y="191" type="curve" smooth="yes"/>
      <point x="1639" y="191"/>
      <point x="1755" y="266"/>
      <point x="1935" y="448" type="curve"/>
      <point x="1935" y="448"/>
      <point x="1942" y="436"/>
      <point x="2010" y="257" type="curve"/>
      <point x="1811" y="47"/>
      <point x="1601" y="-64"/>
      <point x="1455" y="-64" type="curve" smooth="yes"/>
      <point x="1288" y="-64"/>
      <point x="1159" y="63"/>
      <point x="1159" y="288" type="curve" smooth="yes"/>
      <point x="1159" y="365"/>
      <point x="1193" y="526"/>
      <point x="1247" y="724" type="curve"/>
      <point x="1069" y="706"/>
      <point x="907" y="690"/>
      <point x="745" y="675" type="curve"/>
      <point x="671" y="450"/>
      <point x="594" y="240"/>
      <point x="553" y="131" type="curve"/>
      <point x="488" y="-10"/>
      <point x="423" y="-63"/>
      <point x="374" y="-63" type="curve" smooth="yes"/>
      <point x="309" y="-63"/>
      <point x="247" y="-18"/>
      <point x="247" y="51" type="curve" smooth="yes"/>
      <point x="247" y="61"/>
      <point x="248" y="71"/>
      <point x="251" y="82" type="curve" smooth="yes"/>
      <point x="306" y="285"/>
      <point x="375" y="476"/>
      <point x="443" y="655" type="curve"/>
      <point x="296" y="656"/>
      <point x="170" y="692"/>
      <point x="112" y="845" type="curve"/>
      <point x="107" y="869"/>
      <point x="103" y="887"/>
      <point x="103" y="905" type="curve" smooth="yes"/>
      <point x="103" y="933"/>
      <point x="112" y="949"/>
      <point x="134" y="949" type="curve" smooth="yes"/>
      <point x="159" y="949"/>
      <point x="187" y="922"/>
      <point x="235" y="863" type="curve"/>
      <point x="297" y="866"/>
      <point x="359" y="867"/>
      <point x="430" y="867" type="curve" smooth="yes"/>
      <point x="526" y="867" type="line"/>
      <point x="574" y="990"/>
      <point x="618" y="1106"/>
      <point x="655" y="1216" type="curve" smooth="yes"/>
      <point x="678" y="1286"/>
      <point x="692" y="1359"/>
      <point x="692" y="1423" type="curve" smooth="yes"/>
      <point x="692" y="1528"/>
      <point x="657" y="1600"/>
      <point x="559" y="1600" type="curve" smooth="yes"/>
      <point x="478" y="1600"/>
      <point x="350" y="1551"/>
      <point x="175" y="1408" type="curve" smooth="yes"/>
      <point x="144" y="1383"/>
      <point x="118" y="1373"/>
      <point x="97" y="1373" type="curve" smooth="yes"/>
      <point x="87" y="1373"/>
      <point x="81" y="1413"/>
      <point x="81" y="1465" type="curve" smooth="yes"/>
      <point x="81" y="1673"/>
      <point x="403" y="1824"/>
      <point x="591" y="1824" type="curve" smooth="yes"/>
      <point x="779" y="1824"/>
      <point x="943" y="1728"/>
      <point x="943" y="1472" type="curve" smooth="yes"/>
      <point x="943" y="1351"/>
      <point x="883" y="1118"/>
      <point x="809" y="876" type="curve"/>
      <point x="945" y="885"/>
      <point x="1128" y="895"/>
      <point x="1300" y="904" type="curve"/>
      <point x="1367" y="1125"/>
      <point x="1452" y="1372"/>
      <point x="1543" y="1600" type="curve" smooth="yes"/>
      <point x="1573" y="1675"/>
      <point x="1624" y="1725"/>
      <point x="1692" y="1725" type="curve" smooth="yes"/>
      <point x="1749" y="1725"/>
      <point x="1799" y="1693"/>
      <point x="1799" y="1623" type="curve" smooth="yes"/>
      <point x="1799" y="1593"/>
      <point x="1797" y="1550"/>
      <point x="1780" y="1504" type="curve" smooth="yes"/>
      <point x="1718" y="1338"/>
      <point x="1640" y="1125"/>
      <point x="1575" y="919" type="curve"/>
      <point x="1659" y="924"/>
      <point x="1724" y="929"/>
      <point x="1756" y="932" type="curve" smooth="yes"/>
      <point x="1770" y="933"/>
      <point x="1783" y="934"/>
      <point x="1794" y="934" type="curve" smooth="yes"/>
      <point x="1873" y="934"/>
      <point x="1890" y="901"/>
      <point x="1890" y="851" type="curve" smooth="yes"/>
      <point x="1890" y="795"/>
      <point x="1836" y="779"/>
      <point x="1802" y="777" type="curve"/>
      <point x="1691" y="765"/>
      <point x="1789" y="774"/>
      <point x="1664" y="763" type="curve"/>
      <point x="1616" y="758"/>
      <point x="1570" y="754"/>
    </contour>
  </outline>
</glyph>
<glyph name="L" format="1">
  <advance width="1182"/>
  <unicode hex="004C"/>
  <outline>
    <contour>
      <point x="-76" y="327" type="curve" smooth="yes"/>
      <point x="-97" y="313"/>
      <point x="-101" y="285"/>
      <point x="-101" y="260" type="curve" smooth="yes"/>
      <point x="-101" y="198"/>
      <point x="-56" y="129"/>
      <point x="-12" y="129" type="curve" smooth="yes"/>
      <point x="10" y="129"/>
      <point x="97" y="182"/>
      <point x="211" y="266" type="curve"/>
      <point x="212" y="96"/>
      <point x="260" y="-50"/>
      <point x="457" y="-50" type="curve" smooth="yes"/>
      <point x="715" y="-50"/>
      <point x="1050" y="89"/>
      <point x="1050" y="89" type="curve"/>
      <point x="1113" y="101"/>
      <point x="1146" y="156"/>
      <point x="1146" y="208" type="curve" smooth="yes"/>
      <point x="1146" y="268"/>
      <point x="1115" y="323"/>
      <point x="1049" y="323" type="curve" smooth="yes"/>
      <point x="1040" y="323"/>
      <point x="1029" y="321"/>
      <point x="1018" y="319" type="curve"/>
      <point x="683" y="223" type="line" smooth="yes"/>
      <point x="631" y="208"/>
      <point x="592" y="201"/>
      <point x="562" y="201" type="curve" smooth="yes"/>
      <point x="483" y="201"/>
      <point x="468" y="214"/>
      <point x="468" y="239" type="curve" smooth="yes"/>
      <point x="468" y="250"/>
      <point x="468" y="263"/>
      <point x="474" y="426" type="curve"/>
      <point x="912" y="696"/>
      <point x="1264" y="1197"/>
      <point x="1264" y="1568" type="curve" smooth="yes"/>
      <point x="1264" y="1771"/>
      <point x="1169" y="1872"/>
      <point x="1036" y="1872" type="curve" smooth="yes"/>
      <point x="761" y="1872"/>
      <point x="325" y="1442"/>
      <point x="235" y="602" type="curve"/>
      <point x="227" y="534" type="line"/>
      <point x="102" y="443"/>
      <point x="-42" y="350"/>
    </contour>
    <contour>
      <point x="492" y="678" type="curve"/>
      <point x="542" y="1236"/>
      <point x="829" y="1654"/>
      <point x="955" y="1654" type="curve" smooth="yes"/>
      <point x="991" y="1654"/>
      <point x="1013" y="1620"/>
      <point x="1013" y="1545" type="curve" smooth="yes"/>
      <point x="1013" y="1524"/>
      <point x="1012" y="1499"/>
      <point x="1008" y="1472" type="curve" smooth="yes"/>
      <point x="975" y="1234"/>
      <point x="695" y="888"/>
    </contour>
  </outline>
</glyph>
<glyph name="M" format="1">
  <advance width="2235"/>
  <unicode hex="004D"/>
  <outline>
    <contour>
      <point x="410" y="98" type="curve" smooth="yes"/>
      <point x="482" y="608"/>
      <point x="834" y="1472"/>
      <point x="982" y="1472" type="curve" smooth="yes"/>
      <point x="1074" y="1472"/>
      <point x="1085" y="1374"/>
      <point x="1085" y="1208" type="curve" smooth="yes"/>
      <point x="1085" y="847"/>
      <point x="920" y="247"/>
      <point x="920" y="144" type="curve" smooth="yes"/>
      <point x="920" y="41"/>
      <point x="975" y="0"/>
      <point x="1032" y="0" type="curve" smooth="yes"/>
      <point x="1095" y="0"/>
      <point x="1166" y="28"/>
      <point x="1188" y="102" type="curve"/>
      <point x="1284" y="635"/>
      <point x="1439" y="1472"/>
      <point x="1721" y="1472" type="curve" smooth="yes"/>
      <point x="1796" y="1472"/>
      <point x="1807" y="1395"/>
      <point x="1807" y="1275" type="curve" smooth="yes"/>
      <point x="1807" y="978"/>
      <point x="1675" y="599"/>
      <point x="1658" y="331" type="curve" smooth="yes"/>
      <point x="1657" y="319"/>
      <point x="1656" y="307"/>
      <point x="1656" y="296" type="curve" smooth="yes"/>
      <point x="1656" y="104"/>
      <point x="1796" y="0"/>
      <point x="1941" y="0" type="curve" smooth="yes"/>
      <point x="2100" y="0"/>
      <point x="2264" y="87"/>
      <point x="2406" y="321" type="curve"/>
      <point x="2358" y="528"/>
      <point x="2359" y="518"/>
      <point x="2359" y="518" type="curve"/>
      <point x="2359" y="518"/>
      <point x="2143" y="224"/>
      <point x="1996" y="224" type="curve" smooth="yes"/>
      <point x="1942" y="224"/>
      <point x="1912" y="258"/>
      <point x="1912" y="336" type="curve" smooth="yes"/>
      <point x="1912" y="526"/>
      <point x="2065" y="933"/>
      <point x="2065" y="1278" type="curve" smooth="yes"/>
      <point x="2065" y="1524"/>
      <point x="1974" y="1730"/>
      <point x="1811" y="1730" type="curve" smooth="yes"/>
      <point x="1576" y="1730"/>
      <point x="1367" y="1487"/>
      <point x="1264" y="1093" type="curve"/>
      <point x="1243" y="1092" type="line"/>
      <point x="1243" y="1092"/>
      <point x="1278" y="1341"/>
      <point x="1278" y="1384" type="curve" smooth="yes"/>
      <point x="1278" y="1618"/>
      <point x="1191" y="1724"/>
      <point x="1067" y="1724" type="curve" smooth="yes"/>
      <point x="821" y="1724"/>
      <point x="546" y="1300"/>
      <point x="418" y="768" type="curve"/>
      <point x="457" y="959"/>
      <point x="510" y="1229"/>
      <point x="510" y="1377" type="curve" smooth="yes"/>
      <point x="510" y="1572"/>
      <point x="465" y="1702"/>
      <point x="299" y="1702" type="curve" smooth="yes"/>
      <point x="172" y="1702"/>
      <point x="-23" y="1575"/>
      <point x="-86" y="1280" type="curve" smooth="yes"/>
      <point x="-89" y="1268"/>
      <point x="-90" y="1258"/>
      <point x="-90" y="1248" type="curve" smooth="yes"/>
      <point x="-90" y="1212"/>
      <point x="-73" y="1194"/>
      <point x="-53" y="1194" type="curve" smooth="yes"/>
      <point x="-37" y="1194"/>
      <point x="-20" y="1206"/>
      <point x="-7" y="1229" type="curve" smooth="yes"/>
      <point x="87" y="1400"/>
      <point x="196" y="1466"/>
      <point x="260" y="1466" type="curve" smooth="yes"/>
      <point x="300" y="1466"/>
      <point x="306" y="1428"/>
      <point x="306" y="1356" type="curve"/>
      <point x="275" y="941"/>
      <point x="258" y="702"/>
      <point x="145" y="232" type="curve" smooth="yes"/>
      <point x="134" y="185"/>
      <point x="129" y="141"/>
      <point x="129" y="87" type="curve" smooth="yes"/>
      <point x="129" y="30"/>
      <point x="194" y="-1"/>
      <point x="264" y="-1" type="curve" smooth="yes"/>
      <point x="323" y="-1"/>
      <point x="399" y="19"/>
    </contour>
  </outline>
</glyph>
<glyph name="O" format="1">
  <advance width="1719"/>
  <unicode hex="004F"/>
  <outline>
    <contour>
      <point x="801" y="-192" type="curve" smooth="yes"/>
      <point x="1371" y="-192"/>
      <point x="1691" y="538"/>
      <point x="1691" y="1073" type="curve" smooth="yes"/>
      <point x="1691" y="1504"/>
      <point x="1454" y="1806"/>
      <point x="1054" y="1806" type="curve" smooth="yes"/>
      <point x="459" y="1806"/>
      <point x="155" y="1143"/>
      <point x="155" y="633" type="curve" smooth="yes"/>
      <point x="155" y="151"/>
      <point x="405" y="-192"/>
    </contour>
    <contour>
      <point x="825" y="52" type="curve" smooth="yes"/>
      <point x="567" y="52"/>
      <point x="411" y="281"/>
      <point x="411" y="583" type="curve" smooth="yes"/>
      <point x="411" y="999"/>
      <point x="726" y="1574"/>
      <point x="1093" y="1574" type="curve" smooth="yes"/>
      <point x="1323" y="1574"/>
      <point x="1435" y="1369"/>
      <point x="1435" y="1112" type="curve" smooth="yes"/>
      <point x="1435" y="761"/>
      <point x="1252" y="52"/>
    </contour>
  </outline>
</glyph>
<glyph name="P" format="1">
  <advance width="1551"/>
  <unicode hex="0050"/>
  <outline>
    <contour>
      <point x="968" y="1823" type="curve" smooth="yes"/>
      <point x="458" y="1823"/>
      <point x="100" y="1299"/>
      <point x="100" y="667" type="curve" smooth="yes"/>
      <point x="100" y="299"/>
      <point x="207" y="-255"/>
      <point x="536" y="-255" type="curve" smooth="yes"/>
      <point x="846" y="-255"/>
      <point x="1005" y="112"/>
      <point x="1013" y="393" type="curve" smooth="yes"/>
      <point x="1014" y="426"/>
      <point x="1023" y="686"/>
      <point x="1023" y="686" type="curve"/>
      <point x="1442" y="750"/>
      <point x="1642" y="1019"/>
      <point x="1642" y="1280" type="curve" smooth="yes"/>
      <point x="1642" y="1560"/>
      <point x="1416" y="1823"/>
    </contour>
    <contour>
      <point x="368" y="693" type="curve" smooth="yes"/>
      <point x="368" y="1095"/>
      <point x="541" y="1588"/>
      <point x="945" y="1588" type="curve" smooth="yes"/>
      <point x="1304" y="1588"/>
      <point x="1407" y="1406"/>
      <point x="1407" y="1257" type="curve" smooth="yes"/>
      <point x="1407" y="1105"/>
      <point x="1290" y="962"/>
      <point x="1029" y="921" type="curve"/>
      <point x="1038" y="1000" type="line"/>
      <point x="1099" y="1257" type="line"/>
      <point x="1099" y="1262"/>
      <point x="1100" y="1264"/>
      <point x="1100" y="1273" type="curve" smooth="yes"/>
      <point x="1100" y="1339"/>
      <point x="1039" y="1356"/>
      <point x="992" y="1356" type="curve" smooth="yes"/>
      <point x="756" y="1356"/>
      <point x="765" y="963"/>
      <point x="765" y="910" type="curve" smooth="yes"/>
      <point x="765" y="910"/>
      <point x="708" y="923"/>
      <point x="619" y="970" type="curve" smooth="yes"/>
      <point x="602" y="979"/>
      <point x="592" y="985"/>
      <point x="579" y="985" type="curve" smooth="yes"/>
      <point x="540" y="985"/>
      <point x="536" y="936"/>
      <point x="536" y="888" type="curve" smooth="yes"/>
      <point x="536" y="797"/>
      <point x="555" y="762"/>
      <point x="775" y="674" type="curve"/>
      <point x="775" y="627" type="line" smooth="yes"/>
      <point x="775" y="445"/>
      <point x="762" y="-21"/>
      <point x="558" y="-21" type="curve" smooth="yes"/>
      <point x="364" y="-21"/>
      <point x="368" y="527"/>
    </contour>
  </outline>
</glyph>
<glyph name="Q" format="1">
  <advance width="1612"/>
  <unicode hex="0051"/>
  <outline>
    <contour>
      <point x="1632" y="1064" type="curve" smooth="yes"/>
      <point x="1632" y="1540"/>
      <point x="1394" y="1856"/>
      <point x="996" y="1856" type="curve" smooth="yes"/>
      <point x="403" y="1856"/>
      <point x="96" y="1172"/>
      <point x="96" y="628" type="curve" smooth="yes"/>
      <point x="96" y="238"/>
      <point x="261" y="-104"/>
      <point x="666" y="-175" type="curve"/>
      <point x="762" y="-267"/>
      <point x="767" y="-653"/>
      <point x="1072" y="-653" type="curve" smooth="yes"/>
      <point x="1324" y="-653"/>
      <point x="1534" y="-423"/>
      <point x="1536" y="-419" type="curve"/>
      <point x="1543" y="-412"/>
      <point x="1552" y="-401"/>
      <point x="1552" y="-367" type="curve" smooth="yes"/>
      <point x="1552" y="-313"/>
      <point x="1530" y="-235"/>
      <point x="1460" y="-223" type="curve"/>
      <point x="1452" y="-223"/>
      <point x="1437" y="-223"/>
      <point x="1423" y="-233" type="curve"/>
      <point x="1423" y="-233"/>
      <point x="1291" y="-394"/>
      <point x="1165" y="-394" type="curve" smooth="yes"/>
      <point x="1034" y="-394"/>
      <point x="975" y="-272"/>
      <point x="850" y="-148" type="curve"/>
      <point x="1391" y="-79"/>
      <point x="1632" y="595"/>
    </contour>
    <contour>
      <point x="766" y="64" type="curve" smooth="yes"/>
      <point x="526" y="64"/>
      <point x="384" y="299"/>
      <point x="384" y="613" type="curve" smooth="yes"/>
      <point x="384" y="1057"/>
      <point x="672" y="1664"/>
      <point x="1014" y="1664" type="curve" smooth="yes"/>
      <point x="1237" y="1664"/>
      <point x="1344" y="1437"/>
      <point x="1344" y="1132" type="curve" smooth="yes"/>
      <point x="1344" y="778"/>
      <point x="1172" y="64"/>
    </contour>
  </outline>
</glyph>
<glyph name="R" format="1">
  <advance width="1800"/>
  <unicode hex="0052"/>
  <outline>
    <contour>
      <point x="1834" y="1263" type="curve" smooth="yes"/>
      <point x="1834" y="1558"/>
      <point x="1532" y="1728"/>
      <point x="1231" y="1728" type="curve" smooth="yes"/>
      <point x="554" y="1728"/>
      <point x="74" y="1160"/>
      <point x="74" y="540" type="curve" smooth="yes"/>
      <point x="74" y="198"/>
      <point x="234" y="-192"/>
      <point x="554" y="-192" type="curve" smooth="yes"/>
      <point x="842" y="-192"/>
      <point x="938" y="160"/>
      <point x="990" y="744" type="curve"/>
      <point x="1053" y="744" type="line" smooth="yes"/>
      <point x="1262" y="744"/>
      <point x="1155" y="-96"/>
      <point x="1545" y="-96" type="curve" smooth="yes"/>
      <point x="1806" y="-96"/>
      <point x="2046" y="94"/>
      <point x="2046" y="90" type="curve"/>
      <point x="1930" y="286" type="line"/>
      <point x="1835" y="194"/>
      <point x="1701" y="128"/>
      <point x="1611" y="128" type="curve" smooth="yes"/>
      <point x="1416" y="128"/>
      <point x="1563" y="640"/>
      <point x="1190" y="776" type="curve"/>
      <point x="1649" y="805"/>
      <point x="1834" y="1070"/>
    </contour>
    <contour>
      <point x="1213" y="1504" type="curve" smooth="yes"/>
      <point x="1452" y="1504"/>
      <point x="1578" y="1386"/>
      <point x="1578" y="1255" type="curve" smooth="yes"/>
      <point x="1578" y="1121"/>
      <point x="1463" y="953"/>
      <point x="1029" y="946" type="curve"/>
      <point x="1041" y="1055"/>
      <point x="1059" y="1140"/>
      <point x="1060" y="1191" type="curve" smooth="yes"/>
      <point x="1060" y="1200" type="line" smooth="yes"/>
      <point x="1060" y="1247"/>
      <point x="1044" y="1280"/>
      <point x="977" y="1280" type="curve" smooth="yes"/>
      <point x="827" y="1280"/>
      <point x="810" y="1059"/>
      <point x="807" y="993" type="curve" smooth="yes"/>
      <point x="806" y="972" type="line"/>
      <point x="791" y="972"/>
      <point x="686" y="989"/>
      <point x="666" y="989" type="curve" smooth="yes"/>
      <point x="623" y="989"/>
      <point x="618" y="938"/>
      <point x="618" y="910" type="curve" smooth="yes"/>
      <point x="618" y="854"/>
      <point x="673" y="816"/>
      <point x="777" y="767" type="curve"/>
      <point x="777" y="645"/>
      <point x="759" y="32"/>
      <point x="580" y="32" type="curve" smooth="yes"/>
      <point x="401" y="32"/>
      <point x="330" y="270"/>
      <point x="330" y="487" type="curve" smooth="yes"/>
      <point x="330" y="907"/>
      <point x="553" y="1504"/>
    </contour>
  </outline>
</glyph>
<glyph name="T" format="1">
  <advance width="1366"/>
  <unicode hex="0054"/>
  <outline>
    <contour>
      <point x="-34" y="1330" type="curve"/>
      <point x="-34" y="1330"/>
      <point x="-33" y="1202"/>
      <point x="127" y="1202" type="curve" smooth="yes"/>
      <point x="287" y="1202"/>
      <point x="287" y="1325"/>
      <point x="287" y="1330" type="curve" smooth="yes"/>
      <point x="287" y="1484"/>
      <point x="535" y="1504"/>
      <point x="747" y="1521" type="curve"/>
      <point x="505" y="760"/>
      <point x="356" y="455"/>
      <point x="303" y="92" type="curve"/>
      <point x="299" y="77"/>
      <point x="297" y="62"/>
      <point x="297" y="50" type="curve" smooth="yes"/>
      <point x="297" y="-30"/>
      <point x="353" y="-64"/>
      <point x="428" y="-64" type="curve" smooth="yes"/>
      <point x="479" y="-64"/>
      <point x="551" y="1"/>
      <point x="573" y="92" type="curve"/>
      <point x="650" y="387"/>
      <point x="862" y="1072"/>
      <point x="933" y="1521" type="curve"/>
      <point x="1204" y="1509"/>
      <point x="1448" y="1460"/>
      <point x="1652" y="1460" type="curve" smooth="yes"/>
      <point x="1710" y="1460"/>
      <point x="1762" y="1517"/>
      <point x="1762" y="1569" type="curve" smooth="yes"/>
      <point x="1762" y="1611"/>
      <point x="1738" y="1650"/>
      <point x="1675" y="1663" type="curve"/>
      <point x="1401" y="1712"/>
      <point x="1144" y="1728"/>
      <point x="913" y="1728" type="curve" smooth="yes"/>
      <point x="401" y="1728"/>
      <point x="-34" y="1667"/>
    </contour>
  </outline>
</glyph>
<glyph name="U" format="1">
  <advance width="1592"/>
  <unicode hex="0055"/>
  <outline>
    <contour>
      <point x="1328" y="1568" type="curve" smooth="yes"/>
      <point x="1290" y="863"/>
      <point x="1076" y="64"/>
      <point x="731" y="64" type="curve" smooth="yes"/>
      <point x="507" y="64"/>
      <point x="432" y="249"/>
      <point x="432" y="488" type="curve" smooth="yes"/>
      <point x="432" y="836"/>
      <point x="600" y="1326"/>
      <point x="648" y="1472" type="curve" smooth="yes"/>
      <point x="655" y="1494"/>
      <point x="655" y="1513"/>
      <point x="657" y="1529" type="curve"/>
      <point x="657" y="1537" type="line" smooth="yes"/>
      <point x="657" y="1619"/>
      <point x="602" y="1632"/>
      <point x="500" y="1632" type="curve" smooth="yes"/>
      <point x="447" y="1632"/>
      <point x="398" y="1626"/>
      <point x="346" y="1472" type="curve"/>
      <point x="266" y="1252"/>
      <point x="176" y="906"/>
      <point x="176" y="588" type="curve" smooth="yes"/>
      <point x="176" y="188"/>
      <point x="299" y="-160"/>
      <point x="700" y="-160" type="curve" smooth="yes"/>
      <point x="1202" y="-160"/>
      <point x="1616" y="484"/>
      <point x="1616" y="1593" type="curve" smooth="yes"/>
      <point x="1616" y="1699"/>
      <point x="1574" y="1728"/>
      <point x="1503" y="1728" type="curve" smooth="yes"/>
      <point x="1422" y="1728"/>
      <point x="1335" y="1703"/>
    </contour>
  </outline>
</glyph>
<glyph name="V" format="1">
  <advance width="1236"/>
  <unicode hex="0056"/>
  <outline>
    <contour>
      <point x="181" y="480" type="curve" smooth="yes"/>
      <point x="206" y="223"/>
      <point x="161" y="-33"/>
      <point x="402" y="-33" type="curve" smooth="yes"/>
      <point x="520" y="-33"/>
      <point x="638" y="79"/>
      <point x="794" y="448" type="curve"/>
      <point x="790" y="425"/>
      <point x="788" y="404"/>
      <point x="788" y="383" type="curve" smooth="yes"/>
      <point x="788" y="226"/>
      <point x="893" y="123"/>
      <point x="1073" y="123" type="curve" smooth="yes"/>
      <point x="1169" y="123"/>
      <point x="1283" y="180"/>
      <point x="1393" y="268" type="curve"/>
      <point x="1416" y="475" type="line"/>
      <point x="1416" y="475"/>
      <point x="1240" y="311"/>
      <point x="1155" y="311" type="curve" smooth="yes"/>
      <point x="977" y="311"/>
      <point x="898" y="408"/>
      <point x="898" y="510" type="curve" smooth="yes"/>
      <point x="898" y="543"/>
      <point x="906" y="578"/>
      <point x="922" y="608" type="curve" smooth="yes"/>
      <point x="1089" y="918"/>
      <point x="1333" y="1371"/>
      <point x="1333" y="1516" type="curve" smooth="yes"/>
      <point x="1333" y="1584"/>
      <point x="1304" y="1630"/>
      <point x="1256" y="1630" type="curve" smooth="yes"/>
      <point x="1174" y="1630"/>
      <point x="1096" y="1575"/>
      <point x="1078" y="1510" type="curve"/>
      <point x="427" y="260" type="line"/>
      <point x="383" y="1449" type="line"/>
      <point x="383" y="1543"/>
      <point x="361" y="1599"/>
      <point x="262" y="1599" type="curve" smooth="yes"/>
      <point x="215" y="1599"/>
      <point x="121" y="1598"/>
      <point x="121" y="1436" type="curve" smooth="yes"/>
      <point x="121" y="1216"/>
      <point x="180" y="491"/>
    </contour>
  </outline>
</glyph>
<glyph name="W" format="1">
  <advance width="2239"/>
  <unicode hex="0057"/>
  <outline>
    <contour>
      <point x="614" y="1542" type="curve" smooth="yes"/>
      <point x="614" y="1621"/>
      <point x="578" y="1632"/>
      <point x="518" y="1632" type="curve" smooth="yes"/>
      <point x="445" y="1632"/>
      <point x="377" y="1627"/>
      <point x="311" y="1472" type="curve"/>
      <point x="198" y="1195"/>
      <point x="134" y="879"/>
      <point x="134" y="595" type="curve" smooth="yes"/>
      <point x="134" y="135"/>
      <point x="291" y="-96"/>
      <point x="466" y="-96" type="curve" smooth="yes"/>
      <point x="774" y="-96"/>
      <point x="966" y="96"/>
      <point x="1062" y="704" type="curve"/>
      <point x="1058" y="660"/>
      <point x="1049" y="602"/>
      <point x="1049" y="539" type="curve" smooth="yes"/>
      <point x="1049" y="189"/>
      <point x="1144" y="-96"/>
      <point x="1398" y="-96" type="curve" smooth="yes"/>
      <point x="1599" y="-96"/>
      <point x="1775" y="61"/>
      <point x="1908" y="308" type="curve"/>
      <point x="1928" y="210"/>
      <point x="1990" y="168"/>
      <point x="2070" y="168" type="curve" smooth="yes"/>
      <point x="2162" y="168"/>
      <point x="2278" y="247"/>
      <point x="2380" y="368" type="curve"/>
      <point x="2373" y="605" type="line"/>
      <point x="2284" y="463"/>
      <point x="2184" y="399"/>
      <point x="2113" y="399" type="curve" smooth="yes"/>
      <point x="2058" y="399"/>
      <point x="2015" y="428"/>
      <point x="2015" y="482" type="curve" smooth="yes"/>
      <point x="2015" y="566"/>
      <point x="2182" y="1164"/>
      <point x="2182" y="1546" type="curve" smooth="yes"/>
      <point x="2182" y="1639"/>
      <point x="2136" y="1664"/>
      <point x="2070" y="1664" type="curve" smooth="yes"/>
      <point x="1984" y="1664"/>
      <point x="1903" y="1641"/>
      <point x="1895" y="1506" type="curve" smooth="yes"/>
      <point x="1879" y="1245"/>
      <point x="1773" y="96"/>
      <point x="1434" y="96" type="curve" smooth="yes"/>
      <point x="1336" y="96"/>
      <point x="1303" y="246"/>
      <point x="1303" y="487" type="curve" smooth="yes"/>
      <point x="1303" y="838"/>
      <point x="1414" y="1447"/>
      <point x="1414" y="1475" type="curve" smooth="yes"/>
      <point x="1414" y="1530"/>
      <point x="1387" y="1568"/>
      <point x="1286" y="1568" type="curve" smooth="yes"/>
      <point x="1180" y="1568"/>
      <point x="1126" y="1525"/>
      <point x="1094" y="1377" type="curve"/>
      <point x="1094" y="1377"/>
      <point x="877" y="160"/>
      <point x="550" y="160" type="curve" smooth="yes"/>
      <point x="441" y="160"/>
      <point x="390" y="308"/>
      <point x="390" y="497" type="curve" smooth="yes"/>
      <point x="390" y="844"/>
      <point x="614" y="1406"/>
    </contour>
  </outline>
</glyph>
<glyph name="Z" format="1">
  <advance width="1265"/>
  <unicode hex="005A"/>
  <outline>
    <contour>
      <point x="695" y="1313" type="curve" smooth="yes"/>
      <point x="717" y="1311"/>
      <point x="739" y="1310"/>
      <point x="760" y="1310" type="curve" smooth="yes"/>
      <point x="794" y="1310"/>
      <point x="827" y="1312"/>
      <point x="858" y="1312" type="curve"/>
      <point x="124" y="352" type="line"/>
      <point x="45" y="275"/>
      <point x="13" y="207"/>
      <point x="13" y="156" type="curve" smooth="yes"/>
      <point x="13" y="91"/>
      <point x="63" y="51"/>
      <point x="134" y="51" type="curve" smooth="yes"/>
      <point x="190" y="51"/>
      <point x="260" y="76"/>
      <point x="328" y="135" type="curve"/>
      <point x="597" y="10"/>
      <point x="737" y="-30"/>
      <point x="773" y="-30" type="curve" smooth="yes"/>
      <point x="1004" y="-30"/>
      <point x="1240" y="122"/>
      <point x="1337" y="202" type="curve"/>
      <point x="1349" y="216"/>
      <point x="1355" y="236"/>
      <point x="1355" y="257" type="curve" smooth="yes"/>
      <point x="1355" y="316"/>
      <point x="1299" y="388"/>
      <point x="1241" y="388" type="curve" smooth="yes"/>
      <point x="1225" y="388"/>
      <point x="1212" y="383"/>
      <point x="1197" y="372" type="curve"/>
      <point x="1099" y="316"/>
      <point x="976" y="213"/>
      <point x="761" y="213" type="curve" smooth="yes"/>
      <point x="666" y="213"/>
      <point x="466" y="319"/>
      <point x="463" y="319" type="curve"/>
      <point x="468" y="342" type="line"/>
      <point x="517" y="401"/>
      <point x="757" y="889"/>
      <point x="1221" y="1340" type="curve"/>
      <point x="1259" y="1361"/>
      <point x="1275" y="1381"/>
      <point x="1277" y="1388" type="curve"/>
      <point x="1281" y="1412"/>
      <point x="1284" y="1434"/>
      <point x="1284" y="1454" type="curve" smooth="yes"/>
      <point x="1284" y="1518"/>
      <point x="1260" y="1558"/>
      <point x="1205" y="1558" type="curve" smooth="yes"/>
      <point x="1195" y="1558"/>
      <point x="1169" y="1546"/>
      <point x="926" y="1546" type="curve" smooth="yes"/>
      <point x="888" y="1546"/>
      <point x="844" y="1546"/>
      <point x="795" y="1547" type="curve" smooth="yes"/>
      <point x="661" y="1549"/>
      <point x="550" y="1633"/>
      <point x="433" y="1633" type="curve" smooth="yes"/>
      <point x="330" y="1633"/>
      <point x="185" y="1564"/>
      <point x="139" y="1219" type="curve" smooth="yes"/>
      <point x="136" y="1200"/>
      <point x="134" y="1183"/>
      <point x="134" y="1168" type="curve" smooth="yes"/>
      <point x="134" y="1131"/>
      <point x="144" y="1107"/>
      <point x="169" y="1107" type="curve" smooth="yes"/>
      <point x="197" y="1107"/>
      <point x="239" y="1132"/>
      <point x="276" y="1213" type="curve" smooth="yes"/>
      <point x="335" y="1344"/>
      <point x="374" y="1382"/>
      <point x="423" y="1382" type="curve" smooth="yes"/>
      <point x="481" y="1382"/>
      <point x="554" y="1328"/>
    </contour>
  </outline>
</glyph>
<glyph name="bracketleft" format="1">
  <advance width="927"/>
  <unicode hex="005B"/>
  <outline>
    <contour>
      <point x="392" y="1415" type="curve"/>
      <point x="392" y="1415"/>
      <point x="288" y="545"/>
      <point x="192" y="60" type="curve" smooth="yes"/>
      <point x="185" y="27"/>
      <point x="176" y="-14"/>
      <point x="176" y="-53" type="curve" smooth="yes"/>
      <point x="176" y="-125"/>
      <point x="208" y="-192"/>
      <point x="353" y="-192" type="curve" smooth="yes"/>
      <point x="671" y="-192" type="line" smooth="yes"/>
      <point x="762" y="-192"/>
      <point x="828" y="-91"/>
      <point x="828" y="-51" type="curve" smooth="yes"/>
      <point x="828" y="-6"/>
      <point x="789" y="32"/>
      <point x="745" y="32" type="curve" smooth="yes"/>
      <point x="459" y="32" type="line"/>
      <point x="459" y="25"/>
      <point x="673" y="1430"/>
      <point x="672" y="1443" type="curve"/>
      <point x="958" y="1443" type="line" smooth="yes"/>
      <point x="1013" y="1443"/>
      <point x="1088" y="1502"/>
      <point x="1088" y="1561" type="curve" smooth="yes"/>
      <point x="1088" y="1604"/>
      <point x="1057" y="1667"/>
      <point x="990" y="1667" type="curve" smooth="yes"/>
      <point x="672" y="1667" type="line" smooth="yes"/>
      <point x="448" y="1667"/>
      <point x="417" y="1507"/>
    </contour>
  </outline>
</glyph>
<glyph name="backslash" format="1">
  <advance width="1248"/>
  <unicode hex="005C"/>
  <outline>
    <contour>
      <point x="416" y="1760" type="curve" smooth="yes"/>
      <point x="384" y="1829"/>
      <point x="323" y="1864"/>
      <point x="267" y="1864" type="curve" smooth="yes"/>
      <point x="208" y="1864"/>
      <point x="155" y="1823"/>
      <point x="155" y="1743" type="curve" smooth="yes"/>
      <point x="155" y="1710"/>
      <point x="164" y="1669"/>
      <point x="185" y="1622" type="curve" smooth="yes"/>
      <point x="325" y="1312"/>
      <point x="540" y="728"/>
      <point x="867" y="64" type="curve"/>
      <point x="906" y="-1"/>
      <point x="987" y="-39"/>
      <point x="1053" y="-39" type="curve" smooth="yes"/>
      <point x="1111" y="-39"/>
      <point x="1159" y="-10"/>
      <point x="1159" y="55" type="curve" smooth="yes"/>
      <point x="1159" y="89"/>
      <point x="1147" y="136"/>
      <point x="1120" y="197" type="curve" smooth="yes"/>
      <point x="1045" y="364"/>
      <point x="576" y="1408"/>
    </contour>
  </outline>
</glyph>
<glyph name="underscore" format="1">
  <advance width="1248"/>
  <unicode hex="005F"/>
  <outline>
    <contour>
      <point x="128" y="0" type="curve"/>
      <point x="1020" y="0" type="line" smooth="yes"/>
      <point x="1210" y="0"/>
      <point x="1266" y="71"/>
      <point x="1266" y="163" type="curve" smooth="yes"/>
      <point x="1266" y="195"/>
      <point x="1251" y="225"/>
      <point x="1184" y="225" type="curve" smooth="yes"/>
      <point x="907" y="225"/>
      <point x="408" y="224"/>
      <point x="236" y="224" type="curve" smooth="yes"/>
      <point x="107" y="224"/>
      <point x="-6" y="210"/>
      <point x="-6" y="108" type="curve" smooth="yes"/>
      <point x="-6" y="31"/>
      <point x="63" y="0"/>
    </contour>
  </outline>
</glyph>
<glyph name="a" format="1">
  <advance width="928"/>
  <unicode hex="0061"/>
  <outline>
    <contour>
      <point x="1174" y="245" type="curve"/>
      <point x="1126" y="467" type="line"/>
      <point x="1126" y="467"/>
      <point x="955" y="224"/>
      <point x="845" y="224" type="curve" smooth="yes"/>
      <point x="808" y="224"/>
      <point x="800" y="262"/>
      <point x="800" y="324" type="curve" smooth="yes"/>
      <point x="800" y="470"/>
      <point x="864" y="662"/>
      <point x="864" y="790" type="curve" smooth="yes"/>
      <point x="864" y="872"/>
      <point x="832" y="883"/>
      <point x="792" y="883" type="curve" smooth="yes"/>
      <point x="778" y="883"/>
      <point x="762" y="882"/>
      <point x="747" y="882" type="curve" smooth="yes"/>
      <point x="730" y="882"/>
      <point x="713" y="883"/>
      <point x="697" y="890" type="curve" smooth="yes"/>
      <point x="664" y="903"/>
      <point x="664" y="958"/>
      <point x="603" y="958" type="curve" smooth="yes"/>
      <point x="328" y="958"/>
      <point x="64" y="580"/>
      <point x="64" y="281" type="curve" smooth="yes"/>
      <point x="64" y="104"/>
      <point x="186" y="0"/>
      <point x="315" y="0" type="curve" smooth="yes"/>
      <point x="435" y="0"/>
      <point x="562" y="87"/>
      <point x="627" y="161" type="curve"/>
      <point x="670" y="54"/>
      <point x="725" y="0"/>
      <point x="813" y="0" type="curve" smooth="yes"/>
      <point x="960" y="0"/>
      <point x="1114" y="159"/>
    </contour>
    <contour>
      <point x="320" y="324" type="curve" smooth="yes"/>
      <point x="320" y="500"/>
      <point x="467" y="768"/>
      <point x="631" y="768" type="curve"/>
      <point x="570" y="474" type="line"/>
      <point x="559" y="389"/>
      <point x="497" y="192"/>
      <point x="398" y="192" type="curve" smooth="yes"/>
      <point x="336" y="192"/>
      <point x="320" y="258"/>
    </contour>
  </outline>
</glyph>
<glyph name="e" format="1">
  <advance width="761"/>
  <unicode hex="0065"/>
  <outline>
    <contour>
      <point x="426" y="0" type="curve" smooth="yes"/>
      <point x="748" y="0"/>
      <point x="1041" y="321"/>
      <point x="1041" y="321" type="curve"/>
      <point x="952" y="475" type="line"/>
      <point x="839" y="358"/>
      <point x="615" y="192"/>
      <point x="442" y="192" type="curve" smooth="yes"/>
      <point x="392" y="192"/>
      <point x="343" y="218"/>
      <point x="316" y="303" type="curve"/>
      <point x="549" y="367"/>
      <point x="721" y="544"/>
      <point x="721" y="709" type="curve" smooth="yes"/>
      <point x="721" y="860"/>
      <point x="607" y="959"/>
      <point x="458" y="959" type="curve" smooth="yes"/>
      <point x="184" y="959"/>
      <point x="50" y="643"/>
      <point x="50" y="417" type="curve" smooth="yes"/>
      <point x="50" y="196"/>
      <point x="175" y="0"/>
    </contour>
    <contour>
      <point x="293" y="450" type="curve"/>
      <point x="293" y="668"/>
      <point x="397" y="771"/>
      <point x="470" y="771" type="curve" smooth="yes"/>
      <point x="511" y="771"/>
      <point x="543" y="739"/>
      <point x="543" y="678" type="curve" smooth="yes"/>
      <point x="543" y="564"/>
      <point x="379" y="468"/>
    </contour>
  </outline>
</glyph>
<glyph name="f" format="1">
  <advance width="687"/>
  <unicode hex="0066"/>
  <outline>
    <contour>
      <point x="37" y="-38" type="curve" smooth="yes"/>
      <point x="37" y="-282"/>
      <point x="83" y="-604"/>
      <point x="302" y="-604" type="curve" smooth="yes"/>
      <point x="595" y="-604"/>
      <point x="635" y="-75"/>
      <point x="635" y="-29" type="curve" smooth="yes"/>
      <point x="635" y="175"/>
      <point x="504" y="397"/>
      <point x="504" y="397" type="curve"/>
      <point x="504" y="397"/>
      <point x="742" y="401"/>
      <point x="916" y="497" type="curve"/>
      <point x="938" y="740" type="line"/>
      <point x="938" y="740"/>
      <point x="792" y="587"/>
      <point x="529" y="587" type="curve" smooth="yes"/>
      <point x="492" y="587"/>
      <point x="446" y="593"/>
      <point x="414" y="603" type="curve"/>
      <point x="661" y="921"/>
      <point x="898" y="1387"/>
      <point x="898" y="1624" type="curve" smooth="yes"/>
      <point x="898" y="1797"/>
      <point x="777" y="1856"/>
      <point x="686" y="1856" type="curve" smooth="yes"/>
      <point x="110" y="1856"/>
      <point x="37" y="-4"/>
    </contour>
    <contour>
      <point x="304" y="442" type="curve" smooth="yes"/>
      <point x="354" y="442"/>
      <point x="426" y="85"/>
      <point x="426" y="-57" type="curve" smooth="yes"/>
      <point x="426" y="-195"/>
      <point x="414" y="-379"/>
      <point x="323" y="-379" type="curve" smooth="yes"/>
      <point x="295" y="-379"/>
      <point x="263" y="-333"/>
      <point x="263" y="59" type="curve" smooth="yes"/>
      <point x="263" y="143"/>
      <point x="287" y="442"/>
    </contour>
    <contour>
      <point x="547" y="1533" type="curve" smooth="yes"/>
      <point x="573" y="1598"/>
      <point x="599" y="1631"/>
      <point x="660" y="1631" type="curve" smooth="yes"/>
      <point x="695" y="1631"/>
      <point x="716" y="1599"/>
      <point x="716" y="1529" type="curve" smooth="yes"/>
      <point x="716" y="1427"/>
      <point x="531" y="1123"/>
      <point x="368" y="816" type="curve"/>
      <point x="386" y="962"/>
      <point x="392" y="1149"/>
    </contour>
  </outline>
</glyph>
<glyph name="g" format="1">
  <advance width="869"/>
  <unicode hex="0067"/>
  <outline>
    <contour>
      <point x="468" y="12" type="line"/>
      <point x="181" y="-222"/>
      <point x="-110" y="-548"/>
      <point x="-110" y="-729" type="curve" smooth="yes"/>
      <point x="-110" y="-902"/>
      <point x="23" y="-928"/>
      <point x="114" y="-928" type="curve" smooth="yes"/>
      <point x="459" y="-928"/>
      <point x="614" y="-558"/>
      <point x="690" y="-128" type="curve"/>
      <point x="690" y="-128"/>
      <point x="1031" y="79"/>
      <point x="1128" y="245" type="curve"/>
      <point x="1080" y="467" type="line"/>
      <point x="904" y="214"/>
      <point x="802" y="140"/>
      <point x="722" y="94" type="curve"/>
      <point x="722" y="94"/>
      <point x="818" y="650"/>
      <point x="818" y="790" type="curve" smooth="yes"/>
      <point x="818" y="872"/>
      <point x="786" y="883"/>
      <point x="746" y="883" type="curve" smooth="yes"/>
      <point x="732" y="883"/>
      <point x="716" y="882"/>
      <point x="701" y="882" type="curve" smooth="yes"/>
      <point x="684" y="882"/>
      <point x="667" y="883"/>
      <point x="651" y="890" type="curve" smooth="yes"/>
      <point x="618" y="903"/>
      <point x="618" y="958"/>
      <point x="557" y="958" type="curve" smooth="yes"/>
      <point x="282" y="958"/>
      <point x="18" y="580"/>
      <point x="18" y="281" type="curve" smooth="yes"/>
      <point x="18" y="104"/>
      <point x="140" y="-2"/>
      <point x="269" y="-2" type="curve" smooth="yes"/>
      <point x="342" y="-2"/>
      <point x="424" y="41"/>
      <point x="495" y="105" type="curve"/>
    </contour>
    <contour>
      <point x="274" y="324" type="curve" smooth="yes"/>
      <point x="274" y="500"/>
      <point x="421" y="768"/>
      <point x="585" y="768" type="curve"/>
      <point x="524" y="474" type="line"/>
      <point x="513" y="389"/>
      <point x="451" y="192"/>
      <point x="352" y="192" type="curve" smooth="yes"/>
      <point x="290" y="192"/>
      <point x="274" y="258"/>
    </contour>
    <contour>
      <point x="126" y="-736" type="curve" smooth="yes"/>
      <point x="98" y="-736"/>
      <point x="86" y="-722"/>
      <point x="86" y="-699" type="curve" smooth="yes"/>
      <point x="86" y="-605"/>
      <point x="280" y="-359"/>
      <point x="434" y="-256" type="curve"/>
      <point x="402" y="-416"/>
      <point x="296" y="-736"/>
    </contour>
  </outline>
</glyph>
<glyph name="i" format="1">
  <advance width="527"/>
  <unicode hex="0069"/>
  <outline>
    <contour>
      <point x="728" y="416" type="line"/>
      <point x="639" y="345"/>
      <point x="490" y="192"/>
      <point x="395" y="192" type="curve" smooth="yes"/>
      <point x="354" y="192"/>
      <point x="344" y="231"/>
      <point x="344" y="290" type="curve" smooth="yes"/>
      <point x="344" y="476"/>
      <point x="478" y="813"/>
      <point x="478" y="903" type="curve" smooth="yes"/>
      <point x="478" y="938"/>
      <point x="461" y="960"/>
      <point x="406" y="960" type="curve" smooth="yes"/>
      <point x="345" y="960"/>
      <point x="243" y="932"/>
      <point x="224" y="863" type="curve"/>
      <point x="176" y="664"/>
      <point x="88" y="369"/>
      <point x="88" y="201" type="curve" smooth="yes"/>
      <point x="88" y="80"/>
      <point x="135" y="0"/>
      <point x="274" y="0" type="curve" smooth="yes"/>
      <point x="428" y="0"/>
      <point x="633" y="124"/>
      <point x="728" y="213" type="curve"/>
    </contour>
    <contour>
      <point x="281" y="1241" type="curve" smooth="yes"/>
      <point x="281" y="1149"/>
      <point x="336" y="1089"/>
      <point x="453" y="1089" type="curve" smooth="yes"/>
      <point x="589" y="1089"/>
      <point x="647" y="1178"/>
      <point x="647" y="1268" type="curve" smooth="yes"/>
      <point x="647" y="1368"/>
      <point x="570" y="1408"/>
      <point x="477" y="1408" type="curve" smooth="yes"/>
      <point x="329" y="1408"/>
      <point x="281" y="1303"/>
    </contour>
  </outline>
</glyph>
<glyph name="j" format="1">
  <advance width="572"/>
  <unicode hex="006A"/>
  <outline>
    <contour>
      <point x="19" y="0" type="curve" smooth="yes"/>
      <point x="19" y="-384"/>
      <point x="88" y="-608"/>
      <point x="275" y="-608" type="curve" smooth="yes"/>
      <point x="583" y="-608"/>
      <point x="595" y="-84"/>
      <point x="595" y="-32" type="curve" smooth="yes"/>
      <point x="595" y="164"/>
      <point x="507" y="384"/>
      <point x="507" y="384" type="curve"/>
      <point x="507" y="384"/>
      <point x="709" y="384"/>
      <point x="883" y="480" type="curve"/>
      <point x="883" y="672" type="line"/>
      <point x="595" y="544"/>
      <point x="484" y="569"/>
      <point x="335" y="544" type="curve"/>
      <point x="391" y="704" type="line" smooth="yes"/>
      <point x="403" y="739"/>
      <point x="438" y="864"/>
      <point x="438" y="895" type="curve" smooth="yes"/>
      <point x="438" y="926"/>
      <point x="419" y="960"/>
      <point x="372" y="960" type="curve" smooth="yes"/>
      <point x="308" y="960"/>
      <point x="239" y="957"/>
      <point x="202" y="896" type="curve" smooth="yes"/>
      <point x="115" y="753"/>
      <point x="19" y="83"/>
    </contour>
    <contour>
      <point x="305" y="447" type="curve"/>
      <point x="305" y="447"/>
      <point x="403" y="124"/>
      <point x="403" y="-32" type="curve" smooth="yes"/>
      <point x="403" y="-168"/>
      <point x="396" y="-384"/>
      <point x="307" y="-384" type="curve" smooth="yes"/>
      <point x="287" y="-384"/>
      <point x="243" y="-338"/>
      <point x="243" y="-192" type="curve" smooth="yes"/>
      <point x="243" y="31"/>
      <point x="271" y="242"/>
    </contour>
    <contour>
      <point x="241" y="1241" type="curve" smooth="yes"/>
      <point x="241" y="1149"/>
      <point x="296" y="1089"/>
      <point x="413" y="1089" type="curve" smooth="yes"/>
      <point x="549" y="1089"/>
      <point x="607" y="1178"/>
      <point x="607" y="1268" type="curve" smooth="yes"/>
      <point x="607" y="1368"/>
      <point x="530" y="1408"/>
      <point x="437" y="1408" type="curve" smooth="yes"/>
      <point x="289" y="1408"/>
      <point x="241" y="1303"/>
    </contour>
  </outline>
</glyph>
<glyph name="n" format="1">
  <advance width="947"/>
  <unicode hex="006E"/>
  <outline>
    <contour>
      <point x="114" y="209" type="curve" smooth="yes"/>
      <point x="114" y="103"/>
      <point x="131" y="0"/>
      <point x="241" y="0" type="curve" smooth="yes"/>
      <point x="285" y="0"/>
      <point x="317" y="17"/>
      <point x="344" y="71" type="curve" smooth="yes"/>
      <point x="606" y="591" type="line"/>
      <point x="622" y="591" type="line"/>
      <point x="606" y="485"/>
      <point x="594" y="392"/>
      <point x="594" y="312" type="curve" smooth="yes"/>
      <point x="594" y="109"/>
      <point x="651" y="0"/>
      <point x="724" y="0" type="curve" smooth="yes"/>
      <point x="872" y="0"/>
      <point x="988" y="80"/>
      <point x="1147" y="191" type="curve"/>
      <point x="1130" y="415" type="line"/>
      <point x="1130" y="415"/>
      <point x="928" y="224"/>
      <point x="850" y="224" type="curve" smooth="yes"/>
      <point x="806" y="224"/>
      <point x="786" y="284"/>
      <point x="786" y="366" type="curve" smooth="yes"/>
      <point x="786" y="516"/>
      <point x="849" y="758"/>
      <point x="849" y="802" type="curve" smooth="yes"/>
      <point x="849" y="900"/>
      <point x="806" y="960"/>
      <point x="740" y="960" type="curve" smooth="yes"/>
      <point x="674" y="960"/>
      <point x="619" y="938"/>
      <point x="576" y="866" type="curve" smooth="yes"/>
      <point x="549" y="820"/>
      <point x="425" y="587"/>
      <point x="402" y="544" type="curve"/>
      <point x="382" y="544" type="line"/>
      <point x="383" y="572"/>
      <point x="422" y="779"/>
      <point x="422" y="839" type="curve" smooth="yes"/>
      <point x="422" y="912"/>
      <point x="398" y="960"/>
      <point x="326" y="960" type="curve" smooth="yes"/>
      <point x="254" y="960"/>
      <point x="213" y="913"/>
      <point x="198" y="852" type="curve" smooth="yes"/>
      <point x="160" y="696"/>
      <point x="114" y="384"/>
    </contour>
  </outline>
</glyph>
<glyph name="r" format="1">
  <advance width="824"/>
  <unicode hex="0072"/>
  <outline>
    <contour>
      <point x="108" y="209" type="curve" smooth="yes"/>
      <point x="108" y="103"/>
      <point x="125" y="0"/>
      <point x="235" y="0" type="curve" smooth="yes"/>
      <point x="284" y="0"/>
      <point x="311" y="32"/>
      <point x="348" y="135" type="curve" smooth="yes"/>
      <point x="527" y="634" type="line"/>
      <point x="543" y="634" type="line"/>
      <point x="565" y="467"/>
      <point x="599" y="288"/>
      <point x="798" y="288" type="curve" smooth="yes"/>
      <point x="910" y="288"/>
      <point x="1018" y="363"/>
      <point x="1088" y="409" type="curve"/>
      <point x="1103" y="643" type="line"/>
      <point x="1103" y="643"/>
      <point x="949" y="512"/>
      <point x="830" y="512" type="curve" smooth="yes"/>
      <point x="788" y="512"/>
      <point x="748" y="542"/>
      <point x="748" y="637" type="curve" smooth="yes"/>
      <point x="748" y="692"/>
      <point x="780" y="820"/>
      <point x="780" y="866" type="curve" smooth="yes"/>
      <point x="780" y="925"/>
      <point x="733" y="960"/>
      <point x="682" y="960" type="curve" smooth="yes"/>
      <point x="536" y="960"/>
      <point x="461" y="783"/>
      <point x="407" y="676" type="curve"/>
      <point x="396" y="676" type="line"/>
      <point x="394" y="744"/>
      <point x="394" y="820"/>
      <point x="394" y="869" type="curve" smooth="yes"/>
      <point x="394" y="952"/>
      <point x="391" y="960"/>
      <point x="322" y="960" type="curve" smooth="yes"/>
      <point x="260" y="960"/>
      <point x="245" y="950"/>
      <point x="223" y="892" type="curve" smooth="yes"/>
      <point x="173" y="762"/>
      <point x="108" y="384"/>
    </contour>
  </outline>
</glyph>
<glyph name="u" format="1">
  <advance width="948"/>
  <unicode hex="0075"/>
  <outline>
    <contour>
      <point x="872" y="895" type="curve" smooth="yes"/>
      <point x="872" y="932"/>
      <point x="828" y="959"/>
      <point x="761" y="959" type="curve" smooth="yes"/>
      <point x="702" y="959"/>
      <point x="646" y="934"/>
      <point x="640" y="902" type="curve" smooth="yes"/>
      <point x="541" y="394" type="line" smooth="yes"/>
      <point x="520" y="288"/>
      <point x="450" y="225"/>
      <point x="392" y="225" type="curve" smooth="yes"/>
      <point x="352" y="225"/>
      <point x="334" y="271"/>
      <point x="334" y="318" type="curve" smooth="yes"/>
      <point x="334" y="323"/>
      <point x="395" y="704"/>
      <point x="431" y="917" type="curve"/>
      <point x="431" y="939"/>
      <point x="402" y="957"/>
      <point x="332" y="959" type="curve"/>
      <point x="203" y="957"/>
      <point x="161" y="747"/>
      <point x="151" y="688" type="curve" smooth="yes"/>
      <point x="115" y="485"/>
      <point x="87" y="322"/>
      <point x="87" y="220" type="curve" smooth="yes"/>
      <point x="87" y="52"/>
      <point x="162" y="-2"/>
      <point x="249" y="-2" type="curve" smooth="yes"/>
      <point x="356" y="-2"/>
      <point x="478" y="91"/>
      <point x="573" y="215" type="curve"/>
      <point x="572" y="206"/>
      <point x="572" y="198"/>
      <point x="572" y="190" type="curve" smooth="yes"/>
      <point x="572" y="80"/>
      <point x="647" y="10"/>
      <point x="741" y="10" type="curve" smooth="yes"/>
      <point x="895" y="10"/>
      <point x="1125" y="147"/>
      <point x="1212" y="234" type="curve"/>
      <point x="1212" y="319"/>
      <point x="1210" y="365"/>
      <point x="1210" y="454" type="curve"/>
      <point x="1144" y="366"/>
      <point x="920" y="203"/>
      <point x="831" y="203" type="curve" smooth="yes"/>
      <point x="794" y="203"/>
      <point x="783" y="229"/>
      <point x="783" y="278" type="curve" smooth="yes"/>
      <point x="783" y="298"/>
      <point x="785" y="323"/>
      <point x="788" y="352" type="curve" smooth="yes"/>
      <point x="794" y="411"/>
      <point x="872" y="787"/>
    </contour>
  </outline>
</glyph>
<glyph name="w" format="1">
  <advance width="1301"/>
  <unicode hex="0077"/>
  <outline>
    <contour>
      <point x="592" y="489" type="line"/>
      <point x="593" y="275"/>
      <point x="600" y="0"/>
      <point x="657" y="0" type="curve" smooth="yes"/>
      <point x="763" y="0"/>
      <point x="872" y="150"/>
      <point x="963" y="363" type="curve"/>
      <point x="966" y="205"/>
      <point x="1080" y="145"/>
      <point x="1216" y="145" type="curve" smooth="yes"/>
      <point x="1302" y="145"/>
      <point x="1401" y="181"/>
      <point x="1488" y="237" type="curve"/>
      <point x="1488" y="472" type="line"/>
      <point x="1488" y="472"/>
      <point x="1327" y="358"/>
      <point x="1239" y="358" type="curve" smooth="yes"/>
      <point x="1136" y="358"/>
      <point x="1089" y="498"/>
      <point x="1089" y="498" type="curve"/>
      <point x="1089" y="498"/>
      <point x="1135" y="583"/>
      <point x="1192" y="688" type="curve" smooth="yes"/>
      <point x="1195" y="694"/>
      <point x="1254" y="802"/>
      <point x="1254" y="876" type="curve" smooth="yes"/>
      <point x="1254" y="925"/>
      <point x="1203" y="960"/>
      <point x="1127" y="960" type="curve" smooth="yes"/>
      <point x="1054" y="960"/>
      <point x="996" y="926"/>
      <point x="980" y="889" type="curve" smooth="yes"/>
      <point x="741" y="355" type="line"/>
      <point x="727" y="354" type="line"/>
      <point x="809" y="895" type="line"/>
      <point x="809" y="933"/>
      <point x="776" y="959"/>
      <point x="718" y="959" type="curve" smooth="yes"/>
      <point x="511" y="959"/>
      <point x="492" y="763"/>
      <point x="316" y="355" type="curve"/>
      <point x="303" y="354" type="line"/>
      <point x="373" y="895" type="line"/>
      <point x="373" y="933"/>
      <point x="340" y="959"/>
      <point x="282" y="959" type="curve"/>
      <point x="258" y="961" type="line"/>
      <point x="112" y="961"/>
      <point x="86" y="722"/>
      <point x="81" y="682" type="curve"/>
      <point x="72" y="575"/>
      <point x="72" y="541"/>
      <point x="72" y="455" type="curve" smooth="yes"/>
      <point x="72" y="157"/>
      <point x="120" y="0"/>
      <point x="223" y="0" type="curve" smooth="yes"/>
      <point x="346" y="0"/>
      <point x="486" y="204"/>
      <point x="563" y="494" type="curve"/>
    </contour>
  </outline>
</glyph>
<glyph name="x" format="1">
  <advance width="1025"/>
  <unicode hex="0078"/>
  <outline>
    <contour>
      <point x="22" y="272" type="line"/>
      <point x="28" y="156"/>
      <point x="68" y="0"/>
      <point x="224" y="0" type="curve" smooth="yes"/>
      <point x="291" y="0"/>
      <point x="383" y="103"/>
      <point x="498" y="235" type="curve"/>
      <point x="594" y="70"/>
      <point x="681" y="0"/>
      <point x="736" y="0" type="curve" smooth="yes"/>
      <point x="928" y="0"/>
      <point x="1129" y="147"/>
      <point x="1216" y="234" type="curve"/>
      <point x="1216" y="319"/>
      <point x="1214" y="365"/>
      <point x="1214" y="454" type="curve"/>
      <point x="1148" y="366"/>
      <point x="934" y="223"/>
      <point x="845" y="223" type="curve" smooth="yes"/>
      <point x="800" y="223"/>
      <point x="739" y="318"/>
      <point x="680" y="436" type="curve"/>
      <point x="764" y="523"/>
      <point x="857" y="607"/>
      <point x="960" y="672" type="curve" smooth="yes"/>
      <point x="996" y="695"/>
      <point x="1013" y="738"/>
      <point x="1013" y="780" type="curve" smooth="yes"/>
      <point x="1013" y="839"/>
      <point x="980" y="895"/>
      <point x="919" y="895" type="curve" smooth="yes"/>
      <point x="895" y="895"/>
      <point x="865" y="886"/>
      <point x="832" y="864" type="curve" smooth="yes"/>
      <point x="732" y="798"/>
      <point x="650" y="725"/>
      <point x="582" y="653" type="curve"/>
      <point x="541" y="750"/>
      <point x="507" y="834"/>
      <point x="492" y="868" type="curve" smooth="yes"/>
      <point x="483" y="886"/>
      <point x="461" y="896"/>
      <point x="436" y="896" type="curve" smooth="yes"/>
      <point x="369" y="896"/>
      <point x="279" y="828"/>
      <point x="279" y="781" type="curve" smooth="yes"/>
      <point x="279" y="778"/>
      <point x="280" y="774"/>
      <point x="281" y="771" type="curve" smooth="yes"/>
      <point x="320" y="638"/>
      <point x="360" y="525"/>
      <point x="401" y="430" type="curve"/>
      <point x="297" y="283"/>
      <point x="254" y="242"/>
      <point x="234" y="242" type="curve" smooth="yes"/>
      <point x="197" y="242"/>
      <point x="173" y="322"/>
      <point x="166" y="358" type="curve"/>
    </contour>
  </outline>
</glyph>
<glyph name="braceright" format="1">
  <advance width="1248"/>
  <unicode hex="007D"/>
  <outline>
    <contour>
      <point x="1007" y="1304" type="curve" smooth="yes"/>
      <point x="1013" y="1343"/>
      <point x="1016" y="1380"/>
      <point x="1016" y="1415" type="curve" smooth="yes"/>
      <point x="1016" y="1614"/>
      <point x="920" y="1744"/>
      <point x="757" y="1744" type="curve" smooth="yes"/>
      <point x="661" y="1744"/>
      <point x="469" y="1736"/>
      <point x="326" y="1648" type="curve" smooth="yes"/>
      <point x="291" y="1626"/>
      <point x="274" y="1588"/>
      <point x="274" y="1552" type="curve" smooth="yes"/>
      <point x="274" y="1502"/>
      <point x="304" y="1456"/>
      <point x="359" y="1456" type="curve" smooth="yes"/>
      <point x="423" y="1456"/>
      <point x="556" y="1488"/>
      <point x="652" y="1488" type="curve" smooth="yes"/>
      <point x="713" y="1488"/>
      <point x="748" y="1460"/>
      <point x="748" y="1350" type="curve" smooth="yes"/>
      <point x="748" y="1258"/>
      <point x="702" y="1057"/>
      <point x="702" y="916" type="curve" smooth="yes"/>
      <point x="702" y="798"/>
      <point x="733" y="701"/>
      <point x="840" y="661" type="curve"/>
      <point x="670" y="625"/>
      <point x="635" y="413"/>
      <point x="606" y="234" type="curve" smooth="yes"/>
      <point x="564" y="-24"/>
      <point x="513" y="-86"/>
      <point x="427" y="-86" type="curve" smooth="yes"/>
      <point x="331" y="-86"/>
      <point x="281" y="-12"/>
      <point x="198" y="-12" type="curve" smooth="yes"/>
      <point x="152" y="-12"/>
      <point x="64" y="-58"/>
      <point x="64" y="-163" type="curve" smooth="yes"/>
      <point x="64" y="-290"/>
      <point x="373" y="-342"/>
      <point x="450" y="-342" type="curve" smooth="yes"/>
      <point x="642" y="-342"/>
      <point x="799" y="-154"/>
      <point x="841" y="106" type="curve" smooth="yes"/>
      <point x="854" y="189"/>
      <point x="865" y="262"/>
      <point x="880" y="346" type="curve" smooth="yes"/>
      <point x="892" y="419"/>
      <point x="949" y="512"/>
      <point x="1073" y="512" type="curve" smooth="yes"/>
      <point x="1149" y="512"/>
      <point x="1193" y="607"/>
      <point x="1193" y="688" type="curve" smooth="yes"/>
      <point x="1193" y="747"/>
      <point x="1170" y="799"/>
      <point x="1118" y="800" type="curve" smooth="yes"/>
      <point x="993" y="803"/>
      <point x="955" y="850"/>
      <point x="955" y="943" type="curve" smooth="yes"/>
      <point x="955" y="1040"/>
      <point x="989" y="1190"/>
    </contour>
  </outline>
</glyph>
<glyph name="exclamdown" format="1">
  <advance width="1184"/>
  <unicode hex="00A1"/>
  <outline>
    <contour>
      <point x="833" y="1342" type="curve" smooth="yes"/>
      <point x="834" y="1347"/>
      <point x="835" y="1352"/>
      <point x="835" y="1357" type="curve" smooth="yes"/>
      <point x="835" y="1382"/>
      <point x="814" y="1392"/>
      <point x="789" y="1392" type="curve" smooth="yes"/>
      <point x="754" y="1392"/>
      <point x="711" y="1372"/>
      <point x="705" y="1342" type="curve"/>
      <point x="471" y="791"/>
      <point x="322" y="503"/>
      <point x="257" y="190" type="curve" smooth="yes"/>
      <point x="249" y="150"/>
      <point x="246" y="119"/>
      <point x="246" y="93" type="curve" smooth="yes"/>
      <point x="246" y="16"/>
      <point x="278" y="-2"/>
      <point x="321" y="-2" type="curve" smooth="yes"/>
      <point x="404" y="-2"/>
      <point x="505" y="23"/>
      <point x="541" y="150" type="curve" smooth="yes"/>
      <point x="619" y="425"/>
      <point x="794" y="928"/>
    </contour>
    <contour>
      <point x="659" y="1669" type="curve" smooth="yes"/>
      <point x="658" y="1667"/>
      <point x="658" y="1665"/>
      <point x="658" y="1663" type="curve" smooth="yes"/>
      <point x="658" y="1560"/>
      <point x="716" y="1501"/>
      <point x="820" y="1501" type="curve" smooth="yes"/>
      <point x="949" y="1501"/>
      <point x="1003" y="1595"/>
      <point x="1003" y="1692" type="curve" smooth="yes"/>
      <point x="1003" y="1806"/>
      <point x="937" y="1856"/>
      <point x="839" y="1856" type="curve" smooth="yes"/>
      <point x="660" y="1856"/>
      <point x="667" y="1684"/>
    </contour>
  </outline>
</glyph>
<glyph name="cent" format="1">
  <advance width="896"/>
  <unicode hex="00A2"/>
  <outline>
    <contour>
      <point x="515" y="1023" type="curve"/>
      <point x="509" y="956" type="line"/>
      <point x="223" y="923"/>
      <point x="64" y="630"/>
      <point x="64" y="413" type="curve" smooth="yes"/>
      <point x="64" y="198"/>
      <point x="189" y="4"/>
      <point x="429" y="0" type="curve"/>
      <point x="426" y="-45"/>
      <point x="423" y="-64"/>
      <point x="423" y="-89" type="curve" smooth="yes"/>
      <point x="423" y="-147"/>
      <point x="443" y="-198"/>
      <point x="469" y="-198" type="curve" smooth="yes"/>
      <point x="475" y="-198"/>
      <point x="482" y="-199"/>
      <point x="490" y="-199" type="curve" smooth="yes"/>
      <point x="513" y="-199"/>
      <point x="540" y="-191"/>
      <point x="552" y="-130" type="curve"/>
      <point x="568" y="5" type="line"/>
      <point x="725" y="44"/>
      <point x="854" y="161"/>
      <point x="854" y="161" type="curve"/>
      <point x="875" y="175"/>
      <point x="884" y="196"/>
      <point x="884" y="218" type="curve" smooth="yes"/>
      <point x="884" y="264"/>
      <point x="847" y="314"/>
      <point x="809" y="314" type="curve" smooth="yes"/>
      <point x="800" y="314"/>
      <point x="794" y="312"/>
      <point x="785" y="307" type="curve"/>
      <point x="735" y="270"/>
      <point x="656" y="223"/>
      <point x="586" y="202" type="curve"/>
      <point x="604" y="417"/>
      <point x="614" y="609"/>
      <point x="624" y="765" type="curve"/>
      <point x="755" y="736"/>
      <point x="634" y="544"/>
      <point x="772" y="544" type="curve" smooth="yes"/>
      <point x="844" y="544"/>
      <point x="886" y="639"/>
      <point x="886" y="729" type="curve" smooth="yes"/>
      <point x="886" y="842"/>
      <point x="787" y="932"/>
      <point x="638" y="954" type="curve"/>
      <point x="640" y="970" type="line" smooth="yes"/>
      <point x="643" y="994"/>
      <point x="645" y="1036"/>
      <point x="645" y="1057" type="curve" smooth="yes"/>
      <point x="645" y="1084"/>
      <point x="631" y="1135"/>
      <point x="604" y="1135" type="curve" smooth="yes"/>
      <point x="548" y="1135"/>
      <point x="519" y="1075"/>
    </contour>
    <contour>
      <point x="320" y="414" type="curve" smooth="yes"/>
      <point x="320" y="494"/>
      <point x="339" y="689"/>
      <point x="491" y="750" type="curve"/>
      <point x="475" y="570"/>
      <point x="457" y="357"/>
      <point x="444" y="195" type="curve"/>
      <point x="344" y="216"/>
      <point x="320" y="328"/>
    </contour>
  </outline>
</glyph>
<glyph name="sterling" format="1">
  <advance width="1505"/>
  <unicode hex="00A3"/>
  <outline>
    <contour>
      <point x="1264" y="992" type="curve"/>
      <point x="1024" y="992" type="line"/>
      <point x="1024" y="1408"/>
      <point x="1208" y="1470"/>
      <point x="1344" y="1470" type="curve" smooth="yes"/>
      <point x="1434" y="1470"/>
      <point x="1502" y="1463"/>
      <point x="1502" y="1356" type="curve" smooth="yes"/>
      <point x="1502" y="1302"/>
      <point x="1554" y="1266"/>
      <point x="1606" y="1266" type="curve" smooth="yes"/>
      <point x="1659" y="1266"/>
      <point x="1712" y="1303"/>
      <point x="1712" y="1398" type="curve" smooth="yes"/>
      <point x="1712" y="1657"/>
      <point x="1507" y="1714"/>
      <point x="1343" y="1714" type="curve" smooth="yes"/>
      <point x="1074" y="1714"/>
      <point x="768" y="1536"/>
      <point x="768" y="992" type="curve"/>
      <point x="656" y="992" type="line" smooth="yes"/>
      <point x="548" y="992"/>
      <point x="525" y="934"/>
      <point x="525" y="879" type="curve" smooth="yes"/>
      <point x="525" y="855"/>
      <point x="539" y="768"/>
      <point x="632" y="768" type="curve" smooth="yes"/>
      <point x="748" y="768" type="line"/>
      <point x="736" y="631"/>
      <point x="678" y="394"/>
      <point x="666" y="292" type="curve"/>
      <point x="651" y="246"/>
      <point x="634" y="188"/>
      <point x="634" y="135" type="curve" smooth="yes"/>
      <point x="634" y="48"/>
      <point x="678" y="-29"/>
      <point x="842" y="-29" type="curve" smooth="yes"/>
      <point x="1064" y="-29"/>
      <point x="1345" y="23"/>
      <point x="1459" y="34" type="curve" smooth="yes"/>
      <point x="1552" y="43"/>
      <point x="1589" y="113"/>
      <point x="1589" y="170" type="curve" smooth="yes"/>
      <point x="1589" y="237"/>
      <point x="1500" y="272"/>
      <point x="1433" y="272" type="curve" smooth="yes"/>
      <point x="1277" y="272"/>
      <point x="1178" y="215"/>
      <point x="936" y="215" type="curve"/>
      <point x="934" y="223"/>
      <point x="988" y="553"/>
      <point x="1012" y="768" type="curve"/>
      <point x="1263" y="768" type="line" smooth="yes"/>
      <point x="1393" y="768"/>
      <point x="1422" y="817"/>
      <point x="1422" y="868" type="curve" smooth="yes"/>
      <point x="1422" y="972"/>
      <point x="1328" y="992"/>
    </contour>
  </outline>
</glyph>
<glyph name="yen" format="1">
  <advance width="1793"/>
  <unicode hex="00A5"/>
  <outline>
    <contour>
      <point x="1239" y="545" type="curve"/>
      <point x="1007" y="545" type="line"/>
      <point x="1042" y="641" type="line"/>
      <point x="1216" y="641" type="line" smooth="yes"/>
      <point x="1384" y="641"/>
      <point x="1408" y="694"/>
      <point x="1408" y="737" type="curve" smooth="yes"/>
      <point x="1408" y="790"/>
      <point x="1320" y="801"/>
      <point x="1266" y="801" type="curve" smooth="yes"/>
      <point x="1148" y="801" type="line"/>
      <point x="1349" y="1080"/>
      <point x="1543" y="1323"/>
      <point x="1615" y="1443" type="curve" smooth="yes"/>
      <point x="1647" y="1496"/>
      <point x="1660" y="1538"/>
      <point x="1660" y="1570" type="curve" smooth="yes"/>
      <point x="1660" y="1633"/>
      <point x="1610" y="1657"/>
      <point x="1555" y="1657" type="curve" smooth="yes"/>
      <point x="1502" y="1657"/>
      <point x="1446" y="1635"/>
      <point x="1423" y="1603" type="curve"/>
      <point x="1338" y="1472"/>
      <point x="1150" y="1175"/>
      <point x="940" y="869" type="curve"/>
      <point x="860" y="1316"/>
      <point x="757" y="1691"/>
      <point x="533" y="1691" type="curve" smooth="yes"/>
      <point x="417" y="1691"/>
      <point x="237" y="1589"/>
      <point x="78" y="1400" type="curve"/>
      <point x="191" y="1285"/>
      <point x="203" y="1279"/>
      <point x="203" y="1279" type="curve"/>
      <point x="329" y="1412"/>
      <point x="434" y="1472"/>
      <point x="480" y="1472" type="curve" smooth="yes"/>
      <point x="600" y="1472"/>
      <point x="679" y="1142"/>
      <point x="743" y="801" type="curve"/>
      <point x="594" y="801" type="line" smooth="yes"/>
      <point x="465" y="801"/>
      <point x="448" y="760"/>
      <point x="448" y="731" type="curve" smooth="yes"/>
      <point x="448" y="698"/>
      <point x="466" y="641"/>
      <point x="594" y="641" type="curve" smooth="yes"/>
      <point x="749" y="641" type="line"/>
      <point x="725" y="545" type="line"/>
      <point x="589" y="545" type="line" smooth="yes"/>
      <point x="464" y="545"/>
      <point x="448" y="504"/>
      <point x="448" y="475" type="curve" smooth="yes"/>
      <point x="448" y="442"/>
      <point x="466" y="385"/>
      <point x="589" y="385" type="curve" smooth="yes"/>
      <point x="683" y="385" type="line"/>
      <point x="649" y="265"/>
      <point x="619" y="187"/>
      <point x="600" y="187" type="curve" smooth="yes"/>
      <point x="588" y="187"/>
      <point x="577" y="189"/>
      <point x="567" y="195" type="curve"/>
      <point x="540" y="208"/>
      <point x="512" y="213"/>
      <point x="484" y="213" type="curve" smooth="yes"/>
      <point x="448" y="213"/>
      <point x="414" y="162"/>
      <point x="414" y="108" type="curve" smooth="yes"/>
      <point x="414" y="46"/>
      <point x="478" y="1"/>
      <point x="557" y="1" type="curve" smooth="yes"/>
      <point x="709" y="1"/>
      <point x="832" y="32"/>
      <point x="945" y="385" type="curve"/>
      <point x="1191" y="385" type="line" smooth="yes"/>
      <point x="1353" y="385"/>
      <point x="1376" y="438"/>
      <point x="1376" y="481" type="curve" smooth="yes"/>
      <point x="1376" y="534"/>
      <point x="1291" y="545"/>
    </contour>
  </outline>
</glyph>
<glyph name="section" format="1">
  <advance width="1440"/>
  <unicode hex="00A7"/>
  <outline>
    <contour>
      <point x="1228" y="625" type="curve" smooth="yes"/>
      <point x="1228" y="954"/>
      <point x="647" y="1032"/>
      <point x="647" y="1185" type="curve" smooth="yes"/>
      <point x="647" y="1233"/>
      <point x="697" y="1312"/>
      <point x="831" y="1312" type="curve" smooth="yes"/>
      <point x="955" y="1312"/>
      <point x="1068" y="1249"/>
      <point x="1068" y="1148" type="curve" smooth="yes"/>
      <point x="1068" y="1126"/>
      <point x="1058" y="1101"/>
      <point x="1058" y="1080" type="curve" smooth="yes"/>
      <point x="1058" y="1030"/>
      <point x="1099" y="999"/>
      <point x="1144" y="999" type="curve" smooth="yes"/>
      <point x="1197" y="999"/>
      <point x="1256" y="1043"/>
      <point x="1256" y="1151" type="curve" smooth="yes"/>
      <point x="1256" y="1353"/>
      <point x="1046" y="1491"/>
      <point x="860" y="1491" type="curve" smooth="yes"/>
      <point x="550" y="1491"/>
      <point x="396" y="1340"/>
      <point x="396" y="1197" type="curve" smooth="yes"/>
      <point x="396" y="1123"/>
      <point x="430" y="1063"/>
      <point x="481" y="1011" type="curve"/>
      <point x="380" y="949"/>
      <point x="332" y="865"/>
      <point x="332" y="782" type="curve" smooth="yes"/>
      <point x="332" y="470"/>
      <point x="892" y="454"/>
      <point x="892" y="210" type="curve" smooth="yes"/>
      <point x="892" y="113"/>
      <point x="783" y="62"/>
      <point x="687" y="62" type="curve" smooth="yes"/>
      <point x="556" y="62"/>
      <point x="435" y="113"/>
      <point x="435" y="224" type="curve" smooth="yes"/>
      <point x="435" y="285"/>
      <point x="453" y="325"/>
      <point x="453" y="357" type="curve" smooth="yes"/>
      <point x="453" y="391"/>
      <point x="418" y="408"/>
      <point x="370" y="408" type="curve" smooth="yes"/>
      <point x="311" y="408"/>
      <point x="224" y="344"/>
      <point x="224" y="223" type="curve" smooth="yes"/>
      <point x="224" y="-5"/>
      <point x="449" y="-117"/>
      <point x="681" y="-117" type="curve" smooth="yes"/>
      <point x="908" y="-117"/>
      <point x="1144" y="-7"/>
      <point x="1144" y="200" type="curve" smooth="yes"/>
      <point x="1144" y="269"/>
      <point x="1125" y="327"/>
      <point x="1093" y="376" type="curve"/>
      <point x="1176" y="439"/>
      <point x="1228" y="522"/>
    </contour>
    <contour>
      <point x="1006" y="625" type="curve" smooth="yes"/>
      <point x="1006" y="582"/>
      <point x="987" y="545"/>
      <point x="955" y="514" type="curve"/>
      <point x="782" y="630"/>
      <point x="555" y="687"/>
      <point x="555" y="787" type="curve" smooth="yes"/>
      <point x="555" y="829"/>
      <point x="576" y="872"/>
      <point x="619" y="908" type="curve"/>
      <point x="794" y="806"/>
      <point x="1006" y="736"/>
    </contour>
  </outline>
</glyph>
<glyph name="dieresis" format="1">
  <advance width="1025"/>
  <unicode hex="00A8"/>
  <outline>
    <contour>
      <point x="898" y="1306" type="curve" smooth="yes"/>
      <point x="898" y="1401"/>
      <point x="847" y="1454"/>
      <point x="753" y="1454" type="curve" smooth="yes"/>
      <point x="642" y="1454"/>
      <point x="595" y="1368"/>
      <point x="595" y="1280" type="curve" smooth="yes"/>
      <point x="595" y="1175"/>
      <point x="653" y="1132"/>
      <point x="736" y="1132" type="curve" smooth="yes"/>
      <point x="895" y="1132"/>
      <point x="898" y="1290"/>
    </contour>
    <contour>
      <point x="431" y="1306" type="curve" smooth="yes"/>
      <point x="431" y="1401"/>
      <point x="379" y="1454"/>
      <point x="286" y="1454" type="curve" smooth="yes"/>
      <point x="174" y="1454"/>
      <point x="128" y="1368"/>
      <point x="128" y="1280" type="curve" smooth="yes"/>
      <point x="128" y="1175"/>
      <point x="184" y="1132"/>
      <point x="269" y="1132" type="curve" smooth="yes"/>
      <point x="427" y="1132"/>
      <point x="431" y="1290"/>
    </contour>
  </outline>
</glyph>
<glyph name="copyright" format="1">
  <advance width="1792"/>
  <unicode hex="00A9"/>
  <outline>
    <contour>
      <point x="834" y="32" type="curve" smooth="yes"/>
      <point x="1337" y="32"/>
      <point x="1626" y="458"/>
      <point x="1626" y="838" type="curve" smooth="yes"/>
      <point x="1626" y="1143"/>
      <point x="1446" y="1440"/>
      <point x="989" y="1440" type="curve" smooth="yes"/>
      <point x="414" y="1440"/>
      <point x="107" y="1033"/>
      <point x="107" y="657" type="curve" smooth="yes"/>
      <point x="107" y="334"/>
      <point x="343" y="32"/>
    </contour>
    <contour>
      <point x="838" y="192" type="curve" smooth="yes"/>
      <point x="464" y="192"/>
      <point x="292" y="406"/>
      <point x="292" y="646" type="curve" smooth="yes"/>
      <point x="292" y="945"/>
      <point x="531" y="1278"/>
      <point x="953" y="1278" type="curve" smooth="yes"/>
      <point x="1302" y="1278"/>
      <point x="1441" y="1072"/>
      <point x="1441" y="833" type="curve" smooth="yes"/>
      <point x="1441" y="541"/>
      <point x="1236" y="192"/>
    </contour>
    <contour>
      <point x="830" y="323" type="curve" smooth="yes"/>
      <point x="1000" y="323"/>
      <point x="1146" y="440"/>
      <point x="1146" y="440" type="curve"/>
      <point x="1164" y="450"/>
      <point x="1172" y="472"/>
      <point x="1172" y="495" type="curve" smooth="yes"/>
      <point x="1172" y="538"/>
      <point x="1145" y="587"/>
      <point x="1113" y="587" type="curve" smooth="yes"/>
      <point x="1107" y="587"/>
      <point x="1101" y="585"/>
      <point x="1095" y="582" type="curve" smooth="yes"/>
      <point x="1040" y="548"/>
      <point x="939" y="496"/>
      <point x="876" y="496" type="curve" smooth="yes"/>
      <point x="766" y="496"/>
      <point x="739" y="594"/>
      <point x="739" y="677" type="curve" smooth="yes"/>
      <point x="739" y="729"/>
      <point x="755" y="986"/>
      <point x="916" y="986" type="curve" smooth="yes"/>
      <point x="934" y="986"/>
      <point x="939" y="968"/>
      <point x="939" y="943" type="curve" smooth="yes"/>
      <point x="939" y="920"/>
      <point x="933" y="883"/>
      <point x="933" y="858" type="curve" smooth="yes"/>
      <point x="933" y="811"/>
      <point x="946" y="784"/>
      <point x="998" y="784" type="curve" smooth="yes"/>
      <point x="1076" y="784"/>
      <point x="1126" y="875"/>
      <point x="1126" y="959" type="curve" smooth="yes"/>
      <point x="1126" y="1072"/>
      <point x="1032" y="1158"/>
      <point x="898" y="1158" type="curve" smooth="yes"/>
      <point x="648" y="1158"/>
      <point x="509" y="871"/>
      <point x="509" y="672" type="curve" smooth="yes"/>
      <point x="509" y="486"/>
      <point x="617" y="323"/>
    </contour>
  </outline>
</glyph>
<glyph name="ordfeminine" format="1">
  <advance width="928"/>
  <unicode hex="00AA"/>
  <outline>
    <contour>
      <point x="1024" y="1016" type="curve"/>
      <point x="983" y="1207" type="line"/>
      <point x="983" y="1207"/>
      <point x="834" y="997"/>
      <point x="739" y="997" type="curve" smooth="yes"/>
      <point x="707" y="997"/>
      <point x="701" y="1030"/>
      <point x="701" y="1084" type="curve" smooth="yes"/>
      <point x="701" y="1210"/>
      <point x="756" y="1376"/>
      <point x="756" y="1487" type="curve" smooth="yes"/>
      <point x="756" y="1611"/>
      <point x="667" y="1549"/>
      <point x="612" y="1573" type="curve" smooth="yes"/>
      <point x="583" y="1585"/>
      <point x="582" y="1632"/>
      <point x="530" y="1632" type="curve" smooth="yes"/>
      <point x="292" y="1632"/>
      <point x="64" y="1306"/>
      <point x="64" y="1047" type="curve" smooth="yes"/>
      <point x="64" y="893"/>
      <point x="170" y="802"/>
      <point x="281" y="802" type="curve" smooth="yes"/>
      <point x="385" y="802"/>
      <point x="494" y="879"/>
      <point x="551" y="943" type="curve"/>
      <point x="588" y="850"/>
      <point x="636" y="799"/>
      <point x="712" y="799" type="curve" smooth="yes"/>
      <point x="839" y="799"/>
      <point x="972" y="941"/>
    </contour>
    <contour>
      <point x="285" y="1084" type="curve" smooth="yes"/>
      <point x="285" y="1236"/>
      <point x="413" y="1467"/>
      <point x="554" y="1467" type="curve"/>
      <point x="501" y="1213" type="line"/>
      <point x="493" y="1140"/>
      <point x="439" y="969"/>
      <point x="353" y="969" type="curve" smooth="yes"/>
      <point x="299" y="969"/>
      <point x="285" y="1026"/>
    </contour>
  </outline>
</glyph>
<glyph name="twosuperior" format="1">
  <advance width="992"/>
  <unicode hex="00B2"/>
  <outline>
    <contour>
      <point x="765" y="609" type="curve" smooth="yes"/>
      <point x="874" y="609"/>
      <point x="916" y="688"/>
      <point x="927" y="748" type="curve" smooth="yes"/>
      <point x="937" y="802"/>
      <point x="947" y="835"/>
      <point x="947" y="854" type="curve" smooth="yes"/>
      <point x="947" y="876"/>
      <point x="934" y="881"/>
      <point x="895" y="881" type="curve" smooth="yes"/>
      <point x="878" y="881"/>
      <point x="828" y="796"/>
      <point x="796" y="796" type="curve" smooth="yes"/>
      <point x="743" y="796"/>
      <point x="698" y="805"/>
      <point x="657" y="821" type="curve"/>
      <point x="770" y="953"/>
      <point x="834" y="1115"/>
      <point x="834" y="1206" type="curve" smooth="yes"/>
      <point x="834" y="1496"/>
      <point x="547" y="1535"/>
      <point x="464" y="1535" type="curve" smooth="yes"/>
      <point x="249" y="1535"/>
      <point x="78" y="1398"/>
      <point x="78" y="1271" type="curve" smooth="yes"/>
      <point x="78" y="1221"/>
      <point x="101" y="1175"/>
      <point x="150" y="1137" type="curve"/>
      <point x="156" y="1137"/>
      <point x="167" y="1137"/>
      <point x="175" y="1127" type="curve"/>
      <point x="271" y="1127"/>
      <point x="412" y="1168"/>
      <point x="412" y="1195" type="curve" smooth="yes"/>
      <point x="412" y="1198"/>
      <point x="410" y="1200"/>
      <point x="409" y="1202" type="curve"/>
      <point x="348" y="1227"/>
      <point x="323" y="1248"/>
      <point x="323" y="1268" type="curve" smooth="yes"/>
      <point x="323" y="1325"/>
      <point x="380" y="1364"/>
      <point x="445" y="1364" type="curve" smooth="yes"/>
      <point x="501" y="1364"/>
      <point x="570" y="1336"/>
      <point x="570" y="1191" type="curve" smooth="yes"/>
      <point x="570" y="1100"/>
      <point x="522" y="999"/>
      <point x="461" y="920" type="curve"/>
      <point x="395" y="951"/>
      <point x="321" y="976"/>
      <point x="220" y="976" type="curve" smooth="yes"/>
      <point x="90" y="976"/>
      <point x="37" y="870"/>
      <point x="37" y="789" type="curve" smooth="yes"/>
      <point x="37" y="696"/>
      <point x="141" y="609"/>
      <point x="276" y="609" type="curve"/>
      <point x="370" y="615"/>
      <point x="455" y="650"/>
      <point x="528" y="702" type="curve"/>
      <point x="605" y="653"/>
      <point x="687" y="609"/>
    </contour>
    <contour>
      <point x="263" y="774" type="curve" smooth="yes"/>
      <point x="235" y="774"/>
      <point x="207" y="794"/>
      <point x="207" y="813" type="curve" smooth="yes"/>
      <point x="207" y="827"/>
      <point x="228" y="838"/>
      <point x="279" y="838" type="curve" smooth="yes"/>
      <point x="300" y="838"/>
      <point x="326" y="828"/>
      <point x="354" y="813" type="curve"/>
      <point x="320" y="788"/>
      <point x="288" y="774"/>
    </contour>
  </outline>
</glyph>
<glyph name="mu" format="1">
  <advance width="962"/>
  <unicode hex="00B5"/>
  <outline>
    <contour>
      <point x="876" y="895" type="curve" smooth="yes"/>
      <point x="876" y="932"/>
      <point x="832" y="959"/>
      <point x="765" y="959" type="curve" smooth="yes"/>
      <point x="706" y="959"/>
      <point x="650" y="934"/>
      <point x="644" y="902" type="curve" smooth="yes"/>
      <point x="545" y="394" type="line" smooth="yes"/>
      <point x="524" y="288"/>
      <point x="454" y="225"/>
      <point x="396" y="225" type="curve" smooth="yes"/>
      <point x="356" y="225"/>
      <point x="338" y="271"/>
      <point x="338" y="318" type="curve" smooth="yes"/>
      <point x="338" y="323"/>
      <point x="399" y="704"/>
      <point x="435" y="917" type="curve" smooth="yes"/>
      <point x="435" y="920" type="line" smooth="yes"/>
      <point x="435" y="941"/>
      <point x="401" y="957"/>
      <point x="336" y="959" type="curve"/>
      <point x="207" y="957"/>
      <point x="202" y="928"/>
      <point x="181" y="842" type="curve" smooth="yes"/>
      <point x="140" y="674"/>
      <point x="32" y="64"/>
      <point x="32" y="-128" type="curve" smooth="yes"/>
      <point x="32" y="-214"/>
      <point x="58" y="-256"/>
      <point x="128" y="-256" type="curve" smooth="yes"/>
      <point x="266" y="-256"/>
      <point x="268" y="-147"/>
      <point x="293" y="72" type="curve"/>
      <point x="311" y="64"/>
      <point x="330" y="60"/>
      <point x="350" y="60" type="curve" smooth="yes"/>
      <point x="428" y="60"/>
      <point x="512" y="120"/>
      <point x="577" y="215" type="curve"/>
      <point x="604" y="93"/>
      <point x="644" y="10"/>
      <point x="745" y="10" type="curve" smooth="yes"/>
      <point x="899" y="10"/>
      <point x="1129" y="147"/>
      <point x="1216" y="234" type="curve"/>
      <point x="1216" y="319"/>
      <point x="1214" y="365"/>
      <point x="1214" y="454" type="curve"/>
      <point x="1148" y="366"/>
      <point x="934" y="223"/>
      <point x="845" y="223" type="curve" smooth="yes"/>
      <point x="792" y="223"/>
      <point x="792" y="277"/>
      <point x="792" y="352" type="curve" smooth="yes"/>
      <point x="792" y="411"/>
      <point x="876" y="787"/>
    </contour>
  </outline>
</glyph>
<glyph name="paragraph" format="1">
  <advance width="1308"/>
  <unicode hex="00B6"/>
  <outline>
    <contour>
      <point x="914" y="127" type="curve"/>
      <point x="911" y="116"/>
      <point x="910" y="105"/>
      <point x="910" y="95" type="curve" smooth="yes"/>
      <point x="910" y="34"/>
      <point x="957" y="0"/>
      <point x="1011" y="0" type="curve" smooth="yes"/>
      <point x="1069" y="0"/>
      <point x="1136" y="39"/>
      <point x="1161" y="126" type="curve" smooth="yes"/>
      <point x="1210" y="300"/>
      <point x="1368" y="1309"/>
      <point x="1405" y="1472" type="curve" smooth="yes"/>
      <point x="1409" y="1489"/>
      <point x="1411" y="1504"/>
      <point x="1411" y="1519" type="curve" smooth="yes"/>
      <point x="1411" y="1648"/>
      <point x="1277" y="1696"/>
      <point x="1277" y="1696" type="curve"/>
      <point x="1277" y="1696"/>
      <point x="1175" y="1743"/>
      <point x="860" y="1743" type="curve" smooth="yes"/>
      <point x="448" y="1743"/>
      <point x="96" y="1535"/>
      <point x="96" y="1295" type="curve" smooth="yes"/>
      <point x="96" y="1120"/>
      <point x="239" y="926"/>
      <point x="595" y="926" type="curve" smooth="yes"/>
      <point x="595" y="926"/>
      <point x="479" y="171"/>
      <point x="471" y="114" type="curve"/>
      <point x="467" y="102"/>
      <point x="465" y="91"/>
      <point x="465" y="81" type="curve" smooth="yes"/>
      <point x="465" y="21"/>
      <point x="527" y="-8"/>
      <point x="589" y="-8" type="curve" smooth="yes"/>
      <point x="643" y="-8"/>
      <point x="697" y="13"/>
      <point x="712" y="55" type="curve"/>
      <point x="771" y="374"/>
      <point x="870" y="914"/>
      <point x="870" y="914" type="curve"/>
      <point x="925" y="922"/>
      <point x="991" y="926"/>
      <point x="1039" y="931" type="curve"/>
      <point x="1000" y="722"/>
      <point x="965" y="420"/>
    </contour>
  </outline>
</glyph>
<glyph name="cedilla" format="1">
  <advance width="1184"/>
  <unicode hex="00B8"/>
  <outline>
    <contour>
      <point x="684" y="46" type="curve" smooth="yes"/>
      <point x="685" y="51"/>
      <point x="686" y="56"/>
      <point x="686" y="61" type="curve" smooth="yes"/>
      <point x="686" y="86"/>
      <point x="665" y="96"/>
      <point x="640" y="96" type="curve" smooth="yes"/>
      <point x="613" y="96"/>
      <point x="586" y="73"/>
      <point x="576" y="46" type="curve"/>
      <point x="458" y="-153"/>
      <point x="362" y="-281"/>
      <point x="362" y="-392" type="curve" smooth="yes"/>
      <point x="362" y="-473"/>
      <point x="414" y="-511"/>
      <point x="473" y="-511" type="curve" smooth="yes"/>
      <point x="543" y="-511"/>
      <point x="622" y="-458"/>
      <point x="636" y="-360" type="curve" smooth="yes"/>
      <point x="652" y="-245"/>
      <point x="645" y="-368"/>
    </contour>
  </outline>
</glyph>
<glyph name="onesuperior" format="1">
  <advance width="704"/>
  <unicode hex="00B9"/>
  <outline>
    <contour>
      <point x="365" y="1406" type="line"/>
      <point x="365" y="1406"/>
      <point x="299" y="1095"/>
      <point x="246" y="837" type="curve"/>
      <point x="247" y="837" type="line"/>
      <point x="244" y="822"/>
      <point x="242" y="811"/>
      <point x="242" y="800" type="curve" smooth="yes"/>
      <point x="242" y="732"/>
      <point x="291" y="704"/>
      <point x="361" y="704" type="curve" smooth="yes"/>
      <point x="461" y="704"/>
      <point x="482" y="821"/>
      <point x="490" y="859" type="curve" smooth="yes"/>
      <point x="489" y="857" type="line"/>
      <point x="492" y="865" type="line"/>
      <point x="592" y="1367"/>
      <point x="608" y="1494"/>
      <point x="608" y="1497" type="curve" smooth="yes"/>
      <point x="608" y="1564"/>
      <point x="546" y="1600"/>
      <point x="486" y="1600" type="curve" smooth="yes"/>
      <point x="462" y="1600"/>
      <point x="435" y="1597"/>
      <point x="411" y="1590" type="curve" smooth="yes"/>
      <point x="112" y="1503"/>
      <point x="55" y="1514"/>
      <point x="55" y="1440" type="curve" smooth="yes"/>
      <point x="55" y="1395"/>
      <point x="93" y="1347"/>
      <point x="136" y="1347" type="curve" smooth="yes"/>
      <point x="142" y="1347"/>
      <point x="148" y="1348"/>
      <point x="155" y="1350" type="curve" smooth="yes"/>
      <point x="151" y="1349" type="line"/>
      <point x="152" y="1349"/>
      <point x="152" y="1350"/>
      <point x="153" y="1350" type="curve"/>
    </contour>
  </outline>
</glyph>
<glyph name="ordmasculine" format="1">
  <advance width="799"/>
  <unicode hex="00BA"/>
  <outline>
    <contour>
      <point x="483" y="1631" type="curve" smooth="yes"/>
      <point x="264" y="1631"/>
      <point x="70" y="1432"/>
      <point x="70" y="1179" type="curve" smooth="yes"/>
      <point x="70" y="995"/>
      <point x="153" y="801"/>
      <point x="355" y="801" type="curve" smooth="yes"/>
      <point x="591" y="801"/>
      <point x="723" y="1069"/>
      <point x="723" y="1301" type="curve" smooth="yes"/>
      <point x="723" y="1476"/>
      <point x="647" y="1631"/>
    </contour>
    <contour>
      <point x="383" y="967" type="curve" smooth="yes"/>
      <point x="292" y="967"/>
      <point x="258" y="1047"/>
      <point x="258" y="1143" type="curve" smooth="yes"/>
      <point x="258" y="1284"/>
      <point x="338" y="1465"/>
      <point x="433" y="1465" type="curve" smooth="yes"/>
      <point x="504" y="1465"/>
      <point x="534" y="1383"/>
      <point x="534" y="1277" type="curve" smooth="yes"/>
      <point x="534" y="1143"/>
      <point x="463" y="967"/>
    </contour>
  </outline>
</glyph>
<glyph name="guillemotright" format="1">
  <advance width="1440"/>
  <unicode hex="00BB"/>
  <outline>
    <contour>
      <point x="975" y="87" type="curve"/>
      <point x="1179" y="208"/>
      <point x="1252" y="296"/>
      <point x="1345" y="385" type="curve" smooth="yes"/>
      <point x="1398" y="435"/>
      <point x="1421" y="485"/>
      <point x="1421" y="533" type="curve" smooth="yes"/>
      <point x="1421" y="624"/>
      <point x="1338" y="708"/>
      <point x="1231" y="778" type="curve" smooth="yes"/>
      <point x="1217" y="787"/>
      <point x="944" y="983"/>
      <point x="933" y="988" type="curve" smooth="yes"/>
      <point x="915" y="996"/>
      <point x="896" y="999"/>
      <point x="880" y="999" type="curve" smooth="yes"/>
      <point x="817" y="999"/>
      <point x="768" y="952"/>
      <point x="768" y="896" type="curve" smooth="yes"/>
      <point x="768" y="855"/>
      <point x="802" y="819"/>
      <point x="867" y="773" type="curve" smooth="yes"/>
      <point x="1193" y="544" type="line"/>
      <point x="924" y="313" type="line" smooth="yes"/>
      <point x="891" y="285"/>
      <point x="799" y="238"/>
      <point x="799" y="158" type="curve" smooth="yes"/>
      <point x="799" y="124"/>
      <point x="842" y="73"/>
      <point x="911" y="73" type="curve" smooth="yes"/>
      <point x="930" y="73"/>
      <point x="951" y="77"/>
    </contour>
    <contour>
      <point x="399" y="87" type="curve"/>
      <point x="603" y="208"/>
      <point x="676" y="296"/>
      <point x="769" y="385" type="curve" smooth="yes"/>
      <point x="822" y="435"/>
      <point x="845" y="485"/>
      <point x="845" y="533" type="curve" smooth="yes"/>
      <point x="845" y="624"/>
      <point x="762" y="708"/>
      <point x="655" y="778" type="curve" smooth="yes"/>
      <point x="641" y="787"/>
      <point x="368" y="983"/>
      <point x="357" y="988" type="curve" smooth="yes"/>
      <point x="339" y="996"/>
      <point x="320" y="999"/>
      <point x="304" y="999" type="curve" smooth="yes"/>
      <point x="241" y="999"/>
      <point x="192" y="952"/>
      <point x="192" y="896" type="curve" smooth="yes"/>
      <point x="192" y="855"/>
      <point x="226" y="819"/>
      <point x="291" y="773" type="curve" smooth="yes"/>
      <point x="617" y="544" type="line"/>
      <point x="348" y="313" type="line" smooth="yes"/>
      <point x="315" y="285"/>
      <point x="223" y="238"/>
      <point x="223" y="158" type="curve" smooth="yes"/>
      <point x="223" y="124"/>
      <point x="266" y="73"/>
      <point x="335" y="73" type="curve" smooth="yes"/>
      <point x="354" y="73"/>
      <point x="375" y="77"/>
    </contour>
  </outline>
</glyph>
<glyph name="onequarter" format="1">
  <advance width="1759"/>
  <unicode hex="00BC"/>
  <outline>
    <contour>
      <point x="992" y="1408" type="curve" smooth="yes"/>
      <point x="856" y="1184"/>
      <point x="494" y="526"/>
      <point x="431" y="420" type="curve" smooth="yes"/>
      <point x="409" y="383"/>
      <point x="400" y="350"/>
      <point x="400" y="323" type="curve" smooth="yes"/>
      <point x="400" y="265"/>
      <point x="441" y="231"/>
      <point x="488" y="231" type="curve" smooth="yes"/>
      <point x="523" y="231"/>
      <point x="563" y="250"/>
      <point x="590" y="294" type="curve" smooth="yes"/>
      <point x="864" y="736"/>
      <point x="1047" y="1089"/>
      <point x="1164" y="1288" type="curve" smooth="yes"/>
      <point x="1192" y="1335"/>
      <point x="1202" y="1375"/>
      <point x="1202" y="1402" type="curve" smooth="yes"/>
      <point x="1202" y="1452"/>
      <point x="1166" y="1472"/>
      <point x="1123" y="1472" type="curve" smooth="yes"/>
      <point x="1074" y="1472"/>
      <point x="1014" y="1445"/>
    </contour>
    <component base="onesuperior"/>
    <component base="four" xScale="0.926102519035" yScale="0.886964440346" xOffset="841" yOffset="-5"/>
  </outline>
</glyph>
<glyph name="questiondown" format="1">
  <advance width="1292"/>
  <unicode hex="00BF"/>
  <outline>
    <contour>
      <point x="844" y="1018" type="curve"/>
      <point x="726" y="784"/>
      <point x="394" y="761"/>
      <point x="394" y="338" type="curve" smooth="yes"/>
      <point x="394" y="102"/>
      <point x="609" y="0"/>
      <point x="772" y="0" type="curve" smooth="yes"/>
      <point x="904" y="0"/>
      <point x="1052" y="65"/>
      <point x="1131" y="186" type="curve" smooth="yes"/>
      <point x="1141" y="201"/>
      <point x="1146" y="218"/>
      <point x="1146" y="232" type="curve" smooth="yes"/>
      <point x="1146" y="295"/>
      <point x="1099" y="347"/>
      <point x="1048" y="347" type="curve" smooth="yes"/>
      <point x="1026" y="347"/>
      <point x="1000" y="337"/>
      <point x="981" y="312" type="curve" smooth="yes"/>
      <point x="937" y="254"/>
      <point x="845" y="192"/>
      <point x="771" y="192" type="curve" smooth="yes"/>
      <point x="695" y="192"/>
      <point x="638" y="230"/>
      <point x="638" y="357" type="curve" smooth="yes"/>
      <point x="638" y="654"/>
      <point x="1035" y="690"/>
      <point x="1035" y="1052" type="curve" smooth="yes"/>
      <point x="1035" y="1097"/>
      <point x="994" y="1116"/>
      <point x="947" y="1116" type="curve" smooth="yes"/>
      <point x="903" y="1116"/>
      <point x="864" y="1081"/>
    </contour>
    <contour>
      <point x="809" y="1411" type="curve" smooth="yes"/>
      <point x="809" y="1308"/>
      <point x="868" y="1249"/>
      <point x="978" y="1249" type="curve" smooth="yes"/>
      <point x="1107" y="1249"/>
      <point x="1161" y="1343"/>
      <point x="1161" y="1440" type="curve" smooth="yes"/>
      <point x="1161" y="1554"/>
      <point x="1095" y="1602"/>
      <point x="997" y="1602" type="curve" smooth="yes"/>
      <point x="812" y="1602"/>
      <point x="809" y="1428"/>
    </contour>
  </outline>
</glyph>
<glyph name="Thorn" format="1">
  <advance width="1216"/>
  <unicode hex="00DE"/>
  <outline>
    <contour>
      <point x="907" y="393" type="curve"/>
      <point x="1326" y="443"/>
      <point x="1526" y="643"/>
      <point x="1526" y="847" type="curve" smooth="yes"/>
      <point x="1526" y="1095"/>
      <point x="1347" y="1331"/>
      <point x="993" y="1380" type="curve"/>
      <point x="1008" y="1515" type="line"/>
      <point x="1079" y="1855" type="line"/>
      <point x="1079" y="1860"/>
      <point x="1080" y="1862"/>
      <point x="1080" y="1871" type="curve" smooth="yes"/>
      <point x="1080" y="1937"/>
      <point x="1031" y="1954"/>
      <point x="992" y="1954" type="curve" smooth="yes"/>
      <point x="802" y="1954"/>
      <point x="761" y="1616"/>
      <point x="756" y="1489" type="curve" smooth="yes"/>
      <point x="756" y="1483"/>
      <point x="752" y="1442"/>
      <point x="746" y="1383" type="curve"/>
      <point x="354" y="1330"/>
      <point x="94" y="980"/>
      <point x="94" y="457" type="curve" smooth="yes"/>
      <point x="94" y="133"/>
      <point x="178" y="-355"/>
      <point x="430" y="-355" type="curve" smooth="yes"/>
      <point x="740" y="-355"/>
      <point x="832" y="-160"/>
    </contour>
    <contour>
      <point x="362" y="483" type="curve" smooth="yes"/>
      <point x="362" y="793"/>
      <point x="467" y="1082"/>
      <point x="723" y="1143" type="curve"/>
      <point x="700" y="898"/>
      <point x="672" y="614"/>
      <point x="672" y="608" type="curve" smooth="yes"/>
      <point x="672" y="608"/>
      <point x="641" y="611"/>
      <point x="603" y="617" type="curve"/>
      <point x="586" y="626"/>
      <point x="576" y="632"/>
      <point x="563" y="632" type="curve" smooth="yes"/>
      <point x="524" y="632"/>
      <point x="520" y="583"/>
      <point x="520" y="535" type="curve" smooth="yes"/>
      <point x="520" y="476"/>
      <point x="529" y="457"/>
      <point x="659" y="401" type="curve"/>
      <point x="659" y="293"/>
      <point x="609" y="-121"/>
      <point x="452" y="-121" type="curve" smooth="yes"/>
      <point x="358" y="-121"/>
      <point x="362" y="339"/>
    </contour>
    <contour>
      <point x="1291" y="824" type="curve" smooth="yes"/>
      <point x="1291" y="735"/>
      <point x="1174" y="655"/>
      <point x="913" y="628" type="curve"/>
      <point x="968" y="1144" type="line"/>
      <point x="1215" y="1103"/>
      <point x="1291" y="950"/>
    </contour>
  </outline>
</glyph>
<glyph name="eth" format="1">
  <advance width="1089"/>
  <unicode hex="00F0"/>
  <outline>
    <contour>
      <point x="426" y="1506" type="curve" smooth="yes"/>
      <point x="558" y="1506"/>
      <point x="666" y="1466"/>
      <point x="743" y="1384" type="curve"/>
      <point x="577" y="1313" type="line" smooth="yes"/>
      <point x="526" y="1291"/>
      <point x="511" y="1262"/>
      <point x="511" y="1236" type="curve" smooth="yes"/>
      <point x="511" y="1213"/>
      <point x="537" y="1126"/>
      <point x="609" y="1126" type="curve" smooth="yes"/>
      <point x="622" y="1126"/>
      <point x="637" y="1129"/>
      <point x="653" y="1136" type="curve" smooth="yes"/>
      <point x="717" y="1164"/>
      <point x="778" y="1191"/>
      <point x="837" y="1216" type="curve"/>
      <point x="860" y="1146"/>
      <point x="872" y="1064"/>
      <point x="872" y="968" type="curve" smooth="yes"/>
      <point x="872" y="961" type="line"/>
      <point x="811" y="980"/>
      <point x="736" y="991"/>
      <point x="645" y="991" type="curve" smooth="yes"/>
      <point x="370" y="991"/>
      <point x="64" y="683"/>
      <point x="64" y="416" type="curve" smooth="yes"/>
      <point x="64" y="122"/>
      <point x="302" y="0"/>
      <point x="510" y="0" type="curve" smooth="yes"/>
      <point x="874" y="0"/>
      <point x="1126" y="432"/>
      <point x="1126" y="958" type="curve" smooth="yes"/>
      <point x="1126" y="1084"/>
      <point x="1104" y="1206"/>
      <point x="1062" y="1314" type="curve"/>
      <point x="1182" y="1366" type="line" smooth="yes"/>
      <point x="1247" y="1394"/>
      <point x="1267" y="1431"/>
      <point x="1267" y="1466" type="curve" smooth="yes"/>
      <point x="1267" y="1535"/>
      <point x="1223" y="1567"/>
      <point x="1187" y="1567" type="curve" smooth="yes"/>
      <point x="1168" y="1567"/>
      <point x="1150" y="1561"/>
      <point x="1136" y="1555" type="curve" smooth="yes"/>
      <point x="971" y="1483" type="line"/>
      <point x="863" y="1633"/>
      <point x="701" y="1729"/>
      <point x="491" y="1729" type="curve" smooth="yes"/>
      <point x="384" y="1729"/>
      <point x="346" y="1673"/>
      <point x="346" y="1618" type="curve" smooth="yes"/>
      <point x="346" y="1562"/>
      <point x="384" y="1506"/>
    </contour>
    <contour>
      <point x="542" y="192" type="curve" smooth="yes"/>
      <point x="358" y="192"/>
      <point x="290" y="297"/>
      <point x="290" y="416" type="curve" smooth="yes"/>
      <point x="290" y="606"/>
      <point x="490" y="767"/>
      <point x="661" y="767" type="curve" smooth="yes"/>
      <point x="746" y="767"/>
      <point x="803" y="750"/>
      <point x="847" y="729" type="curve"/>
      <point x="798" y="474"/>
      <point x="684" y="192"/>
    </contour>
  </outline>
</glyph>
<glyph name="oslash" format="1">
  <advance width="873"/>
  <unicode hex="00F8"/>
  <outline>
    <contour>
      <point x="750" y="760" type="line"/>
      <point x="845" y="696"/>
      <point x="1035" y="562"/>
      <point x="1108" y="465" type="curve"/>
      <point x="1127" y="606" type="line"/>
      <point x="1005" y="760"/>
      <point x="851" y="907"/>
      <point x="653" y="948" type="curve"/>
      <point x="680" y="1043" type="line" smooth="yes"/>
      <point x="688" y="1071"/>
      <point x="704" y="1130"/>
      <point x="704" y="1145" type="curve" smooth="yes"/>
      <point x="704" y="1174"/>
      <point x="704" y="1216"/>
      <point x="674" y="1216" type="curve" smooth="yes"/>
      <point x="566" y="1216"/>
      <point x="544" y="1069"/>
      <point x="514" y="959" type="curve"/>
      <point x="233" y="945"/>
      <point x="64" y="720"/>
      <point x="64" y="437" type="curve" smooth="yes"/>
      <point x="64" y="273"/>
      <point x="121" y="103"/>
      <point x="254" y="33" type="curve"/>
      <point x="232" y="-38"/>
      <point x="224" y="-81"/>
      <point x="224" y="-114" type="curve" smooth="yes"/>
      <point x="224" y="-175"/>
      <point x="252" y="-180"/>
      <point x="279" y="-180" type="curve" smooth="yes"/>
      <point x="305" y="-180"/>
      <point x="335" y="-172"/>
      <point x="360" y="-108" type="curve"/>
      <point x="394" y="0" type="line"/>
      <point x="640" y="0"/>
      <point x="800" y="267"/>
      <point x="800" y="503" type="curve" smooth="yes"/>
      <point x="800" y="581"/>
      <point x="780" y="672"/>
      <point x="742" y="749" type="curve"/>
    </contour>
    <contour>
      <point x="311" y="237" type="line"/>
      <point x="274" y="275"/>
      <point x="258" y="332"/>
      <point x="258" y="396" type="curve" smooth="yes"/>
      <point x="258" y="545"/>
      <point x="348" y="732"/>
      <point x="459" y="763" type="curve"/>
    </contour>
    <contour>
      <point x="593" y="719" type="curve"/>
      <point x="624" y="680"/>
      <point x="638" y="620"/>
      <point x="638" y="551" type="curve" smooth="yes"/>
      <point x="638" y="404"/>
      <point x="550" y="214"/>
      <point x="450" y="194" type="curve"/>
      <point x="506" y="389"/>
      <point x="553" y="568"/>
    </contour>
  </outline>
</glyph>
<glyph name="thorn" format="1">
  <advance width="1023"/>
  <unicode hex="00FE"/>
  <outline>
    <contour>
      <point x="486" y="1376" type="line"/>
      <point x="490" y="1385"/>
      <point x="576" y="1397"/>
      <point x="576" y="1408" type="curve" smooth="yes"/>
      <point x="576" y="1473"/>
      <point x="427" y="1561"/>
      <point x="367" y="1561" type="curve" smooth="yes"/>
      <point x="335" y="1561"/>
      <point x="301" y="1538"/>
      <point x="288" y="1472" type="curve" smooth="yes"/>
      <point x="224" y="1152"/>
      <point x="153" y="811"/>
      <point x="153" y="809" type="curve" smooth="yes"/>
      <point x="21" y="48"/>
      <point x="26" y="116"/>
      <point x="-62" y="-508" type="curve" smooth="yes"/>
      <point x="-65" y="-528"/>
      <point x="-66" y="-547"/>
      <point x="-66" y="-563" type="curve" smooth="yes"/>
      <point x="-66" y="-633"/>
      <point x="-31" y="-692"/>
      <point x="20" y="-692" type="curve" smooth="yes"/>
      <point x="30" y="-692"/>
      <point x="41" y="-693"/>
      <point x="53" y="-693" type="curve" smooth="yes"/>
      <point x="88" y="-693"/>
      <point x="128" y="-685"/>
      <point x="144" y="-615" type="curve"/>
      <point x="268" y="50" type="line"/>
      <point x="346" y="22"/>
      <point x="436" y="0"/>
      <point x="522" y="0" type="curve" smooth="yes"/>
      <point x="547" y="0" type="line"/>
      <point x="547" y="0"/>
      <point x="677" y="50"/>
      <point x="723" y="96" type="curve"/>
      <point x="911" y="140"/>
      <point x="1050" y="197"/>
      <point x="1197" y="331" type="curve"/>
      <point x="1120" y="496" type="line"/>
      <point x="1014" y="389"/>
      <point x="916" y="344"/>
      <point x="819" y="288" type="curve"/>
      <point x="899" y="410"/>
      <point x="915" y="514"/>
      <point x="915" y="649" type="curve" smooth="yes"/>
      <point x="915" y="811"/>
      <point x="823" y="960"/>
      <point x="666" y="960" type="curve" smooth="yes"/>
      <point x="581" y="960"/>
      <point x="497" y="898"/>
      <point x="391" y="805" type="curve"/>
    </contour>
    <contour>
      <point x="561" y="732" type="curve" smooth="yes"/>
      <point x="666" y="732"/>
      <point x="691" y="673"/>
      <point x="691" y="607" type="curve" smooth="yes"/>
      <point x="691" y="454"/>
      <point x="633" y="192"/>
      <point x="495" y="192" type="curve" smooth="yes"/>
      <point x="420" y="192"/>
      <point x="307" y="225"/>
      <point x="307" y="225" type="curve"/>
      <point x="307" y="225"/>
      <point x="316" y="339"/>
      <point x="339" y="480" type="curve" smooth="yes"/>
      <point x="368" y="658"/>
      <point x="467" y="732"/>
    </contour>
  </outline>
</glyph>
<glyph name="Lslash" format="1">
  <advance width="992"/>
  <unicode hex="0141"/>
  <outline>
    <contour>
      <point x="5" y="986" type="curve"/>
      <point x="-60" y="971"/>
      <point x="-75" y="938"/>
      <point x="-75" y="908" type="curve" smooth="yes"/>
      <point x="-75" y="881"/>
      <point x="-58" y="795"/>
      <point x="19" y="795" type="curve" smooth="yes"/>
      <point x="27" y="795"/>
      <point x="36" y="796"/>
      <point x="46" y="798" type="curve" smooth="yes"/>
      <point x="276" y="848"/>
      <point x="1280" y="1067"/>
      <point x="1410" y="1096" type="curve" smooth="yes"/>
      <point x="1494" y="1115"/>
      <point x="1514" y="1158"/>
      <point x="1514" y="1199" type="curve" smooth="yes"/>
      <point x="1514" y="1275"/>
      <point x="1473" y="1295"/>
      <point x="1433" y="1295" type="curve" smooth="yes"/>
      <point x="1421" y="1295"/>
      <point x="1410" y="1293"/>
      <point x="1401" y="1291" type="curve" smooth="yes"/>
      <point x="1165" y="1238"/>
      <point x="106" y="1007"/>
    </contour>
    <component base="L" xOffset="-80"/>
  </outline>
</glyph>
<glyph name="florin" format="1">
  <advance width="1314"/>
  <unicode hex="0192"/>
  <outline>
    <contour>
      <point x="566" y="1056" type="curve"/>
      <point x="298" y="1056"/>
      <point x="268" y="1070"/>
      <point x="268" y="960" type="curve" smooth="yes"/>
      <point x="268" y="896"/>
      <point x="296" y="864"/>
      <point x="364" y="864" type="curve" smooth="yes"/>
      <point x="536" y="864" type="line"/>
      <point x="457" y="240"/>
      <point x="366" y="96"/>
      <point x="228" y="96" type="curve" smooth="yes"/>
      <point x="190" y="96"/>
      <point x="147" y="167"/>
      <point x="120" y="167" type="curve" smooth="yes"/>
      <point x="44" y="167"/>
      <point x="10" y="63"/>
      <point x="10" y="23" type="curve" smooth="yes"/>
      <point x="10" y="-94"/>
      <point x="156" y="-128"/>
      <point x="214" y="-128" type="curve" smooth="yes"/>
      <point x="598" y="-128"/>
      <point x="650" y="311"/>
      <point x="771" y="864" type="curve"/>
      <point x="1068" y="864" type="line" smooth="yes"/>
      <point x="1119" y="864"/>
      <point x="1164" y="896"/>
      <point x="1164" y="960" type="curve" smooth="yes"/>
      <point x="1164" y="1024"/>
      <point x="1127" y="1056"/>
      <point x="1068" y="1056" type="curve" smooth="yes"/>
      <point x="801" y="1056" type="line"/>
      <point x="873" y="1466"/>
      <point x="959" y="1613"/>
      <point x="1089" y="1613" type="curve" smooth="yes"/>
      <point x="1151" y="1613"/>
      <point x="1219" y="1542"/>
      <point x="1267" y="1542" type="curve" smooth="yes"/>
      <point x="1343" y="1542"/>
      <point x="1377" y="1646"/>
      <point x="1377" y="1686" type="curve" smooth="yes"/>
      <point x="1377" y="1803"/>
      <point x="1196" y="1837"/>
      <point x="1123" y="1837" type="curve" smooth="yes"/>
      <point x="739" y="1837"/>
      <point x="628" y="1482"/>
    </contour>
  </outline>
</glyph>
<glyph name="caron" format="1">
  <advance width="864"/>
  <unicode hex="02C7"/>
  <outline>
    <contour>
      <point x="410" y="1183" type="curve"/>
      <point x="410" y="1183"/>
      <point x="383" y="1289"/>
      <point x="337" y="1563" type="curve" smooth="yes"/>
      <point x="319" y="1666"/>
      <point x="274" y="1695"/>
      <point x="223" y="1695" type="curve" smooth="yes"/>
      <point x="148" y="1695"/>
      <point x="109" y="1644"/>
      <point x="109" y="1582" type="curve" smooth="yes"/>
      <point x="109" y="1570"/>
      <point x="110" y="1558"/>
      <point x="114" y="1547" type="curve" smooth="yes"/>
      <point x="169" y="1368"/>
      <point x="159" y="1403"/>
      <point x="202" y="1269" type="curve"/>
      <point x="242" y="1110"/>
      <point x="277" y="1019"/>
      <point x="394" y="1019" type="curve" smooth="yes"/>
      <point x="514" y="1019"/>
      <point x="542" y="1093"/>
      <point x="615" y="1233" type="curve"/>
      <point x="779" y="1562" type="line"/>
      <point x="784" y="1576"/>
      <point x="786" y="1588"/>
      <point x="786" y="1600" type="curve" smooth="yes"/>
      <point x="786" y="1655"/>
      <point x="745" y="1691"/>
      <point x="718" y="1691" type="curve" smooth="yes"/>
      <point x="663" y="1691"/>
      <point x="605" y="1689"/>
      <point x="557" y="1563" type="curve"/>
      <point x="517" y="1467"/>
      <point x="410" y="1183"/>
    </contour>
  </outline>
</glyph>
<glyph name="ring" format="1">
  <advance width="737"/>
  <unicode hex="02DA"/>
  <outline>
    <contour>
      <point x="95" y="1325" type="curve" smooth="yes"/>
      <point x="95" y="1147"/>
      <point x="228" y="1088"/>
      <point x="327" y="1088" type="curve" smooth="yes"/>
      <point x="467" y="1088"/>
      <point x="638" y="1190"/>
      <point x="638" y="1402" type="curve" smooth="yes"/>
      <point x="638" y="1542"/>
      <point x="531" y="1609"/>
      <point x="431" y="1609" type="curve" smooth="yes"/>
      <point x="291" y="1609"/>
      <point x="95" y="1510"/>
    </contour>
    <contour>
      <point x="406" y="1480" type="curve" smooth="yes"/>
      <point x="465" y="1480"/>
      <point x="493" y="1439"/>
      <point x="493" y="1389" type="curve" smooth="yes"/>
      <point x="493" y="1315"/>
      <point x="431" y="1222"/>
      <point x="327" y="1222" type="curve" smooth="yes"/>
      <point x="263" y="1222"/>
      <point x="230" y="1270"/>
      <point x="230" y="1324" type="curve" smooth="yes"/>
      <point x="230" y="1396"/>
      <point x="287" y="1480"/>
    </contour>
  </outline>
</glyph>
<glyph name="ogonek" format="1">
  <advance width="537"/>
  <unicode hex="02DB"/>
  <outline>
    <contour>
      <point x="512" y="-224" type="curve" smooth="yes"/>
      <point x="465" y="-256"/>
      <point x="428" y="-288"/>
      <point x="384" y="-288" type="curve" smooth="yes"/>
      <point x="347" y="-288"/>
      <point x="334" y="-267"/>
      <point x="334" y="-236" type="curve" smooth="yes"/>
      <point x="334" y="-160"/>
      <point x="414" y="-27"/>
      <point x="414" y="-15" type="curve" smooth="yes"/>
      <point x="414" y="13"/>
      <point x="397" y="32"/>
      <point x="352" y="32" type="curve" smooth="yes"/>
      <point x="302" y="32"/>
      <point x="240" y="24"/>
      <point x="224" y="-32" type="curve"/>
      <point x="187" y="-111"/>
      <point x="128" y="-231"/>
      <point x="128" y="-292" type="curve" smooth="yes"/>
      <point x="128" y="-375"/>
      <point x="174" y="-448"/>
      <point x="288" y="-448" type="curve" smooth="yes"/>
      <point x="378" y="-448"/>
      <point x="480" y="-389"/>
      <point x="544" y="-352" type="curve"/>
      <point x="564" y="-337"/>
      <point x="573" y="-311"/>
      <point x="573" y="-286" type="curve" smooth="yes"/>
      <point x="573" y="-251"/>
      <point x="556" y="-218"/>
      <point x="531" y="-218" type="curve" smooth="yes"/>
      <point x="525" y="-218"/>
      <point x="519" y="-220"/>
    </contour>
  </outline>
</glyph>
<glyph name="tilde" format="1">
  <advance width="960"/>
  <unicode hex="02DC"/>
  <outline>
    <contour>
      <point x="628" y="1227" type="curve"/>
      <point x="428" y="1385"/>
      <point x="392" y="1423"/>
      <point x="310" y="1423" type="curve" smooth="yes"/>
      <point x="180" y="1423"/>
      <point x="109" y="1275"/>
      <point x="78" y="1214" type="curve" smooth="yes"/>
      <point x="68" y="1194"/>
      <point x="64" y="1177"/>
      <point x="64" y="1161" type="curve" smooth="yes"/>
      <point x="64" y="1115"/>
      <point x="102" y="1088"/>
      <point x="147" y="1088" type="curve" smooth="yes"/>
      <point x="185" y="1088"/>
      <point x="228" y="1108"/>
      <point x="255" y="1151" type="curve" smooth="yes"/>
      <point x="288" y="1203"/>
      <point x="328" y="1251"/>
      <point x="328" y="1251" type="curve"/>
      <point x="528" y="1093"/>
      <point x="564" y="1055"/>
      <point x="646" y="1055" type="curve" smooth="yes"/>
      <point x="776" y="1055"/>
      <point x="847" y="1203"/>
      <point x="878" y="1264" type="curve" smooth="yes"/>
      <point x="888" y="1284"/>
      <point x="892" y="1301"/>
      <point x="892" y="1317" type="curve" smooth="yes"/>
      <point x="892" y="1363"/>
      <point x="854" y="1390"/>
      <point x="809" y="1390" type="curve" smooth="yes"/>
      <point x="771" y="1390"/>
      <point x="728" y="1370"/>
      <point x="701" y="1327" type="curve" smooth="yes"/>
      <point x="668" y="1275"/>
      <point x="628" y="1227"/>
    </contour>
  </outline>
</glyph>
<glyph name="quotedblbase" format="1">
  <advance width="1025"/>
  <unicode hex="201E"/>
  <outline>
    <contour>
      <point x="684" y="-72" type="curve"/>
      <point x="680" y="-86"/>
      <point x="678" y="-98"/>
      <point x="678" y="-109" type="curve" smooth="yes"/>
      <point x="678" y="-161"/>
      <point x="715" y="-191"/>
      <point x="759" y="-191" type="curve" smooth="yes"/>
      <point x="795" y="-191"/>
      <point x="836" y="-173"/>
      <point x="868" y="-129" type="curve" smooth="yes"/>
      <point x="912" y="-67"/>
      <point x="985" y="45"/>
      <point x="1036" y="125" type="curve"/>
      <point x="1052" y="154"/>
      <point x="1062" y="179"/>
      <point x="1062" y="205" type="curve" smooth="yes"/>
      <point x="1062" y="280"/>
      <point x="980" y="321"/>
      <point x="905" y="321" type="curve" smooth="yes"/>
      <point x="844" y="321"/>
      <point x="784" y="294"/>
      <point x="768" y="237" type="curve"/>
      <point x="768" y="237"/>
      <point x="699" y="-1"/>
    </contour>
    <contour>
      <point x="293" y="-72" type="curve"/>
      <point x="289" y="-86"/>
      <point x="287" y="-98"/>
      <point x="287" y="-109" type="curve" smooth="yes"/>
      <point x="287" y="-161"/>
      <point x="324" y="-191"/>
      <point x="368" y="-191" type="curve" smooth="yes"/>
      <point x="404" y="-191"/>
      <point x="445" y="-173"/>
      <point x="477" y="-129" type="curve" smooth="yes"/>
      <point x="521" y="-67"/>
      <point x="594" y="45"/>
      <point x="645" y="125" type="curve"/>
      <point x="661" y="154"/>
      <point x="671" y="179"/>
      <point x="671" y="205" type="curve" smooth="yes"/>
      <point x="671" y="280"/>
      <point x="589" y="321"/>
      <point x="514" y="321" type="curve" smooth="yes"/>
      <point x="453" y="321"/>
      <point x="393" y="294"/>
      <point x="377" y="237" type="curve"/>
      <point x="377" y="237"/>
      <point x="308" y="-1"/>
    </contour>
  </outline>
</glyph>
<glyph name="bullet" format="1">
  <advance width="1120"/>
  <unicode hex="2022"/>
  <outline>
    <contour>
      <point x="256" y="544" type="curve" smooth="yes"/>
      <point x="256" y="324"/>
      <point x="388" y="251"/>
      <point x="512" y="251" type="curve" smooth="yes"/>
      <point x="684" y="251"/>
      <point x="864" y="409"/>
      <point x="864" y="672" type="curve" smooth="yes"/>
      <point x="864" y="844"/>
      <point x="763" y="896"/>
      <point x="640" y="896" type="curve" smooth="yes"/>
      <point x="467" y="896"/>
      <point x="256" y="772"/>
    </contour>
  </outline>
</glyph>
<glyph name="trademark" format="1">
  <advance width="2302"/>
  <unicode hex="2122"/>
  <outline>
    <contour>
      <point x="1306" y="1078" type="curve" smooth="yes"/>
      <point x="1342" y="1078"/>
      <point x="1352" y="1036"/>
      <point x="1352" y="962" type="curve" smooth="yes"/>
      <point x="1352" y="827"/>
      <point x="1284" y="534"/>
      <point x="1271" y="485" type="curve" smooth="yes"/>
      <point x="1270" y="479"/>
      <point x="1270" y="474"/>
      <point x="1270" y="468" type="curve" smooth="yes"/>
      <point x="1270" y="423"/>
      <point x="1294" y="380"/>
      <point x="1344" y="380" type="curve" smooth="yes"/>
      <point x="1390" y="380"/>
      <point x="1445" y="401"/>
      <point x="1464" y="455" type="curve"/>
      <point x="1529" y="693"/>
      <point x="1636" y="1078"/>
      <point x="1777" y="1078" type="curve" smooth="yes"/>
      <point x="1820" y="1078"/>
      <point x="1834" y="1043"/>
      <point x="1834" y="993" type="curve" smooth="yes"/>
      <point x="1834" y="841"/>
      <point x="1748" y="657"/>
      <point x="1748" y="575" type="curve" smooth="yes"/>
      <point x="1748" y="461"/>
      <point x="1816" y="400"/>
      <point x="1893" y="400" type="curve" smooth="yes"/>
      <point x="1988" y="400"/>
      <point x="2089" y="449"/>
      <point x="2184" y="585" type="curve"/>
      <point x="2139" y="737"/>
      <point x="2139" y="729"/>
      <point x="2139" y="729" type="curve"/>
      <point x="2102" y="666"/>
      <point x="1983" y="540"/>
      <point x="1933" y="540" type="curve" smooth="yes"/>
      <point x="1919" y="540"/>
      <point x="1910" y="550"/>
      <point x="1910" y="574" type="curve" smooth="yes"/>
      <point x="1910" y="617"/>
      <point x="1992" y="845"/>
      <point x="1992" y="1056" type="curve" smooth="yes"/>
      <point x="1992" y="1172"/>
      <point x="1949" y="1266"/>
      <point x="1814" y="1266" type="curve" smooth="yes"/>
      <point x="1675" y="1266"/>
      <point x="1568" y="1115"/>
      <point x="1492" y="864" type="curve"/>
      <point x="1500" y="1014" type="line" smooth="yes"/>
      <point x="1501" y="1026"/>
      <point x="1501" y="1038"/>
      <point x="1501" y="1050" type="curve" smooth="yes"/>
      <point x="1501" y="1191"/>
      <point x="1442" y="1266"/>
      <point x="1356" y="1266" type="curve" smooth="yes"/>
      <point x="1261" y="1266"/>
      <point x="1113" y="1156"/>
      <point x="947" y="647" type="curve"/>
      <point x="929" y="655" type="line"/>
      <point x="972" y="789"/>
      <point x="1022" y="949"/>
      <point x="1072" y="1119" type="curve"/>
      <point x="1073" y="1125"/>
      <point x="1075" y="1131"/>
      <point x="1075" y="1138" type="curve" smooth="yes"/>
      <point x="1075" y="1179"/>
      <point x="1039" y="1219"/>
      <point x="995" y="1219" type="curve" smooth="yes"/>
      <point x="990" y="1219"/>
      <point x="986" y="1218"/>
      <point x="982" y="1217" type="curve"/>
      <point x="981" y="1217"/>
      <point x="979" y="1217"/>
      <point x="978" y="1218" type="curve" smooth="yes"/>
      <point x="881" y="1254"/>
      <point x="785" y="1266"/>
      <point x="700" y="1266" type="curve" smooth="yes"/>
      <point x="380" y="1266"/>
      <point x="116" y="1221"/>
      <point x="116" y="974" type="curve" smooth="yes"/>
      <point x="116" y="974"/>
      <point x="117" y="880"/>
      <point x="204" y="880" type="curve" smooth="yes"/>
      <point x="321" y="880"/>
      <point x="321" y="971"/>
      <point x="321" y="974" type="curve" smooth="yes"/>
      <point x="321" y="1087"/>
      <point x="462" y="1102"/>
      <point x="578" y="1114" type="curve"/>
      <point x="489" y="896"/>
      <point x="367" y="609"/>
      <point x="367" y="474" type="curve" smooth="yes"/>
      <point x="367" y="415"/>
      <point x="401" y="390"/>
      <point x="443" y="390" type="curve" smooth="yes"/>
      <point x="481" y="390"/>
      <point x="533" y="438"/>
      <point x="550" y="505" type="curve"/>
      <point x="590" y="645"/>
      <point x="639" y="864"/>
      <point x="714" y="1114" type="curve"/>
      <point x="775" y="1107"/>
      <point x="841" y="1087"/>
      <point x="897" y="1076" type="curve"/>
      <point x="886" y="903"/>
      <point x="762" y="675"/>
      <point x="762" y="493" type="curve" smooth="yes"/>
      <point x="762" y="421"/>
      <point x="813" y="380"/>
      <point x="873" y="380" type="curve" smooth="yes"/>
      <point x="916" y="380"/>
      <point x="957" y="401"/>
      <point x="986" y="453" type="curve"/>
      <point x="1072" y="690"/>
      <point x="1225" y="1078"/>
    </contour>
  </outline>
</glyph>
<glyph name="minus" format="1">
  <advance width="1216"/>
  <unicode hex="2212"/>
  <outline>
    <contour>
      <point x="917" y="576" type="line" smooth="yes"/>
      <point x="964" y="576"/>
      <point x="1024" y="597"/>
      <point x="1024" y="691" type="curve" smooth="yes"/>
      <point x="1024" y="732"/>
      <point x="995" y="768"/>
      <point x="929" y="768" type="curve" smooth="yes"/>
      <point x="331" y="768" type="line" smooth="yes"/>
      <point x="239" y="768"/>
      <point x="192" y="715"/>
      <point x="192" y="666" type="curve" smooth="yes"/>
      <point x="192" y="620"/>
      <point x="232" y="576"/>
      <point x="315" y="576" type="curve" smooth="yes"/>
    </contour>
  </outline>
</glyph>
<glyph name="fi" format="1">
  <advance width="1260"/>
  <unicode hex="FB01"/>
  <outline>
    <contour>
      <point x="1459" y="416" type="line"/>
      <point x="1370" y="345"/>
      <point x="1221" y="192"/>
      <point x="1126" y="192" type="curve" smooth="yes"/>
      <point x="1085" y="192"/>
      <point x="1075" y="231"/>
      <point x="1075" y="290" type="curve" smooth="yes"/>
      <point x="1075" y="476"/>
      <point x="1209" y="813"/>
      <point x="1209" y="903" type="curve" smooth="yes"/>
      <point x="1209" y="938"/>
      <point x="1192" y="960"/>
      <point x="1137" y="960" type="curve" smooth="yes"/>
      <point x="1076" y="960"/>
      <point x="974" y="932"/>
      <point x="955" y="863" type="curve"/>
      <point x="912" y="694" type="line"/>
      <point x="847" y="649"/>
      <point x="727" y="587"/>
      <point x="560" y="587" type="curve" smooth="yes"/>
      <point x="533" y="587"/>
      <point x="528" y="603"/>
      <point x="494" y="603" type="curve" smooth="yes"/>
      <point x="479" y="603"/>
      <point x="469" y="600"/>
      <point x="443" y="587" type="curve"/>
      <point x="445" y="603" type="line"/>
      <point x="692" y="921"/>
      <point x="929" y="1387"/>
      <point x="929" y="1624" type="curve" smooth="yes"/>
      <point x="929" y="1797"/>
      <point x="808" y="1856"/>
      <point x="717" y="1856" type="curve" smooth="yes"/>
      <point x="141" y="1856"/>
      <point x="68" y="-4"/>
      <point x="68" y="-38" type="curve" smooth="yes"/>
      <point x="68" y="-282"/>
      <point x="114" y="-604"/>
      <point x="333" y="-604" type="curve" smooth="yes"/>
      <point x="626" y="-604"/>
      <point x="666" y="-75"/>
      <point x="666" y="-29" type="curve" smooth="yes"/>
      <point x="666" y="175"/>
      <point x="535" y="397"/>
      <point x="535" y="397" type="curve"/>
      <point x="535" y="397"/>
      <point x="699" y="399"/>
      <point x="854" y="455" type="curve"/>
      <point x="834" y="359"/>
      <point x="819" y="269"/>
      <point x="819" y="201" type="curve" smooth="yes"/>
      <point x="819" y="80"/>
      <point x="866" y="0"/>
      <point x="1005" y="0" type="curve" smooth="yes"/>
      <point x="1159" y="0"/>
      <point x="1364" y="124"/>
      <point x="1459" y="213" type="curve"/>
    </contour>
    <contour>
      <point x="335" y="442" type="curve" smooth="yes"/>
      <point x="385" y="442"/>
      <point x="457" y="85"/>
      <point x="457" y="-57" type="curve" smooth="yes"/>
      <point x="457" y="-195"/>
      <point x="445" y="-379"/>
      <point x="354" y="-379" type="curve" smooth="yes"/>
      <point x="326" y="-379"/>
      <point x="294" y="-333"/>
      <point x="294" y="59" type="curve" smooth="yes"/>
      <point x="294" y="143"/>
      <point x="318" y="442"/>
    </contour>
    <contour>
      <point x="578" y="1533" type="curve" smooth="yes"/>
      <point x="604" y="1598"/>
      <point x="630" y="1631"/>
      <point x="691" y="1631" type="curve" smooth="yes"/>
      <point x="726" y="1631"/>
      <point x="747" y="1599"/>
      <point x="747" y="1529" type="curve" smooth="yes"/>
      <point x="747" y="1427"/>
      <point x="562" y="1123"/>
      <point x="399" y="816" type="curve"/>
      <point x="417" y="962"/>
      <point x="423" y="1149"/>
    </contour>
    <contour>
      <point x="1012" y="1241" type="curve" smooth="yes"/>
      <point x="1012" y="1149"/>
      <point x="1067" y="1089"/>
      <point x="1184" y="1089" type="curve" smooth="yes"/>
      <point x="1320" y="1089"/>
      <point x="1378" y="1178"/>
      <point x="1378" y="1268" type="curve" smooth="yes"/>
      <point x="1378" y="1368"/>
      <point x="1301" y="1408"/>
      <point x="1208" y="1408" type="curve" smooth="yes"/>
      <point x="1060" y="1408"/>
      <point x="1012" y="1303"/>
    </contour>
  </outline>
</glyph>
<glyph name="fl" format="1">
  <advance width="1298"/>
  <unicode hex="FB02"/>
  <outline>
    <contour>
      <point x="1074" y="0" type="curve" smooth="yes"/>
      <point x="1256" y="0"/>
      <point x="1563" y="227"/>
      <point x="1563" y="227" type="curve"/>
      <point x="1481" y="437" type="line"/>
      <point x="1481" y="437"/>
      <point x="1242" y="244"/>
      <point x="1141" y="244" type="curve" smooth="yes"/>
      <point x="1121" y="244"/>
      <point x="1088" y="312"/>
      <point x="1088" y="381" type="curve" smooth="yes"/>
      <point x="1088" y="395" type="line"/>
      <point x="1096" y="449"/>
      <point x="1115" y="509"/>
      <point x="1127" y="536" type="curve"/>
      <point x="1312" y="896"/>
      <point x="1594" y="1317"/>
      <point x="1594" y="1694" type="curve" smooth="yes"/>
      <point x="1594" y="1805"/>
      <point x="1565" y="1920"/>
      <point x="1450" y="1920" type="curve" smooth="yes"/>
      <point x="1118" y="1920"/>
      <point x="841" y="1021"/>
      <point x="820" y="642" type="curve"/>
      <point x="754" y="612"/>
      <point x="667" y="587"/>
      <point x="560" y="587" type="curve" smooth="yes"/>
      <point x="533" y="587"/>
      <point x="528" y="603"/>
      <point x="494" y="603" type="curve" smooth="yes"/>
      <point x="479" y="603"/>
      <point x="469" y="600"/>
      <point x="443" y="587" type="curve"/>
      <point x="445" y="603" type="line"/>
      <point x="692" y="921"/>
      <point x="929" y="1387"/>
      <point x="929" y="1624" type="curve" smooth="yes"/>
      <point x="929" y="1797"/>
      <point x="808" y="1856"/>
      <point x="717" y="1856" type="curve" smooth="yes"/>
      <point x="141" y="1856"/>
      <point x="68" y="-4"/>
      <point x="68" y="-38" type="curve" smooth="yes"/>
      <point x="68" y="-282"/>
      <point x="114" y="-604"/>
      <point x="333" y="-604" type="curve" smooth="yes"/>
      <point x="626" y="-604"/>
      <point x="666" y="-75"/>
      <point x="666" y="-29" type="curve" smooth="yes"/>
      <point x="666" y="175"/>
      <point x="535" y="397"/>
      <point x="535" y="397" type="curve"/>
      <point x="535" y="397"/>
      <point x="680" y="399"/>
      <point x="826" y="446" type="curve"/>
      <point x="853" y="196"/>
      <point x="952" y="0"/>
    </contour>
    <contour>
      <point x="1091" y="795" type="curve"/>
      <point x="1091" y="795"/>
      <point x="1090" y="848"/>
      <point x="1090" y="899" type="curve" smooth="yes"/>
      <point x="1090" y="937"/>
      <point x="1091" y="973"/>
      <point x="1092" y="986" type="curve" smooth="yes"/>
      <point x="1135" y="1399"/>
      <point x="1287" y="1664"/>
      <point x="1375" y="1664" type="curve" smooth="yes"/>
      <point x="1386" y="1664"/>
      <point x="1386" y="1632"/>
      <point x="1386" y="1594" type="curve"/>
      <point x="1361" y="1352"/>
      <point x="1210" y="1008"/>
    </contour>
    <contour>
      <point x="335" y="442" type="curve" smooth="yes"/>
      <point x="385" y="442"/>
      <point x="457" y="85"/>
      <point x="457" y="-57" type="curve" smooth="yes"/>
      <point x="457" y="-195"/>
      <point x="445" y="-379"/>
      <point x="354" y="-379" type="curve" smooth="yes"/>
      <point x="326" y="-379"/>
      <point x="294" y="-333"/>
      <point x="294" y="59" type="curve" smooth="yes"/>
      <point x="294" y="143"/>
      <point x="318" y="442"/>
    </contour>
    <contour>
      <point x="578" y="1533" type="curve" smooth="yes"/>
      <point x="604" y="1598"/>
      <point x="630" y="1631"/>
      <point x="691" y="1631" type="curve" smooth="yes"/>
      <point x="726" y="1631"/>
      <point x="747" y="1599"/>
      <point x="747" y="1529" type="curve" smooth="yes"/>
      <point x="747" y="1427"/>
      <point x="562" y="1123"/>
      <point x="399" y="816" type="curve"/>
      <point x="417" y="962"/>
      <point x="423" y="1149"/>
    </contour>
  </outline>
</glyph>
<glyph name="ox" format="1">
  <advance width="1765"/>
  <outline>
    <contour>
      <point x="1029" y="781" type="curve" smooth="yes"/>
      <point x="939" y="672"/>
      <point x="892" y="602"/>
      <point x="841" y="602" type="curve" smooth="yes"/>
      <point x="831" y="602"/>
      <point x="826" y="607"/>
      <point x="826" y="618" type="curve" smooth="yes"/>
      <point x="826" y="893"/>
      <point x="636" y="960"/>
      <point x="545" y="960" type="curve" smooth="yes"/>
      <point x="248" y="960"/>
      <point x="67" y="730"/>
      <point x="67" y="437" type="curve" smooth="yes"/>
      <point x="67" y="225"/>
      <point x="163" y="0"/>
      <point x="397" y="0" type="curve" smooth="yes"/>
      <point x="661" y="0"/>
      <point x="730" y="332"/>
      <point x="765" y="412" type="curve"/>
      <point x="771" y="408"/>
      <point x="778" y="407"/>
      <point x="788" y="407" type="curve" smooth="yes"/>
      <point x="855" y="407"/>
      <point x="1002" y="492"/>
      <point x="1061" y="584" type="curve"/>
      <point x="1088" y="528"/>
      <point x="1115" y="477"/>
      <point x="1141" y="430" type="curve"/>
      <point x="1098" y="338"/>
      <point x="940" y="199"/>
      <point x="902" y="157" type="curve" smooth="yes"/>
      <point x="884" y="137"/>
      <point x="876" y="116"/>
      <point x="876" y="95" type="curve" smooth="yes"/>
      <point x="876" y="31"/>
      <point x="953" y="-26"/>
      <point x="1009" y="-26" type="curve" smooth="yes"/>
      <point x="1031" y="-26"/>
      <point x="1049" y="-18"/>
      <point x="1059" y="3" type="curve"/>
      <point x="1106" y="28"/>
      <point x="1205" y="141"/>
      <point x="1278" y="215" type="curve"/>
      <point x="1374" y="50"/>
      <point x="1421" y="-30"/>
      <point x="1476" y="-30" type="curve" smooth="yes"/>
      <point x="1668" y="-30"/>
      <point x="1869" y="177"/>
      <point x="1956" y="284" type="curve"/>
      <point x="1956" y="349"/>
      <point x="1954" y="385"/>
      <point x="1954" y="454" type="curve"/>
      <point x="1888" y="366"/>
      <point x="1674" y="193"/>
      <point x="1585" y="193" type="curve" smooth="yes"/>
      <point x="1540" y="193"/>
      <point x="1479" y="296"/>
      <point x="1420" y="386" type="curve"/>
      <point x="1504" y="493"/>
      <point x="1597" y="592"/>
      <point x="1700" y="672" type="curve"/>
      <point x="1736" y="695"/>
      <point x="1753" y="738"/>
      <point x="1753" y="780" type="curve" smooth="yes"/>
      <point x="1753" y="839"/>
      <point x="1721" y="895"/>
      <point x="1659" y="895" type="curve" smooth="yes"/>
      <point x="1635" y="895"/>
      <point x="1605" y="886"/>
      <point x="1572" y="864" type="curve"/>
      <point x="1472" y="783"/>
      <point x="1390" y="690"/>
      <point x="1322" y="603" type="curve"/>
      <point x="1261" y="725"/>
      <point x="1215" y="824"/>
      <point x="1192" y="868" type="curve" smooth="yes"/>
      <point x="1183" y="886"/>
      <point x="1152" y="896"/>
      <point x="1136" y="896" type="curve" smooth="yes"/>
      <point x="1089" y="896"/>
      <point x="1064" y="823"/>
    </contour>
    <contour>
      <point x="436" y="192" type="curve" smooth="yes"/>
      <point x="310" y="192"/>
      <point x="261" y="310"/>
      <point x="261" y="446" type="curve" smooth="yes"/>
      <point x="261" y="589"/>
      <point x="369" y="768"/>
      <point x="494" y="768" type="curve" smooth="yes"/>
      <point x="505" y="768"/>
      <point x="509" y="766"/>
      <point x="509" y="762" type="curve" smooth="yes"/>
      <point x="509" y="747"/>
      <point x="449" y="704"/>
      <point x="449" y="641" type="curve" smooth="yes"/>
      <point x="449" y="592"/>
      <point x="485" y="531"/>
      <point x="611" y="461" type="curve"/>
      <point x="611" y="345"/>
      <point x="528" y="192"/>
    </contour>
  </outline>
</glyph>
<glyph name="tt" format="1">
  <advance width="1527"/>
  <outline>
    <contour>
      <point x="1700" y="224" type="curve"/>
      <point x="1700" y="480" type="line"/>
      <point x="1581" y="350"/>
      <point x="1357" y="224"/>
      <point x="1273" y="224" type="curve" smooth="yes"/>
      <point x="1182" y="224"/>
      <point x="1126" y="277"/>
      <point x="1126" y="420" type="curve" smooth="yes"/>
      <point x="1126" y="531"/>
      <point x="1139" y="748"/>
      <point x="1139" y="748" type="curve"/>
      <point x="1172" y="789"/>
      <point x="1213" y="843"/>
      <point x="1252" y="896" type="curve"/>
      <point x="1546" y="896" type="line" smooth="yes"/>
      <point x="1578" y="896"/>
      <point x="1610" y="928"/>
      <point x="1610" y="975" type="curve" smooth="yes"/>
      <point x="1610" y="1013"/>
      <point x="1599" y="1041"/>
      <point x="1572" y="1043" type="curve"/>
      <point x="1524" y="1045"/>
      <point x="1389" y="1053"/>
      <point x="1363" y="1055" type="curve"/>
      <point x="1460" y="1206"/>
      <point x="1540" y="1368"/>
      <point x="1540" y="1499" type="curve" smooth="yes"/>
      <point x="1540" y="1655"/>
      <point x="1465" y="1792"/>
      <point x="1349" y="1792" type="curve" smooth="yes"/>
      <point x="1185" y="1792"/>
      <point x="1015" y="1429"/>
      <point x="939" y="1046" type="curve"/>
      <point x="824" y="1049"/>
      <point x="649" y="1053"/>
      <point x="623" y="1055" type="curve"/>
      <point x="720" y="1206"/>
      <point x="800" y="1368"/>
      <point x="800" y="1499" type="curve" smooth="yes"/>
      <point x="800" y="1655"/>
      <point x="725" y="1792"/>
      <point x="609" y="1792" type="curve" smooth="yes"/>
      <point x="431" y="1792"/>
      <point x="280" y="1447"/>
      <point x="207" y="1088" type="curve"/>
      <point x="116" y="1088"/>
      <point x="49" y="1093"/>
      <point x="1" y="1093" type="curve" smooth="yes"/>
      <point x="-67" y="1093"/>
      <point x="-96" y="1083"/>
      <point x="-96" y="1037" type="curve" smooth="yes"/>
      <point x="-96" y="1012"/>
      <point x="-96" y="953"/>
      <point x="-32" y="946" type="curve" smooth="yes"/>
      <point x="112" y="930"/>
      <point x="99" y="939"/>
      <point x="179" y="928" type="curve"/>
      <point x="167" y="839"/>
      <point x="160" y="745"/>
      <point x="160" y="665" type="curve" smooth="yes"/>
      <point x="160" y="255"/>
      <point x="266" y="0"/>
      <point x="469" y="0" type="curve" smooth="yes"/>
      <point x="558" y="0"/>
      <point x="759" y="139"/>
      <point x="912" y="440" type="curve"/>
      <point x="946" y="164"/>
      <point x="1046" y="0"/>
      <point x="1209" y="0" type="curve" smooth="yes"/>
      <point x="1308" y="0"/>
      <point x="1504" y="75"/>
    </contour>
    <contour>
      <point x="533" y="224" type="curve" smooth="yes"/>
      <point x="527" y="223"/>
      <point x="521" y="223"/>
      <point x="516" y="223" type="curve" smooth="yes"/>
      <point x="414" y="223"/>
      <point x="387" y="343"/>
      <point x="387" y="470" type="curve" smooth="yes"/>
      <point x="387" y="750"/>
      <point x="446" y="786"/>
      <point x="522" y="896" type="curve"/>
      <point x="915" y="896" type="line"/>
      <point x="906" y="819"/>
      <point x="900" y="742"/>
      <point x="900" y="671" type="curve"/>
      <point x="777" y="433"/>
      <point x="604" y="232"/>
    </contour>
    <contour>
      <point x="1380" y="1490" type="curve" smooth="yes"/>
      <point x="1380" y="1401"/>
      <point x="1274" y="1195"/>
      <point x="1189" y="1053" type="curve"/>
      <point x="1128" y="1050" type="line"/>
      <point x="1177" y="1277"/>
      <point x="1253" y="1568"/>
      <point x="1327" y="1568" type="curve" smooth="yes"/>
      <point x="1377" y="1568"/>
      <point x="1380" y="1520"/>
    </contour>
    <contour>
      <point x="640" y="1490" type="curve" smooth="yes"/>
      <point x="640" y="1405"/>
      <point x="540" y="1209"/>
      <point x="459" y="1073" type="curve"/>
      <point x="451" y="1074"/>
      <point x="443" y="1074"/>
      <point x="435" y="1074" type="curve" smooth="yes"/>
      <point x="428" y="1074"/>
      <point x="422" y="1074"/>
      <point x="416" y="1074" type="curve" smooth="yes"/>
      <point x="410" y="1074"/>
      <point x="404" y="1074"/>
      <point x="398" y="1075" type="curve"/>
      <point x="445" y="1290"/>
      <point x="517" y="1568"/>
      <point x="587" y="1568" type="curve" smooth="yes"/>
      <point x="637" y="1568"/>
      <point x="640" y="1520"/>
    </contour>
  </outline>
</glyph>
